<svg xmlns="http://www.w3.org/2000/svg" xmlns:xlink="http://www.w3.org/1999/xlink" version="1.1" x="0px" y="0px" viewBox="0 0 500 500" style="enable-background:new 0 0 500 500;" xml:space="preserve">
<g id="Floor">
</g>
<g id="Shadows">
</g>
<g id="Clouds">
</g>
<g id="Plants">
</g>
<g id="Finish_Line">
</g>
<g id="Character">
</g>
<g id="Confetti_1_">
	<g>
		<path style="fill:#1E0F00;" d="M198.87,325.43l-6.49-3.69l-13.9,13.9C178.48,335.64,188.9,338.95,198.87,325.43z"/>
		<path style="fill:#0E538A;" d="M233.39,303.47c0,0-4.45,30.94-7.5,38.95c0,0-14.89-10.86-26.96-16.89l-9.53,8.16    c0,0,29.64,28.29,42.3,27.31c17.38-1.35,33.5-55.28,33.5-55.28L233.39,303.47z"/>
		<path style="fill:#1E0F00;" d="M281.11,395.29l4.69,7.25l24.51-6.85C310.3,395.69,301.04,386.73,281.11,395.29z"/>
		<path style="fill:#2A94F4;" d="M271.77,345.38l-12.42-29.21l0,0c-0.48-2.08,0.99-3.95,0.99-3.95l-0.7-7.29l-16.64-5.92    l-10.53-3.67c0,0-21.44,15.09,48.39,100.08l14.23-3.9L271.77,345.38z"/>
	</g>
	<g>
		<path id="Arch" style="fill:#0E538D;" d="M368.41,283.15l0-179.27c0-5.72-3.05-11-8-13.86l-40.62-23.45    c-4.95-2.86-11.05-2.86-16,0l-170.6,98.5c-2.43,1.4-4.45,3.42-5.86,5.86l-40.62,70.36c-1.4,2.43-2.14,5.19-2.14,8v179.27    c0,2.36,1.56,4.73,4.69,6.53c6.25,3.61,16.38,3.61,22.63,0c3.12-1.8,4.69-4.17,4.69-6.53l0,0V253.57l36.33-62.93L311.79,98.9    l24.62,14.21l0,170.04h0c0,2.37,1.56,4.74,4.69,6.54c6.25,3.61,16.38,3.61,22.63,0C366.86,287.88,368.42,285.52,368.41,283.15    L368.41,283.15z"/>
		<path style="fill:#0A4971;" d="M116.57,253.57c0,0-5.1-7-20.36-8.45c0,0,10.86-3.04,22.8,4.22L116.57,253.57z"/>
		<path style="fill:#0A4971;" d="M152.9,190.64c0,0,1.28-8.4-7.9-15.53c0,0,8.43,2.54,11.29,13.57L152.9,190.64z"/>
		<path style="fill:#0A4971;" d="M311.79,98.9c3.01-3.06,5.47-10.91,4.84-17.94c0,0,3.55,7.4-1.65,19.78L311.79,98.9z"/>
		<path style="fill:#0A4971;" d="M336.41,113.11c8.2,0.33,16.28-2.74,20.08-8.25c0,0-3.22,11.09-20.08,12.2V113.11z"/>
		<path id="Shadow_8_" style="fill:#0A4971;" d="M275.79,119.68V92.84c0-1.38-0.97-1.94-2.17-1.25l-101.28,58.48    c-1.2,0.69-2.16,2.37-2.17,3.75l0,26.85L275.79,119.68z"/>
		<path style="fill:#27DEBF;" d="M277.8,86.75c-0.39-0.23-0.94-0.2-1.54,0.14l-101.28,58.48c-1.2,0.69-2.17,2.37-2.17,3.75l0,37.21    c0,0.69,0.24,1.18,0.63,1.4c0.39,0.23,3.67,2.12,4.06,2.34c0.39,0.23,0.93,0.19,1.53-0.15l101.28-58.48    c1.2-0.69,2.16-2.37,2.16-3.75V90.49c0-0.7-0.25-1.19-0.65-1.41C281.45,88.86,278.19,86.98,277.8,86.75z"/>
		<path style="fill:#FEBE55;" d="M179.04,147.72l101.28-58.48c1.2-0.69,2.17-0.13,2.17,1.25v37.21c0,1.38-0.97,3.06-2.17,3.75    l-101.28,58.48c-1.2,0.69-2.17,0.13-2.17-1.25l0-37.21C176.87,150.09,177.84,148.41,179.04,147.72z"/>
		<path style="fill:#FCAF3F;" d="M176.87,188.68c0,0.61,0.19,1.06,0.51,1.32c-0.72-0.41-3.57-2.06-3.94-2.27    c-0.39-0.22-0.63-0.71-0.63-1.4v-37.21c0-0.69,0.24-1.45,0.64-2.13l4.06,2.34c-0.4,0.68-0.64,1.45-0.64,2.14V188.68z"/>
		<path style="fill:#FFC97B;" d="M277.8,86.75c0.37,0.22,3.25,1.88,3.93,2.27c-0.38-0.15-0.87-0.09-1.41,0.22l-101.28,58.48    c-0.6,0.34-1.13,0.93-1.53,1.61l-4.06-2.34c0.39-0.68,0.93-1.27,1.53-1.62l101.28-58.48C276.86,86.55,277.41,86.52,277.8,86.75z"/>
		<g>
			<path style="fill:#FAFAFA;" d="M205.07,142.37c0.16-0.09,0.29-0.08,0.41,0.03c0.11,0.11,0.17,0.29,0.17,0.53v3.51     c0,0.24-0.06,0.49-0.17,0.73c-0.11,0.24-0.25,0.41-0.41,0.5l-6.42,3.71v4.53l5.99-3.46c0.16-0.09,0.29-0.08,0.41,0.03     c0.11,0.11,0.17,0.29,0.17,0.53v3.51c0,0.24-0.06,0.49-0.17,0.73c-0.12,0.24-0.25,0.41-0.41,0.5l-5.99,3.46v7.14     c0,0.24-0.06,0.49-0.17,0.73c-0.12,0.24-0.25,0.41-0.41,0.5l-2.81,1.63c-0.16,0.09-0.29,0.08-0.41-0.03     c-0.12-0.11-0.17-0.29-0.17-0.53v-21.37c0-0.24,0.06-0.48,0.17-0.73c0.11-0.24,0.25-0.41,0.41-0.5L205.07,142.37z"/>
			<path style="fill:#FAFAFA;" d="M208.51,163.54c-0.16,0.09-0.29,0.08-0.41-0.03c-0.12-0.11-0.17-0.29-0.17-0.53v-21.37     c0-0.24,0.06-0.48,0.17-0.73c0.11-0.24,0.25-0.41,0.41-0.5l2.81-1.63c0.16-0.09,0.29-0.08,0.41,0.03     c0.11,0.11,0.17,0.29,0.17,0.53v21.37c0,0.24-0.06,0.49-0.17,0.73c-0.12,0.24-0.25,0.41-0.41,0.5L208.51,163.54z"/>
			<path style="fill:#FAFAFA;" d="M224.69,154.2c-0.25,0.14-0.44,0.15-0.59,0.04c-0.15-0.11-0.25-0.21-0.29-0.3l-4.92-8.47v11.18     c0,0.24-0.06,0.49-0.17,0.73c-0.12,0.24-0.25,0.41-0.41,0.5l-2.81,1.63c-0.16,0.09-0.29,0.08-0.41-0.03     c-0.12-0.11-0.17-0.29-0.17-0.53v-21.37c0-0.24,0.06-0.48,0.17-0.73c0.11-0.24,0.25-0.41,0.41-0.5l2.23-1.29     c0.24-0.14,0.44-0.16,0.59-0.04c0.15,0.11,0.25,0.21,0.29,0.3l4.92,8.47V132.6c0-0.24,0.06-0.48,0.17-0.73     c0.11-0.24,0.25-0.41,0.41-0.5l2.81-1.63c0.16-0.09,0.29-0.08,0.41,0.03c0.12,0.11,0.17,0.29,0.17,0.53v21.37     c0,0.24-0.06,0.49-0.17,0.73c-0.11,0.24-0.25,0.41-0.41,0.5L224.69,154.2z"/>
			<path style="fill:#FAFAFA;" d="M231.09,150.5c-0.16,0.09-0.29,0.08-0.41-0.03c-0.12-0.11-0.17-0.29-0.17-0.53v-21.37     c0-0.24,0.06-0.48,0.17-0.73c0.11-0.24,0.25-0.41,0.41-0.5l2.82-1.63c0.16-0.09,0.29-0.08,0.41,0.03     c0.11,0.11,0.17,0.29,0.17,0.53v21.37c0,0.24-0.06,0.49-0.17,0.73c-0.12,0.24-0.25,0.41-0.41,0.5L231.09,150.5z"/>
			<path style="fill:#FAFAFA;" d="M243.08,120.09c0.92-0.53,1.76-0.81,2.52-0.85c0.77-0.03,1.43,0.11,1.99,0.42     c0.56,0.32,1,0.77,1.31,1.36c0.32,0.59,0.48,1.23,0.5,1.93c0,0.2-0.05,0.4-0.14,0.59c-0.09,0.2-0.2,0.33-0.31,0.4l-2.81,1.63     c-0.2,0.12-0.36,0.17-0.48,0.15c-0.12-0.02-0.25-0.08-0.38-0.18c-0.04-0.04-0.11-0.11-0.2-0.21c-0.09-0.1-0.23-0.18-0.4-0.25     c-0.17-0.07-0.39-0.08-0.64-0.06c-0.26,0.03-0.57,0.15-0.95,0.36c-0.27,0.16-0.53,0.34-0.78,0.54c-0.25,0.2-0.47,0.42-0.67,0.65     c-0.19,0.23-0.35,0.5-0.47,0.79c-0.12,0.29-0.18,0.6-0.18,0.93c0,0.33,0.07,0.57,0.2,0.71c0.14,0.14,0.37,0.21,0.69,0.22     c0.32,0,0.75-0.06,1.28-0.19c0.53-0.13,1.19-0.3,1.98-0.51c0.79-0.21,1.47-0.3,2.06-0.26c0.59,0.04,1.08,0.22,1.47,0.56     c0.39,0.33,0.69,0.83,0.88,1.48c0.19,0.65,0.29,1.49,0.29,2.53c0,1.13-0.16,2.22-0.5,3.3c-0.33,1.07-0.79,2.09-1.39,3.07     c-0.59,0.97-1.3,1.86-2.11,2.66c-0.81,0.8-1.69,1.47-2.65,2.03c-0.97,0.56-1.86,0.88-2.67,0.94c-0.8,0.07-1.49-0.06-2.07-0.37     c-0.58-0.32-1.04-0.79-1.36-1.41c-0.33-0.63-0.5-1.35-0.52-2.18c0-0.2,0.05-0.4,0.14-0.59c0.09-0.2,0.2-0.33,0.31-0.39l2.81-1.63     c0.2-0.12,0.36-0.17,0.47-0.16c0.12,0.01,0.23,0.06,0.34,0.15c0.06,0.06,0.14,0.15,0.26,0.28c0.11,0.13,0.27,0.25,0.46,0.35     c0.19,0.1,0.44,0.14,0.73,0.12c0.29-0.02,0.66-0.15,1.09-0.4c0.76-0.44,1.39-0.93,1.9-1.48c0.51-0.55,0.76-1.15,0.76-1.81     c0-0.33-0.09-0.55-0.28-0.67c-0.19-0.11-0.47-0.16-0.84-0.13c-0.37,0.03-0.85,0.12-1.43,0.28c-0.58,0.16-1.26,0.33-2.05,0.52     c-1.48,0.37-2.55,0.18-3.23-0.56c-0.68-0.74-1.02-2.06-1.02-3.96c0-0.95,0.14-1.93,0.42-2.95c0.28-1.02,0.68-2.02,1.21-2.98     c0.53-0.97,1.17-1.86,1.92-2.68C241.3,121.31,242.14,120.63,243.08,120.09z"/>
			<path style="fill:#FAFAFA;" d="M264.11,108.28c0.16-0.09,0.29-0.08,0.41,0.03c0.11,0.11,0.17,0.29,0.17,0.53v21.37     c0,0.24-0.06,0.49-0.17,0.73c-0.11,0.24-0.25,0.41-0.41,0.5l-2.81,1.63c-0.16,0.09-0.29,0.08-0.41-0.03     c-0.11-0.11-0.17-0.29-0.17-0.53v-8.1l-4.77,2.75v8.1c0,0.24-0.06,0.49-0.17,0.73c-0.12,0.24-0.25,0.41-0.41,0.5l-2.81,1.63     c-0.16,0.09-0.29,0.09-0.41-0.01c-0.12-0.1-0.17-0.28-0.17-0.55v-21.37c0-0.24,0.06-0.48,0.17-0.73c0.11-0.24,0.25-0.41,0.41-0.5     l2.81-1.63c0.16-0.09,0.29-0.08,0.41,0.03c0.11,0.11,0.17,0.29,0.17,0.53v7.97l4.77-2.75v-7.97c0-0.24,0.06-0.48,0.17-0.73     c0.12-0.24,0.25-0.41,0.41-0.5L264.11,108.28z"/>
		</g>
		<g>
			<path style="fill:#FFBD58;" d="M252.64,314.05l-5.11,0.56l3.62-3.89c-19.11,7.24-48.08,1.74-81.74,7.93     c-20.52,3.77-45.51,18.19-52.83,26.3v11.61c7.43-8.99,36.24-26.91,53.47-30.37c35.64-7.15,63.97-0.7,80.11-6.34l2.8-1.2     l-4.92-0.58L252.64,314.05z"/>
			<path style="opacity:0.2;fill:#FFBD58;" d="M252.64,314.05l-5.11,0.56l3.62-3.89c-19.11,7.24-48.08,1.74-81.74,7.93     c-20.52,3.77-45.51,18.19-52.83,26.3v11.61c7.43-8.99,36.24-26.91,53.47-30.37c35.64-7.15,63.97-0.7,80.11-6.34l2.8-1.2     l-4.92-0.58L252.64,314.05z"/>
		</g>
		<g>
			<path style="fill:#FFBD58;" d="M304.81,274.23c-8.99,16.44-20.56,29.17-43.72,33.57l5.66,1.08l-4.7,3.13l4.82,0.66l-3.3,3.25     c25.38-5.57,37.53-19.65,46.83-35.92c6.59-11.53,10.86-29.7,18.29-43.16c5.87-10.63,10.96-16.31,15.81-19.64l0-9.45     c-7.58,4.38-14.89,12.55-20.66,23.13C315.36,246.42,309.45,265.74,304.81,274.23z"/>
			<path style="opacity:0.2;fill:#FFBD58;" d="M304.81,274.23c-8.99,16.44-20.56,29.17-43.72,33.57l5.66,1.08l-4.7,3.13l4.82,0.66     l-3.3,3.25c25.38-5.57,37.53-19.65,46.83-35.92c6.59-11.53,10.86-29.7,18.29-43.16c5.87-10.63,10.96-16.31,15.81-19.64l0-9.45     c-7.58,4.38-14.89,12.55-20.66,23.13C315.36,246.42,309.45,265.74,304.81,274.23z"/>
		</g>
		<g>
			<path id="XMLID_831_" style="fill:#FEBE55;" d="M396.51,170.39c0,0-4.15-2.5-4.34-6.99l3.07-2.47c0,0-0.42,2.76,3.15,6.71     L396.51,170.39z"/>
			<path id="XMLID_829_" style="fill:#FEBE55;" d="M434.15,135.19c0,0-3.91-2.86-3.71-7.34l3.27-2.19c0,0-0.66,2.71,2.55,6.96     L434.15,135.19z"/>
			<path id="XMLID_743_" style="fill:#FEBE55;" d="M457.96,290.51c0,0-3.91-2.86-3.71-7.34l3.27-2.19c0,0-0.66,2.71,2.55,6.96     L457.96,290.51z"/>
			<path id="XMLID_724_" style="fill:#FEBE55;" d="M433.09,82.42c0,0-1.58-4.58,1.14-8.15l3.93,0.07c0,0-2.09,1.85-1.88,7.17     L433.09,82.42z"/>
			<path id="XMLID_715_" style="fill:#FEBE55;" d="M464.41,168.66c0,0,2.18,4.33-0.04,8.23l-3.91,0.46c0,0,1.82-2.11,0.9-7.36     L464.41,168.66z"/>
			<path id="XMLID_732_" style="fill:#FEBE55;" d="M94.76,153.12c0,0,2.74-4.51,0.67-8.94l-4.2-0.84c0,0,1.8,2.45,0.34,8.06     L94.76,153.12z"/>
			<path id="XMLID_726_" style="fill:#FEBE55;" d="M214.37,71.03c0,0-0.06,4.84,3.65,7.37l3.71-1.31c0,0-2.57-1.1-4.04-6.21     L214.37,71.03z"/>
			<path id="XMLID_723_" style="fill:#FEBE55;" d="M37.44,208.98c0,0,4.24-2.35,4.6-6.82l-2.97-2.58c0,0,0.32,2.77-3.4,6.59     L37.44,208.98z"/>
			<path id="XMLID_704_" style="fill:#FEBE55;" d="M57.23,248.85c0,0-4.24-2.35-4.6-6.82l2.97-2.58c0,0-0.32,2.77,3.4,6.59     L57.23,248.85z"/>
			<path id="XMLID_710_" style="fill:#FEBE55;" d="M63.88,239.07c0,0-1.82-4.49,0.71-8.2l3.93-0.14c0,0-1.99,1.96-1.5,7.26     L63.88,239.07z"/>
		</g>
		<g>
			<path id="XMLID_836_" style="fill:#27DEBF;" d="M374.78,70.16c0,0-0.27,4.84,3.32,7.53l3.77-1.14c0,0-2.52-1.21-3.77-6.38H374.78     z"/>
			<path id="XMLID_833_" style="fill:#27DEBF;" d="M472.68,104.1c0,0,2.2,4.32,0,8.23l-3.91,0.48c0,0,1.81-2.12,0.87-7.36     L472.68,104.1z"/>
			<path id="XMLID_740_" style="fill:#27DEBF;" d="M408.68,115.01c0,0-3.55-3.29-2.84-7.72l3.5-1.8c0,0-0.97,2.62,1.73,7.21     L408.68,115.01z"/>
			<path id="XMLID_832_" style="fill:#27DEBF;" d="M428.42,192.37c0,0,2.12,4.36-0.16,8.23l-3.91,0.4c0,0,1.85-2.09,1.01-7.34     L428.42,192.37z"/>
			<path id="XMLID_824_" style="fill:#27DEBF;" d="M455.08,234.79c0,0-1.41-4.63,1.45-8.1l3.93,0.22c0,0-2.72,1.91-2.71,7.23     L455.08,234.79z"/>
			<path id="XMLID_823_" style="fill:#27DEBF;" d="M450.46,247.34c0,0-4.16-2.48-4.39-6.96l3.05-2.49c0,0,0.04,3.79,2.87,7.17     L450.46,247.34z"/>
			<path id="XMLID_796_" style="fill:#27DEBF;" d="M198.13,94.8c0,0,2.1,4.37-0.19,8.23l-3.92,0.38c0,0,1.86-2.08,1.04-7.34     L198.13,94.8z"/>
			<path id="XMLID_762_" style="fill:#27DEBF;" d="M45.08,158.37c0,0,3.71-3.11,3.23-7.57l-3.41-1.97c0,0,0.84,2.66-2.09,7.11     L45.08,158.37z"/>
			<path id="XMLID_744_" style="fill:#27DEBF;" d="M48.5,290.98c0,0,1.06,5.97,6.22,8.22l4.26-2.48c0,0-3.41-0.75-6.43-6.7     L48.5,290.98z"/>
			<path id="XMLID_720_" style="fill:#27DEBF;" d="M81.66,185.56c0,0-0.22,4.84,3.4,7.49l3.75-1.18c0,0-3.11-1.18-4.41-6.34     L81.66,185.56z"/>
		</g>
		<g style="opacity:0.25;">
			<path id="XMLID_808_" style="fill:#CDE9FF;" d="M374.78,70.16c0,0-0.27,4.84,3.32,7.53l3.77-1.14c0,0-2.52-1.21-3.77-6.38H374.78     z"/>
			<path id="XMLID_806_" style="fill:#CDE9FF;" d="M472.68,104.1c0,0,2.2,4.32,0,8.23l-3.91,0.48c0,0,1.81-2.12,0.87-7.36     L472.68,104.1z"/>
			<path id="XMLID_804_" style="fill:#CDE9FF;" d="M408.68,115.01c0,0-3.55-3.29-2.84-7.72l3.5-1.8c0,0-0.97,2.62,1.73,7.21     L408.68,115.01z"/>
			<path id="XMLID_803_" style="fill:#CDE9FF;" d="M428.42,192.37c0,0,2.12,4.36-0.16,8.23l-3.91,0.4c0,0,1.85-2.09,1.01-7.34     L428.42,192.37z"/>
			<path id="XMLID_800_" style="fill:#CDE9FF;" d="M455.08,234.79c0,0-1.41-4.63,1.45-8.1l3.93,0.22c0,0-2.72,1.91-2.71,7.23     L455.08,234.79z"/>
			<path id="XMLID_799_" style="fill:#CDE9FF;" d="M450.46,247.34c0,0-4.16-2.48-4.39-6.96l3.05-2.49c0,0,0.04,3.79,2.87,7.17     L450.46,247.34z"/>
			<path id="XMLID_798_" style="fill:#CDE9FF;" d="M198.13,94.8c0,0,2.1,4.37-0.19,8.23l-3.92,0.38c0,0,1.86-2.08,1.04-7.34     L198.13,94.8z"/>
			<path id="XMLID_797_" style="fill:#CDE9FF;" d="M45.08,158.37c0,0,3.71-3.11,3.23-7.57l-3.41-1.97c0,0,0.84,2.66-2.09,7.11     L45.08,158.37z"/>
			<path id="XMLID_767_" style="fill:#CDE9FF;" d="M48.5,290.98c0,0,1.06,5.97,6.22,8.22l4.26-2.48c0,0-3.41-0.75-6.43-6.7     L48.5,290.98z"/>
			<path id="XMLID_763_" style="fill:#CDE9FF;" d="M81.66,185.56c0,0-0.22,4.84,3.4,7.49l3.75-1.18c0,0-3.11-1.18-4.41-6.34     L81.66,185.56z"/>
		</g>
	</g>
	<g>
		<path style="fill:#D7AEB2;" d="M316.73,250.48L316.73,250.48L316.73,250.48c0.09,0.11,2.73,3.04,4.35,3.42    c1.76,0.42,3.89-1.91,3.97-2.05c0,0,4.46-3.35-0.12-11.18c-0.56-0.96-1.75-1.34-2.77-0.9c-0.72,0.31-1.39,0.6-1.46,0.64v0l0,0    c-0.49,0.27-0.92,0.68-1.2,1.21l-3.03,5.6C315.89,248.28,316.03,249.56,316.73,250.48z"/>
		<polygon style="fill:#D0D4E9;" points="313.25,253.19 316.3,249.62 322.21,253.57 319.53,257.79   "/>
		<path style="fill:#D7AEB2;" d="M216.42,282.23L216.42,282.23L216.42,282.23c-0.07-0.11-0.15-0.22-0.24-0.32    c-1.01-1.57-7.25-1.98-7.25-1.98c-0.1,0.11-3.58,5.44-3.58,5.44c-0.69,1.12,0.49,3.29,1.64,4.95c0.94,1.35,2.66,1.92,4.21,1.39    l0.19-0.07c0.17-0.04,0.34-0.1,0.5-0.17l0,0l0,0c0.49-0.22,0.92-0.57,1.23-1.05l3.29-5.07    C217.06,284.38,217.02,283.15,216.42,282.23z"/>
		
			<linearGradient id="SVGID_1_" gradientUnits="userSpaceOnUse" x1="-2631.957" y1="253.5781" x2="-2631.957" y2="234.006" gradientTransform="matrix(-1 0 0 1 -2366.4785 0)">
			<stop offset="0.512" style="stop-color:#D7AEB2"/>
			<stop offset="1" style="stop-color:#B7898F"/>
		</linearGradient>
		<path style="fill:url(#SVGID_1_);" d="M270.5,237.75c0,0,1.14,9.39,1.27,10.71c0,0-3.38,5.17-5.21,5.12    c-2.73-0.07-7.38-8.08-7.38-8.08s2.46-4.63,1.96-11.5L270.5,237.75z"/>
		<path style="fill:#D7AEB2;" d="M275.69,239.51c0,0-16.16,0.74-16.47-9.33c-0.31-10.07-2.6-16.76,7.71-17.65    c10.3-0.9,12.43,2.88,13.35,6.22C281.2,222.08,279.89,239.06,275.69,239.51z"/>
		<path style="fill:#0A4971;" d="M259.23,230.18c0,0,1.21-13.44,15.6-12.96c14.4,0.48,8.17-13.13-4.2-15.14c0,0,1.29,4.8-6.49,5.56    C247.81,209.22,257.78,228.04,259.23,230.18z"/>
		<path style="fill:#DEE2F1;" d="M319.53,257.79c0,0-1.9,3-6.31,8.15c-1.4,1.64-2.99,3.2-4.72,4.44c-0.72,0.52-1.68,1.3-2.56,1.47    c-10.25,2.06-24.59-9.1-24.59-9.1s-0.01,0.02-0.04,0.06c-0.54,0.9-5.38,17.6-16.11,42.9c0,0-2.18,2.25-15.81-1.12    c-3.55-0.88-6.77-2.35-9.42-3.86c-4.61-2.63-7.5-5.39-7.5-5.39s10.05-17.44,10.45-37.1v-0.02c0,0-12.58,3.62-17.59,3.49    c0,0-2.83,11.68-8.02,15.83c-1.52,1.22-7.04-2.38-7.04-2.38l4.57-18.77c0.3-1.12,1.06-2.06,2.1-2.58    c5.63-2.8,24.33-11.84,33.08-13c0,0,2.21-1.04,10.12-0.07c1.27,0.15-0.29,4.77,5.32,5.68c6.66,1.08,4.52-4.03,5.94-3.73    c2.21,0.46,3.92,0.92,6.09,1.55c2.11,0.62,4.12,1.54,5.96,2.75c5.36,3.52,16.79,11.21,19.11,14.07c0,0,5.58-5.18,10.69-7.87    L319.53,257.79z"/>
		<path style="fill:#0D4870;" d="M265.21,246.24h4.34c0,0,0.52,0.17,0.35,0.84c-0.18,0.66-1.78,2.34-2.33,2.38    C267.03,249.5,263.91,247.36,265.21,246.24z"/>
		<path style="fill:#D0D4E9;" d="M270.93,241.31c0,0-0.94,3.48-3.3,4.83l2.52,4.69c0,0,4.42-3.76,4.86-7.06    C275,243.77,271.94,241.6,270.93,241.31z"/>
		<path style="fill:#DEE2F1;" d="M270.93,241.31c0,0-0.72,3.31-3.08,4.66l2.45,4.29c0,0,4.03-3.35,4.92-6.66    C275.22,243.6,271.94,241.6,270.93,241.31z"/>
		<path style="fill:#D0D4E9;" d="M260.57,239.62c0,0,4.14,5.44,7.28,6.34l-2.74,5.34c0,0-8.98-7.47-8.45-10.85    C256.66,240.45,259.52,239.48,260.57,239.62z"/>
		<path style="fill:#DEE2F1;" d="M260.95,239.5c0,0,3.76,5.57,6.9,6.47l-2.61,4.73c0,0-8.73-6.99-8.19-10.37    C257.04,240.33,259.91,239.35,260.95,239.5z"/>
		<polygon style="fill:#D0D4E9;" points="217.3,277.54 215.53,281.89 208.68,280.01 210.27,275.16   "/>
		<path style="fill:#D0D4E9;" d="M247.2,293.81c-2.55,3.16-4.91,5.58-7.23,6.93c-4.61-2.63-7.5-5.39-7.5-5.39    s10.05-17.44,10.45-37.1c1.59-0.83,3.21-1.26,4.23-0.42C249.77,259.98,251.4,288.6,247.2,293.81z"/>
		<path style="fill:#0B528C;" d="M266.76,249.26c0,0-1.22,5.47-6.15,12.35c-7.3,10.18-16.53,18.25-28.98,18.61    c0,0-3.31,0.12-7.14,2.92c0,0,3.06,4.42,5.57,4.72c20.15,2.45,38-18.64,38.34-38.8C268.42,248.38,267.17,248.52,266.76,249.26z"/>
		<path style="fill:#D0D4E9;" d="M313.22,265.94c-1.4,1.64-2.99,3.2-4.72,4.44c-0.72,0.52-1.68,1.3-2.56,1.47    c-10.25,2.06-24.59-9.1-24.59-9.1s-0.01,0.02-0.04,0.06c-0.32-1.35,1.57-2.79,2.61-2.8c4.81-0.01,17.59,9.83,19.78,9.45    C305.43,269.17,311.19,266.3,313.22,265.94z"/>
	</g>
</g>
</svg>