<svg xmlns="http://www.w3.org/2000/svg" xmlns:xlink="http://www.w3.org/1999/xlink" version="1.1" id="_x31_" x="0px" y="0px" viewBox="0 0 1000 1000" style="enable-background:new 0 0 1000 1000;" xml:space="preserve">
<style type="text/css">
	.st0{fill:#FFCF8F;}
	.st1{fill:#FFCF8A;}
	.st2{fill:#FEBE54;}
	.st3{fill:#C19E61;}
	.st4{opacity:0.4;fill:#FEBE54;}
	.st5{opacity:0.5;fill:#EFD6A8;}
	.st6{opacity:0.7;}
	.st7{fill:#2B94F4;}
	.st8{opacity:0.7;fill:#2B94F4;}
	.st9{opacity:0.5;fill:#2995F4;}
	.st10{opacity:0.5;fill:#2A94F4;}
	.st11{opacity:0.4;fill:#CCE9FF;}
	.st12{opacity:0.6;fill:#CCE9FF;}
	.st13{fill:#2995F4;}
	.st14{fill:#FFFFFF;}
	.st15{fill:#0E538D;}
	.st16{fill:#1E0F00;}
	.st17{fill:#FDCB93;}
	.st18{fill:#0F538C;}
	.st19{fill:#FAB46D;}
	.st20{fill:#727696;}
	.st21{fill:#E2A750;}
</style>
<g>
	<path class="st0" d="M100.6,527.7l73.1,48.2l33.1,4.7l65.8,33.1l13.6,12.9l27.9,13.9l57.8,61.2l56.3,32.2l55.9,55.8l22.3-42.9   l17.9-22.8l12.7-41.8l54.2-76.5l-0.5-14.9l23.5-27.5l41.9-51.1l90.7-70.7l-23.4-30.7l-42.6-16l-50.3-42.9l-70.3-39.1l-53.8-47.2   c-20.1-6.7-60.9-43.5-60.9-43.5l-11.6-2.3l-55.8-45.4l-38.8-15.7l-40.4,113.5l-2.2,21.5l-25.1,39L243.5,349l-69,86.8l-45.1,68.4   L100.6,527.7z"/>
	<path class="st1" d="M126.1,523.9l67.4,44.4l30.5,4.3l60.6,30.5l12.5,11.9l25.8,12.8l53.3,56.4l51.9,29.7l51.5,51.5l20.6-39.6   l16.5-21l11.7-38.5l50-70.5l-0.5-13.7l21.7-25.4l38.6-47.1l83.6-65.1l-21.6-28.3L661,401.3l-46.4-39.5l-64.8-36l-49.6-43.5   c-18.5-6.2-56.1-40.1-56.1-40.1l-10.7-2.1l-51.5-41.8l-35.8-14.4l-37.2,104.7l-2,19.8l-23.1,36l-25.9,15l-63.6,80l-41.6,63   L126.1,523.9z"/>
	<path class="st2" d="M498.5,569.8c0.3-16.4-10.1-33.4-11.9-50.1c-1.8-16.8,1.5-31,2.3-47.5c0.3-6.9,2.1-22.3-2.8-27.2   c-10.8,14.6-17.4,31-24.8,47.5c-4.3,9.6-18.4,30.6-10.9,41.3c-2,7.9-2,17.7-1.8,24.5c0.2,5.8,0.3,15.2,4.5,20.1   c2.6,3.1,7.4,2.6,9.8,4.9c5.1,4.8-0.7,6.8,1.2,14.7c2.6,10.5,9.9,6.8,16.3,1.1C488.5,592,498.3,580.8,498.5,569.8z"/>
	<path class="st2" d="M381.7,651.5c-15.9-21.5-18.3-37.8-11.2-63.8c2.7-10,15-31.9,9.5-42.6c-10.7-20.7-24.9,16.4-30.2,21.6   c-11.3,10.9-28.8,4.3-43,11.7c-4.4,2.3-5.1,4.3-11.1,5.8c-6.3,1.6-12.3,4.4-18.7,5.8c-5,1.1-11.6,0.1-17.6,0.4l25.3,12.7l12.5,11.9   l25.8,12.8l53.3,56.4l23.5,13.4C397.8,681.2,390.2,663,381.7,651.5z"/>
	<path class="st2" d="M251.8,409.5c3.9,4.1,12.4,5.9,15,11.2c4.3,8.6-4.3,38,14.3,32.3c8-2.5,20.5-14.2,24.2-22   c9.9-20.6-13.7-38.8-13.9-59.1c-0.1-12.9,7.3-22.3,5.4-35.8c-0.4-3-1-6.2-1.8-9.4l-11.2,17.5l-25.9,15l-17,21.3   c2.3,2.2,3.9,5.1,4.6,8.9C246.8,397.7,245.5,403,251.8,409.5z"/>
	<path class="st2" d="M327.7,253.4c21.2-3.1,37.8-0.2,54.7-15.5c7.5-6.7,14.7-14.2,21.1-22.2l-21.5-17.5l-35.8-14.4L320.8,255   C323.3,254.3,325.7,253.7,327.7,253.4z"/>
	<path class="st2" d="M503.4,333.3c4.4,5,18.7,11.1,19.5,17.5c0.9,6.8-9.9,14.5-8.8,22.6c0.7,5.5,12.5,23.3,17.2,26.4   c11.7,7.8,31.6-17.6,33.2,1.7c13.6-9.5,40.4,2.8,52.5,10.5c17.8,11.3,31,28.8,48.3,41.1c5.1,3.6,16.1,6.4,20.1,10.2   c2.2,2.2,2.7,4.8,2.6,7.7l34.1-26.5l-21.6-28.3L661,401.3l-46.4-39.5l-64.8-36l-49.6-43.5c-0.3-0.1-0.5-0.2-0.8-0.3   C495.7,300.4,489.3,317.2,503.4,333.3z"/>
	<g>
		<path class="st3" d="M499.6,727.1l0.6-1.2l0,0l-31-29.5l5.1-18.5l11.2-10.7l12.2-27.6l9.8-13.3l32.9,23.1l0.8-1.1l-32.9-23.1    l37.6-51.1l0.1-0.1l1.8-5.1l30.7,24.8l-0.1-1.7l-29.9-24.2l-0.3-0.2l10-28.4l17.3-24.8l1.3,0.8l38.6,22.1l0.8-1l-38.7-22.2    l-1.2-0.8l29.8-42.7l17-12.5l0.6,0.4l33.1,36.5l1-0.8l-33.2-36.6l-0.1-0.1l-0.4-0.2l54.6-40.2l7.5-6.4l-1.4-0.5l-6.9,5.9    L623,456.7l-54.1-35.7l-2.7-2.3l32.5-34.9l15.4-22.2l-1.2-0.6l-15.2,22l-32.5,34.9L503,365.5l38.3-47.2l-1-0.9L502,364.7l-0.2-0.2    l-78.7-49.1l33.7-62.2c-0.4-0.3-0.7-0.6-1-0.9L422,314.6l-51.3-40.1l-0.7-0.5l19.6-39.5l5.9-25.1l-1.1-0.9l-6,25.5L369,273.2    l-43-33.1l-0.5,1.3l42.8,33l-15.5,31.2l-9.8,25.1l-2.7,4.4l-33.6-27.3l0,0.4l-0.5,0.8l33.4,27.2l-18.9,31l-23.1,20.6l-38.5-29.5    l-1.2,0.7l38.7,29.7l-1.8,1.6l-46.7,55.4l-1.8-1.2l-34.1-28.3l-0.8,1l34.1,28.3l1.7,1.1L235,461.5l-31,48.2l-9.6,7.3l-38.6-19.7    l-0.7,1.1l38.2,19.5l-35.4,27l1.2,0.8l35.6-27.1l26.1,13.3l30.7,0.8l23.9,14l-2,6.7L242.5,582l1.3,0.6l30.5-28.4l0.1-0.1l2-6.8    l28.9,17l18.1,22.5l0.1,0.2l28.7,6.7l-2.4,4.1l-27.6,29.7l0.5,0.3l0.5,0.5l27.6-29.8l2.6-4.6l4.2,1l34.6,60.7l12.2,4.9l-11,33.6    l1.2,0.7l11-33.8l42.3,17.1l19.5,18.5l-12.2,44.5l1.1,1.1l12.2-44.6L499.6,727.1z M544.7,573.5l-37.5,51L453,585.5l-1.1-0.8    l39.3-49.9l0.3-0.7l55.1,34.2L544.7,573.5z M385.1,536.5l-76.3-49.9l45.1-54l0.5,0.4l69.4,53.7l-38.2,48.6L385.1,536.5z     M490.8,532.1l-1.2-0.8l-62.1-43.5l-1.7-1.3l12.3-15.6l4.6-35.1l9.8-11.4l64.2,52.7l0.5,0.3l-12.5,16.3l-0.1,0.1L490.8,532.1z     M441.3,435.3l-4.6,35.1l-12,15.3L355.2,432l-0.5-0.4l3.2-3.9l25.5-18.8l12.6-25.7l55.2,40.4L441.3,435.3z M424.9,487.6l1.7,1.3    l62.2,43.6l1.5,0.9l-0.3,0.8L450.9,584l-64.7-46.7l0.6-1.1L424.9,487.6z M547,567l-55.1-34.2l13.8-38.4l12.5-16.3l56.2,35.7    l-17.3,24.8l-0.1,0.1L547,567z M565.3,419.6l2.8,2.4l53.8,35.5l-16.7,12.3l-30,43L519,477.1l33.3-43.4L565.3,419.6z M501.4,367.5    l0.8-1l62.1,52.3l-13.1,14.1l-33.4,43.6l-0.5-0.3l-64.1-52.7L501.4,367.5z M501,365.6l0.1,0.1l-0.8,1l-48.2,56L396.7,382l1.9-3.8    l9.7-35.5l14.2-26.2L501,365.6z M344.3,331.3l9.8-25.2l15.4-31l0.5,0.4l51.4,40.2l-14.3,26.5l-9.7,35.5l-1.7,3.5l-0.4-0.3    l-53.8-45L344.3,331.3z M321.8,368.2L321.8,368.2l19-31.1l53.7,44.9l0.6,0.4l-12.6,25.6l-25.3,18.7l-3.4,4l-55-42.1L321.8,368.2z     M295.8,391.3l1.9-1.7l55.1,42.3l-45.2,54l-58.4-39.4L295.8,391.3z M251.9,531.5l-0.1-0.1l-30.6-0.7l-25.4-13l9.1-7l0.1-0.1    l31-48.4l12.4-14.8l58.4,39.4l-3.4,4.1l-23.9,41.4l-3.9,13L251.9,531.5z M324.3,585.8l-18.1-22.5l-29.4-17.2l3.9-13.1l23.8-41.1    l3.5-4.1l76.5,50L353,592.6L324.3,585.8z M393.4,654.7l-34.5-60.6l-0.1-0.2l-4.4-1l31.2-54.5l64.5,46.6l-15.9,20.3L416.7,624    l-11.6,35.5L393.4,654.7z M449.1,677.2L449.1,677.2L406.3,660l11.5-35.3l17.2-18.5l16-20.4l1.1,0.8l54.2,38.9l-9.9,13.4    l-12.2,27.4l-11.3,10.8l-5,18.2L449.1,677.2z"/>
	</g>
	<g>
		<polygon class="st4" points="524.9,461.3 464.7,484.4 570.7,569.6 590.8,592.3 590.8,590.8 614.3,563.2 656.2,512.1 658.8,510     614.3,490.8   "/>
		<polygon class="st4" points="418.1,364.8 320.9,321.5 297,289.8 296.6,293.7 271.5,332.8 269.7,333.9 338.7,373.8   "/>
		<polygon class="st4" points="502.1,383.3 568.2,348.3 579.4,323.4 560.2,312.7 529.4,285.7 535.9,334.9   "/>
		<path class="st4" d="M220.7,531.9l30.5-4.8l31.7,0.2l-33-26.5l-25.3-22.4l-47.8-45.6l-2.4,3l-39.5,59.9    c21,6.2,62.9,20.9,62.9,20.9L220.7,531.9z"/>
		<polygon class="st4" points="402.3,613.1 394.5,657.7 369.3,699 371.9,701.7 422.9,730.8 429.1,663.1   "/>
		<polygon class="st4" points="455.2,621.2 518.2,655.3 540,677.9 568.2,638.3 525,618.4   "/>
	</g>
	<polygon class="st5" points="425.2,283.4 444.1,242.2 445.5,222.1 433.9,219.8 432.6,238.2  "/>
	<polygon class="st4" points="354.3,432.1 378.9,487.7 366.8,521 414.1,478 399.1,447.2 384.6,453.4  "/>
	<g>
		<g class="st6">
			<g>
				<path class="st7" d="M232.6,462.2c-0.4-3.8-0.6-7.5-0.5-11.2l12.1,0.3c-0.1,3.1,0.1,6.3,0.4,9.6L232.6,462.2z"/>
			</g>
			<g>
				<path class="st7" d="M271.3,529.3c-3.5-2.3-6.8-5-9.9-8l8.4-8.8c4.8,4.5,10.1,8.2,15.5,10.9l-5.3,10.9      C277.1,532.9,274.2,531.2,271.3,529.3z M247.3,504c-3.9-6.2-7.2-13-9.7-20l11.4-4c2.2,6.2,5.1,12.1,8.5,17.6L247.3,504z       M302.3,540.4l0.9-12.1c6.1,0.5,12.3-0.2,18.6-2l3.3,11.7C317.5,540.1,309.8,541,302.3,540.4z M438.2,621.7      c-3.4-2.3-6.5-4.9-9.3-7.8l8.7-8.5c4.2,4.3,9.3,7.9,15.3,10.5l-5,11.1C444.4,625.5,441.2,623.7,438.2,621.7z M469.5,633.3      l1.9-12c7.1,1.1,13.2,1,18.1-0.4l3.3,11.7C486.1,634.5,478.5,634.8,469.5,633.3z M416.3,594.7c-2.7-6.5-4.6-13.9-5.6-21.8      l12-1.5c0.8,6.8,2.4,13.1,4.7,18.6L416.3,594.7z M345.7,528.9l-6.3-10.4l0.7-0.4c4.4-2.7,7.9-6,10.7-10.2      c0.4-0.6,0.8-1.3,1.2-1.9l10.5,6.1c-0.5,0.9-1,1.7-1.6,2.5c-3.7,5.5-8.6,10.1-14.4,13.7L345.7,528.9z M410.2,550.9      c0.4-6.8,1.4-14.1,2.8-21.5l11.9,2.3c-1.3,6.9-2.2,13.7-2.6,20L410.2,550.9z M502.4,611.2c2.8-4.3,5-10,6.6-17.4l11.9,2.6      c-1.9,8.9-4.6,15.9-8.3,21.5L502.4,611.2z M357.7,488.5c0.8-5.7,1-12.2,0.6-19.7l12.1-0.6c0.4,8.3,0.2,15.6-0.7,22.1      L357.7,488.5z M511.9,573.8c0.6-6.4,1-12.9,1.4-20.7l12.1,0.7c-0.5,7.9-0.8,14.5-1.4,21.1L511.9,573.8z M418.2,508.4      c2-6.6,4.3-13.5,6.9-20.3l11.3,4.3c-2.5,6.5-4.7,13.1-6.6,19.4L418.2,508.4z M356.2,448.5c-1-7-2.2-14.3-3.3-20.5l12-2.1      c1.1,6.3,2.3,13.7,3.4,20.9L356.2,448.5z M514.6,532.1c0.6-8.1,1.4-15,2.3-21.3l12,1.8c-0.9,6-1.6,12.6-2.2,20.4L514.6,532.1z       M433.3,468.5c3-6.4,6.2-12.8,9.6-19.1l10.6,5.8c-3.3,6-6.4,12.2-9.2,18.3L433.3,468.5z M349.4,407.2c-1.3-8.3-2.2-15-2.7-21.2      l12.1-1.1c0.5,5.9,1.4,12.4,2.6,20.4L349.4,407.2z M521.5,489.5c2.3-7.8,5.1-14.5,8.5-20.6l10.5,6c-3,5.3-5.4,11.2-7.4,18      L521.5,489.5z M346.1,364.3c0.5-8.5,1.8-15.7,4.2-22.2l11.4,4.2c-2,5.3-3.1,11.5-3.5,18.7L346.1,364.3z M451.2,431.4      c2-6,3.4-12.5,4.2-19.2l12.1,1.4c-0.9,7.5-2.4,14.8-4.7,21.6L451.2,431.4z M552.3,460.2l-8-9.1c6-5.4,12.8-9.3,20.1-11.7      l3.8,11.5C562.5,452.9,557.1,456,552.3,460.2z M455.9,392.4c-0.4-6.6-1.5-13.2-3-19.6l11.8-2.9c1.7,7.1,2.9,14.4,3.3,21.7      L455.9,392.4z M371.5,331.2l-8.2-8.9c3.1-2.8,6.6-5.3,10.6-7.5c3.1-1.7,6.3-3.1,9.4-4.3l4.2,11.4c-2.6,0.9-5.2,2.1-7.8,3.5      C376.5,327.2,373.8,329.1,371.5,331.2z M586.5,449l0.9-12.1c7,0.5,14.4,2.2,22,4.9l-4.1,11.4C598.8,450.9,592.4,449.4,586.5,449      z M446.4,354.1c-2.9-6.2-6.3-11.8-10.1-16.6l9.5-7.6c4.4,5.6,8.4,12,11.6,19.1L446.4,354.1z M405.4,319.3l1-12.1      c7.8,0.6,15.4,3.1,22.4,7.4l-6.3,10.4C417,321.7,411.3,319.8,405.4,319.3z"/>
			</g>
		</g>
		<polygon class="st8" points="658.9,462.1 653.8,449.4 638.4,457.8 639.4,438.6 626.7,443.7 633.5,458.9 617.7,458.7 622.6,473.2     635,463.4 633.8,481.7 648.3,476.8 638.2,462.1   "/>
		<path class="st8" d="M225.9,423c-4.3,6.4-2.7,15.2,3.8,19.5c6.4,4.3,15.2,2.6,19.5-3.8c4.3-6.5,2.6-15.2-3.8-19.5    C239,414.9,230.3,416.6,225.9,423z"/>
	</g>
	<path class="st9" d="M287.8,593.7l1.6-6.8c2.3-0.1,4.5-1.9,5.4-4.6l2.4-7c0.2,0,0.5,0.1,0.7,0.1c0.6,0.1,1.2,0.2,1.7,0.3   c0.8,0.1,1.7,0.3,2.5,0.4c0.6,0.1,1.2,0.1,1.9,0.2c0.8,0.1,1.6,0.2,2.4,0.2c0.6,0,1.3,0.1,1.9,0.1c0.8,0,1.5,0.1,2.3,0.1   c0.7,0,1.3,0,2,0c0.8,0,1.5,0,2.2,0c0.7,0,1.3,0,2-0.1c0.7,0,1.5-0.1,2.2-0.1c0.7,0,1.4-0.1,2-0.2c0.7-0.1,1.4-0.2,2.1-0.2   c0.7-0.1,1.4-0.2,2.1-0.3c0.7-0.1,1.3-0.2,2-0.3c0.7-0.1,1.4-0.2,2.1-0.4c0.6-0.1,1.3-0.3,1.9-0.4c0.7-0.2,1.4-0.3,2.2-0.5   c0.6-0.1,1.2-0.3,1.8-0.5c0.8-0.2,1.5-0.4,2.2-0.6c0.5-0.2,1-0.3,1.5-0.5c0.8-0.3,1.6-0.5,2.4-0.8c0.3-0.1,0.6-0.2,0.9-0.3   c3.5-1.2,6.8-2.7,10.1-4.4c0,0,0.1,0,0.1,0c1-0.5,2-1,2.9-1.6c0.2-0.1,0.5-0.2,0.7-0.4c0.9-0.5,1.8-1.1,2.7-1.6   c0.3-0.2,0.6-0.3,0.8-0.5c0.9-0.5,1.7-1.1,2.6-1.7c0.3-0.2,0.6-0.4,0.9-0.6c0.8-0.6,1.7-1.2,2.5-1.8c0.3-0.2,0.6-0.4,0.8-0.6   c0.8-0.6,1.6-1.3,2.4-1.9c0.3-0.2,0.5-0.4,0.8-0.6c0.8-0.7,1.6-1.4,2.4-2.1c0.2-0.2,0.5-0.4,0.7-0.6c0.8-0.7,1.6-1.5,2.3-2.2   c0.2-0.2,0.4-0.4,0.6-0.6c0.8-0.8,1.6-1.6,2.3-2.4c0.1-0.2,0.3-0.3,0.4-0.5c0.7-0.8,1.4-1.5,2.1-2.3c0.2-0.3,0.4-0.5,0.7-0.8   c0.9-1,1.7-2.1,2.6-3.2c0.3-0.4,0.6-0.7,0.8-1.1c0.8-1.1,1.5-2.1,2.3-3.2c0.2-0.4,0.5-0.7,0.7-1.1c1.9-2.9,3.6-5.9,5.2-9.1   c0.2-0.4,0.4-0.8,0.6-1.3c0.6-1.2,1.1-2.3,1.6-3.5c0.2-0.5,0.5-1.1,0.7-1.6c0.1-0.1,0.1-0.3,0.2-0.4c0,0,0,0,0,0   c0.4-1,0.8-2,1.2-3.1c0.2-0.5,0.4-1,0.5-1.5c0.6-1.7,1.1-3.4,1.6-5.1c13.5-48.3-13.6-98.1-60.7-111.3c-1.3-0.4-2.6-0.7-4-1   c-0.4-0.1-0.7-0.2-1.1-0.2c-1-0.2-2.1-0.4-3.1-0.6c-0.3-0.1-0.6-0.1-1-0.2c-1.3-0.2-2.6-0.4-3.9-0.6c-0.3,0-0.5-0.1-0.8-0.1   c-1.1-0.1-2.1-0.2-3.2-0.3c-0.4,0-0.8-0.1-1.2-0.1c-1.1-0.1-2.2-0.1-3.2-0.1c-0.2,0-0.5,0-0.7,0c-1.3,0-2.6,0-3.8,0   c-0.4,0-0.8,0-1.2,0c-0.9,0-1.9,0.1-2.8,0.2c-0.4,0-0.8,0.1-1.2,0.1c-1.2,0.1-2.5,0.2-3.7,0.4c-0.3,0-0.5,0.1-0.8,0.1   c-1,0.1-2,0.3-3,0.5c-0.5,0.1-0.9,0.2-1.4,0.3c-0.8,0.2-1.6,0.3-2.5,0.5c-0.4,0.1-0.9,0.2-1.3,0.3c-1.1,0.3-2.3,0.6-3.4,0.9   c-0.5,0.1-1,0.3-1.5,0.4c-0.7,0.2-1.4,0.4-2.1,0.7c-0.5,0.2-1.1,0.4-1.6,0.6c-0.7,0.2-1.4,0.5-2.1,0.8c-0.8,0.3-1.6,0.6-2.3,0.9   c-0.7,0.3-1.4,0.6-2.2,0.9c-0.6,0.3-1.2,0.5-1.8,0.8c-0.5,0.2-1,0.5-1.6,0.8c-0.6,0.3-1.2,0.6-1.8,0.9c-0.5,0.3-1,0.5-1.5,0.8   c-1.1,0.6-2.2,1.2-3.2,1.9c-0.4,0.2-0.8,0.5-1.2,0.7c-0.6,0.4-1.3,0.8-1.9,1.2c-0.4,0.2-0.7,0.5-1.1,0.7c-2.2,1.5-4.3,3-6.3,4.7   c-0.3,0.2-0.6,0.5-0.9,0.7c-0.6,0.5-1.3,1.1-1.9,1.6c-0.2,0.2-0.4,0.4-0.6,0.6c-1.3,1.1-2.5,2.3-3.7,3.5c-0.1,0.1-0.3,0.3-0.4,0.4   c-0.6,0.6-1.2,1.3-1.8,1.9c-0.2,0.3-0.5,0.5-0.7,0.8c-0.1,0.1-0.2,0.2-0.3,0.3c0,0,0,0,0,0c-3.4,3.8-6.4,7.9-9.2,12.2   c-0.1,0.1-0.1,0.2-0.1,0.2c-0.8,1.3-1.6,2.6-2.3,3.9c-0.2,0.3-0.4,0.7-0.5,1c-0.6,1.1-1.2,2.2-1.7,3.3c-0.2,0.5-0.4,0.9-0.7,1.4   c-0.5,1.1-1,2.1-1.4,3.2c-0.2,0.5-0.4,1-0.6,1.5c-0.4,1.1-0.9,2.2-1.3,3.4c-0.2,0.5-0.4,0.9-0.5,1.4c-0.5,1.6-1.1,3.2-1.5,4.9   c-0.8,3-1.5,6-2.1,9l0,0l0,0c-0.1,0.5-0.1,0.9-0.2,1.4c-0.2,1-0.3,2-0.5,3c-0.1,0.6-0.1,1.3-0.2,1.9c-0.1,0.8-0.2,1.7-0.3,2.5   c-0.1,0.7-0.1,1.3-0.1,2c0,0.8-0.1,1.6-0.1,2.4c0,0.7,0,1.4,0,2c0,0.8,0,1.5,0,2.3c0,0.7,0,1.4,0.1,2.1c0,0.8,0.1,1.5,0.1,2.3   c0,0.7,0.1,1.4,0.2,2.1c0.1,0.7,0.1,1.5,0.2,2.2c0.1,0.7,0.2,1.4,0.2,2c0.1,0.7,0.2,1.5,0.3,2.2c0.1,0.7,0.2,1.3,0.3,2   c0.1,0.7,0.3,1.4,0.4,2.2c0.1,0.7,0.3,1.3,0.4,2c0.2,0.7,0.3,1.4,0.5,2.1c0.2,0.7,0.3,1.3,0.5,2c0.2,0.7,0.4,1.4,0.6,2.1   c0.2,0.6,0.4,1.3,0.6,1.9c0.2,0.7,0.5,1.4,0.7,2.1c0.2,0.6,0.4,1.2,0.7,1.8c0.3,0.7,0.6,1.4,0.8,2.1c0.2,0.6,0.5,1.2,0.7,1.8   c0.3,0.7,0.7,1.4,1,2.2c0.3,0.5,0.5,1.1,0.8,1.6c0.4,0.8,0.8,1.5,1.2,2.3c0.2,0.5,0.5,0.9,0.7,1.4c0.6,1.2,1.3,2.3,2,3.5   c0.2,0.3,0.3,0.5,0.5,0.8c0.6,0.9,1.2,1.9,1.8,2.8c0.3,0.4,0.6,0.9,0.9,1.3c0.5,0.7,1,1.4,1.5,2.1c0.4,0.5,0.7,0.9,1.1,1.4   c0.5,0.6,1,1.3,1.5,1.9c0.4,0.5,0.8,0.9,1.2,1.4c0.5,0.6,1,1.2,1.5,1.8c0.4,0.5,0.9,0.9,1.3,1.4c0.5,0.6,1,1.1,1.6,1.7   c0.4,0.5,0.9,0.9,1.4,1.3c0.5,0.5,1.1,1.1,1.7,1.6c0.5,0.4,1,0.9,1.4,1.3c0.6,0.5,1.1,1,1.7,1.5c0.5,0.4,1,0.8,1.5,1.2   c0.6,0.5,1.2,0.9,1.8,1.4c0.5,0.4,1,0.8,1.6,1.1c0.6,0.4,1.3,0.9,1.9,1.3c0.5,0.4,1.1,0.7,1.6,1.1c0.7,0.4,1.3,0.8,2,1.2   c0.5,0.3,1.1,0.7,1.6,1c0.7,0.4,1.4,0.8,2.1,1.2c0.6,0.3,1.1,0.6,1.7,0.9c0.7,0.4,1.5,0.7,2.2,1.1c0.6,0.3,1.1,0.5,1.7,0.8   c0.8,0.4,1.6,0.7,2.4,1c0.5,0.2,1.1,0.5,1.6,0.7c0.3,0.1,0.5,0.2,0.8,0.3l-2,8.8c-0.6,2.5,0.5,4.8,2.5,5.4l-6.6,20.1l0,0l-3.1,9.6   l8.4,8L287.8,593.7C287.8,593.7,287.8,593.7,287.8,593.7z"/>
	<g>
		<path class="st10" d="M281.7,537.8c-39.4-11.1-62.1-52.7-50.8-93.1c11.3-40.4,52.4-64.2,91.8-53.1c39.4,11.1,62.1,52.7,50.8,93.1    C362.1,525.1,321.1,548.9,281.7,537.8z"/>
		<path class="st11" d="M374.8,479c-11.5,38.2-50.7,60.6-88.4,50c-38.1-10.7-60-51-49.1-90.1c4.1-14.6,12.2-26.9,22.7-36.1    c-13.6,9.8-24.2,24.2-29.2,41.8c-11.3,40.4,11.4,82.1,50.8,93.1c39.4,11,80.5-12.7,91.8-53.1C374,482.8,374.4,480.9,374.8,479z"/>
		<path class="st12" d="M317.3,399.5c39.4,11,62.1,52.7,50.8,93.1c-2,7-4.8,13.4-8.4,19.3c6.2-7.8,10.9-16.9,13.8-27.2    c11.3-40.4-11.4-82.1-50.8-93.1c-32.6-9.1-66.3,5.6-83.4,33.8C257.5,402.4,287.9,391.2,317.3,399.5z"/>
		<polygon class="st13" points="280.6,553.1 274.6,551.4 257.2,604.6 267.8,607.6   "/>
		<polygon class="st13" points="271.1,611.3 251.6,605.9 202.3,759.6 233.2,768.2   "/>
		<path class="st13" d="M235.4,764.8c0.4-1.4-0.4-2.9-1.8-3.3l-28-7.9c-1.6-0.4-3.2,0.5-3.7,2.1l-2.2,7.9c-1.4,5,32.1,14.4,33.5,9.4    L235.4,764.8z"/>
		<path class="st13" d="M273.1,608.9c0.7-3.1-1.2-6.1-4.1-7l-10.8-3c-2.9-0.8-5.9,0.8-6.9,3.7l-3.7,10.6c-0.3,0.8-0.2,1.7,0.2,2.5    c0.4,0.8,1.1,1.3,1.9,1.6l18.1,5.1c0.6,0.2,1.3,0.1,1.9-0.3c0.6-0.3,1-0.9,1.1-1.6L273.1,608.9z"/>
		<path class="st13" d="M326.7,377.4c-47-13.2-96.2,15.2-109.7,63.5c-13.5,48.3,13.6,98.1,60.6,111.3c47,13.2,96.2-15.2,109.7-63.5    C400.9,440.4,373.8,390.6,326.7,377.4z M282,536.8c-38.8-10.9-61.2-52-50-91.8c11.2-39.8,51.7-63.2,90.5-52.3    c38.8,10.9,61.2,52,50,91.8C361.3,524.2,320.8,547.7,282,536.8z"/>
		<path class="st14" d="M364.9,477.1c1.3-11.8-2.9-21.9-9.4-22.6c-6.5-0.7-12.8,8.3-14.1,20.1c-1.3,11.8,2.9,21.9,9.4,22.6    C357.3,497.9,363.6,488.9,364.9,477.1z"/>
		<path class="st14" d="M349.1,434.7c-2-5.2-5.9-8.6-8.8-7.4c-2.9,1.1-3.6,6.3-1.7,11.5c2,5.2,5.9,8.6,8.8,7.4    C350.3,445.1,351,440,349.1,434.7z"/>
		<path class="st13" d="M280.9,562c0.5-1.8-1.4-3.8-4.3-4.6c-2.8-0.8-5.6,0-6,1.7c-0.5,1.8,1.4,3.8,4.3,4.6    C277.7,564.5,280.4,563.8,280.9,562z"/>
		<path class="st15" d="M323.1,390.1c-40.2-11.3-82.1,13-93.7,54.2c-11.6,41.2,11.6,83.8,51.8,95c40.2,11.3,82.1-13,93.7-54.2    C386.5,443.9,363.3,401.4,323.1,390.1z M282.3,535.6c-38.2-10.7-60.2-51.1-49.2-90.3c11-39.1,50.8-62.2,89-51.5    c38.2,10.7,60.2,51.1,49.2,90.3C360.3,523.3,320.5,546.3,282.3,535.6z"/>
	</g>
	<g>
		<path class="st16" d="M625.2,129.8c0,0-29.6-15.3-52.1,27.2c-22.5,42.5,3.4,106.4,3.4,106.4s15.7,16.4,59.7,9.9    c39.6-5.8,61.1-28.6,61.1-28.6s-16.8-34.8-17.1-65.5C679.9,140.3,648.2,121,625.2,129.8z"/>
		<path class="st16" d="M612.6,322.2c0,0-26.4-11-38.7-62.6s63.7-58.6,63.7-58.6l44.5,32.5c0,0,12.6-4.7,21.2,26.1    c8.5,30.8-11.5,50.6-11.5,50.6l-48.7,9.4L612.6,322.2z"/>
		<path class="st13" d="M606.1,847.5c-9.2,0.5-34.5,11.2-33.5,20.4c1,9.2,41.8,3.4,48.6,0.5s4.9-19.4-1.5-21.4    C613.4,845.1,606.1,847.5,606.1,847.5z"/>
		<path class="st17" d="M591.1,777.6c0,0,10.7,68,12.1,72.8c1.5,4.9,13.6,6.3,17,1.5c3.4-4.9,2.9-73.3,1.9-76.2    C621.2,772.8,593.5,770.8,591.1,777.6z"/>
		<path class="st13" d="M713.5,844.5c9.2-1,35.8,5.4,36.4,14.7s-40.7,10.1-47.8,8.3c-7.2-1.8-7.9-18.4-2-21.3    C705.9,843.2,713.5,844.5,713.5,844.5z"/>
		<path class="st17" d="M717,773c0,0,0.5,68.8-0.2,73.8c-0.7,5-12.4,8.4-16.5,4.2c-4.1-4.2-14.7-71.9-14.3-74.9    C686.5,773.1,713.5,766.7,717,773z"/>
		<path class="st18" d="M567.3,482.4c0,0,0.5,140.8,2.4,180.6c1.9,39.8,16.5,114.1,18.4,118.5c1.9,4.4,37.4,1.9,37.4,1.9    s9.7-97.1,12.6-116s-1-107.3,3.4-107.8c4.4-0.5,10.7,78.7,14.1,102c3.4,23.3,22.8,109.2,25.7,114.6s33,1.9,36.9,0.5    c3.9-1.5,5.8-136.4,2.9-185.5c-2.9-49-13.6-113.1-16.5-117.5S567.3,482.4,567.3,482.4z"/>
		<path class="st19" d="M609.7,238.7c0,0,2.3,15.1-5.9,25.7c-8.3,10.7,5.9,22.8,5.9,22.8h40.7l8.5-10.8l-3.6-16.9    c0,0-12.3-12.4-12.7-31.7C642.1,208.6,609.7,238.7,609.7,238.7z"/>
		<path class="st13" d="M535.7,401.3c21.9-3.9,46.2-44.2,46.2-44.2L562,312l-24.8,44.7l-3.9,25.7L535.7,401.3z"/>
		<path class="st13" d="M603.7,264.4c0,0,7.3,10.2,22.3,12.6c15.1,2.4,29.1-17.5,29.1-17.5s33,7.8,51,23.8    c18,16,39.9,103.9,40.8,109.2c1,5.3-45.2-12.1-45.2-12.1s0,78.7,10.2,100c0,0-34,20.4-80.1,20.9s-69.7-17.8-69.7-17.8    s12.3-102.6,8-122.5c-4.4-19.9-24.7-24.8-24.7-24.8s18.5-40.8,30.1-54.9S603.7,264.4,603.7,264.4z"/>
		<path class="st17" d="M616.3,159.4c-51.8,3.7-41.2,91.8,6.3,88.5C670,244.5,671,155.5,616.3,159.4z"/>
		<path class="st17" d="M662.5,355.2c0,0-16.5-11.7-27.2-16c-10.7-4.4-18.4-1.9-18.4-9.7c0,0-9.2-3.9-5.8-9.2c0,0-3.9-7.3,2.9-10.7    c0,0,3.4-6.3,11.2-7.3c7.8-1,11.3,2.8,21.8,7.3c16,6.8,19.4,23.3,28.2,30.1L662.5,355.2z"/>
		<path class="st17" d="M545.8,367.3c0,0,6.7-14.8,12.2-22c5.6-7.2,11.8-8.3,8.8-14.1c0,0,4.8-6.3,0.4-9c0,0-0.2-6.8-6.2-6.8    c0,0-4.8-3.4-10.5-1.2s-6.6,6.3-12,13.5c-8.2,11-4.1,24.5-7.4,32.8L545.8,367.3z"/>
		<path class="st13" d="M676.1,330.4c0,0-14.4,12.5-18.4,24.8c-3.4,10.2,4.9,7.3,8.7,9.2c3.9,1.9,26.7,37.9,47.6,46.1    c20.9,8.3,36.9-4.9,32-22.8C741.1,369.8,696,338.2,676.1,330.4z"/>
		<path class="st13" d="M529.7,343.2c0,0,21.1,8.3,23.7,11.6c2.6,3.3-1.3,4.9-2.6,7.9c-1.3,3.1,10.2,34.6-15.2,38.6    C510.2,405.4,514.9,369.3,529.7,343.2z"/>
		<path class="st16" d="M619.1,172.2c0,0-29.7,26.9-48.7,28.9c0,0-13.8-43.5,31.7-56.8c45.5-13.3,63.4,27.6,62.9,42.5    C665.1,186.8,630.9,184.4,619.1,172.2z"/>
		<path class="st20" d="M699.6,396.7c-7.1-7.4-14.4-14.9-21.7-22.1c-3.1-3-6.5-5.6-10-8.2c-4.1-3.1-8.4-2.2-9.3-8.8    c-0.1-0.6-0.9-0.8-1-0.1c-2.6,9.4,5.8,10,11.8,15c9.7,8,16.8,21.1,28.1,26.9C699.2,400.2,700.9,398.1,699.6,396.7z"/>
		<path class="st20" d="M721.4,365.3c-8.7-5-16.2-12.1-24.2-18.2c0-0.2,0-0.5-0.1-0.8c-4.1-8.8-7.4-17.9-11.3-26.8    c-0.2-0.5-1.1-0.1-0.9,0.4c2.8,7.6,4,16.7,7.9,24.1c-5.5-3.7-11.5-6.6-18.4-8c-1-0.2-1.3,1.1-0.4,1.5c10,4,20.4,9.6,28.4,16.8    c5.7,5.1,10.8,10.6,18,13.3C721.7,368.1,722.6,366,721.4,365.3z"/>
		<path class="st20" d="M552.6,360.9c-2.5,8.6-5.9,17.9-6.8,26.8c-0.1,1.3,2,1.9,2.5,0.7c3.5-8.3,4.3-18.2,6.4-26.9    C555.1,360.1,553,359.5,552.6,360.9z"/>
		<polygon class="st21" points="386.6,275 480.4,271.9 618.8,290.6 773.3,272.6 840.2,243 880.2,246.9 808.7,328.9 773.3,417.9     744.1,416.3 621.9,454.6 534.7,430.9 488.8,431.1 441.9,347.6   "/>
		<polygon class="st2" points="771.3,359.1 725.4,362.2 681.3,396.5 622.9,445.5 564.4,415.3 517.3,372.6 420.5,319.6 456.6,373.7     488.8,431.1 534.7,430.9 621.9,454.6 744.1,416.3 773.3,417.9 807.2,329.3   "/>
		<g>
			<polygon class="st2" points="483.4,276 621.9,294.8 785.6,285.9 843.3,247.1 899.4,271.9 880.2,246.9 842.5,241 772.9,269.9      618.8,290.6 478.4,269.5 386.6,275 389.7,279.1    "/>
		</g>
		<polygon class="st2" points="386.6,275 374.6,314.4 481.9,273.8   "/>
		<g>
			<g>
				<path class="st19" d="M810,330.4c0.1,1.1,3-6.4,4.5-8.2c1.5-1.7,7.9-8.7,11.2-4.5c3.3,4.3-6.5,9.6-7.8,15.5      c-1.4,5.9-7,4.7-7,4.3S810,330.4,810,330.4z"/>
				<g>
					<path class="st17" d="M808.4,357.1c-3.6,1.3-16.2,2.6-21.6-1.9c-5.4-4.5,2.9-9.4,2.9-9.4s-0.6-5.4,1-8.4       c1.6-3.1,4.5-3.9,4.5-3.9s-0.2-5.8,2.9-8.2c3.1-2.5,9.1,0,9.1,0s10.8,2.5,12.8,6S814.3,354.9,808.4,357.1z"/>
				</g>
			</g>
		</g>
		<g>
			<g>
				<path class="st19" d="M447.1,361.3c-0.1,1.1-3-6.4-4.5-8.2c-1.5-1.7-7.9-8.7-11.2-4.5c-3.3,4.3,6.5,9.6,7.8,15.5      c1.4,5.9,7,4.7,7,4.3S447.1,361.3,447.1,361.3z"/>
				<g>
					<path class="st17" d="M448.7,387.9c3.6,1.3,16.2,2.6,21.6-1.9c5.4-4.5-2.9-9.4-2.9-9.4s0.6-5.4-1-8.4s-4.5-3.9-4.5-3.9       s0.2-5.8-2.9-8.2c-3.1-2.5-9.1,0-9.1,0s-10.8,2.5-12.8,6S442.7,385.7,448.7,387.9z"/>
				</g>
			</g>
		</g>
	</g>
</g>
</svg>