<svg xmlns="http://www.w3.org/2000/svg" xmlns:xlink="http://www.w3.org/1999/xlink" version="1.1" x="0px" y="0px" viewBox="0 0 1920 1080" style="enable-background:new 0 0 1920 1080;" xml:space="preserve">
<style type="text/css">
	.st0{opacity:0.1;fill:#2A94F4;}
	.st1{fill:#CCE9FF;}
	.st2{fill:#0B4870;}
	.st3{fill:#FFBE55;}
	.st4{fill:#FCD2B1;}
	.st5{fill:#FFE3CA;}
	.st6{fill:#0E538C;}
	.st7{fill:#3E3F3F;}
	.st8{fill:#494949;}
	.st9{fill:#2A2B2B;}
	.st10{opacity:0.09;}
</style>
<g id="Background">
	<ellipse class="st0" cx="958.72" cy="912.27" rx="957.72" ry="97.2"/>
	<path class="st0" d="M1683.55,865.25H660.94L785.82,187.3c12.47-67.71,71.51-116.87,140.37-116.87h0   c80.21,0,149.66,55.72,167.05,134.02l7.18,32.32c5.7,25.67,28.47,43.94,54.77,43.94h0c27.29,0,50.63-19.64,55.28-46.54v0   c16.37-94.63,98.48-163.75,194.51-163.75h0c153.85,0,278.58,124.72,278.58,278.58V865.25z"/>
</g>
<g id="Objects">
	<path class="st1" d="M1789.61,914.03H554.87c-38.72,0-60.13-59.15-35.76-98.78l51.29-83.41c8.74-14.21,21.88-22.46,35.76-22.46   h1117.73c11.91,0,23.35,6.08,31.93,16.96l65.72,83.41C1851.36,847.6,1831.02,914.03,1789.61,914.03z"/>
	<path class="st2" d="M878.9,292.07c0,0-49.65,9.41-68.7,54.89s2.94,64.34-13.04,78.47s-43.64,58.39-12.91,101.41   c30.73,43.02-3.09,51.25-13.87,89.73c-3.96,14.14-22.56,66.38,51.89,77.44s278.01,40.02,252.06-130.29   c-8.88-58.26-55.62-55.01-50.7-88.19s3.07-98.95-11.06-129.06C998.44,316.34,936.67,277.32,878.9,292.07z"/>
	<path class="st3" d="M1031.93,587.99c0,0,30.56-16.11,40.7-34.24c0,0,19.22,39.78,45.95,54.53   c26.73,14.75,75.76,31.78,104.48,14.44c0,0,69.76-20.08,83.58,44.97s-25.81,119.74-25.81,119.74h-271.03   C1009.81,787.42,1046.68,626.71,1031.93,587.99z"/>
	<path class="st3" d="M779.66,612.47c3.36-29.43,29.06-50.98,58.67-49.94c6.86,0.24,14.31-0.07,22.14-1.28   c35.95-5.53,82.99,212.95,82.99,212.95s-62.28-17.12-62.75-16.33c-16.62,27.66-97.23-11.33-97.23-11.33   S772.72,673.29,779.66,612.47z"/>
	<path class="st3" d="M936.06,587.99c3.5,2.19,50.69,18.6,95.88,0c15.67-6.45,40.56,225.31-64.53,224.2l-59-270.3   C908.4,541.9,921.31,578.77,936.06,587.99z"/>
	<path class="st4" d="M853.09,384.25c-14.75,4.3-27.66,12.91-27.04,36.26c0.61,23.35-3.77,53.53-3.77,53.53l21.6,53.4l17.82,11.68   l-7.99,74.36c0,0,26.43,38.72,67.6,14.75c0,0-13.52-86.04-9.22-90.34c4.3-4.3,35.96-26.7,45.48-37.49   c9.52-10.79,19.67-23.97,13.52-61.46c-6.15-37.49-44.53-47.07-51.63-70.68C912.7,345.77,904.63,369.22,853.09,384.25z"/>
	<path class="st5" d="M1570.67,409.01l18.08-28.44c0,0,0.61-30.11,5.53-36.88s21.51-7.99,33.19,6.76   c11.68,14.75,31.96,7.03,69.45,23.49l1.77,0.97c6.27,3.41,5.61,12.61-1.08,15.1l0,0c-15.25,5.66-31.83,6.31-47.58,2.27   c-9.27-2.37-19.14-3.69-24.41-0.65l-22.74,35.03L1570.67,409.01z"/>
	<path class="st5" d="M1501.85,424.39l-6.13-36.03c0,0-21.4-24.69-22.35-33.7s11.51-22.07,31.63-18.68   c20.12,3.38,30.83-17.58,72.97-31.58l2.13-0.51c7.52-1.81,13.68,6.07,10.1,12.94l0,0c-8.16,15.64-21.03,28.21-36.65,36.42   c-9.18,4.83-18.09,10.94-20.12,17.22l7.16,44.73L1501.85,424.39z"/>
	<path class="st2" d="M1479.96,637.81c0,0-7.38-61.81,94.65-240.04l32.54,22.32l-54.49,289.29l-209.98-115.44L1479.96,637.81z"/>
	<path class="st6" d="M1280.84,787.42h281.48H1594c51.01,0,85.61-51.89,66-98.98l-121.04-290.67h-44.25   c0,0,44.05,214.37,72.52,285.17c0,0-119.23-35.65-152.42-57.77c-33.19-22.13-79.9-40.56-122.92-32.57   c-43.02,7.99-68.83,30.11-68.83,30.11s33.7,13.31,46.71,45.48C1293.13,725.96,1280.84,787.42,1280.84,787.42z"/>
	<path class="st5" d="M891.81,538.21c0,0-2.77,144.14,0,171.17c2.77,27.03,32.27,98.94,65.45,102.63s50.7-47.94,30.42-83.89   c-20.28-35.95-68.22-146.58-67.3-178.84c0,0,43.33-28.58,46.09-54.39s6.15-27.04-2.15-27.04s-18.03,23.8-23.58,27.49   c-5.55,3.69-14.83,18.91-30.5,19.83C894.57,516.08,891.81,538.21,891.81,538.21z"/>
	<path class="st5" d="M886.32,538.21c0,0,2.77,144.14,0,171.17c-2.77,27.03-32.27,98.94-65.45,102.63   c-33.19,3.69-50.7-47.94-30.42-83.89c20.28-35.95,68.22-146.58,67.3-178.84c0,0-43.33-28.58-46.09-54.39s-6.15-27.04,2.15-27.04   s18.03,23.8,23.58,27.49c5.55,3.69,14.83,18.91,30.5,19.83C883.55,516.08,886.32,538.21,886.32,538.21z"/>
	<path class="st1" d="M1789.61,914.03H554.87c-38.72,0-60.13-56.13-35.76-93.74l1302.42-5.22   C1851.36,850.99,1831.02,914.03,1789.61,914.03z"/>
	<g>
		<g>
			<rect x="121.03" y="154.11" class="st7" width="548.63" height="343.42"/>
			<rect x="215.94" y="242.06" class="st8" width="358.79" height="167.52"/>
			<rect x="339.54" y="495.93" class="st9" width="111.6" height="65.09"/>
			<rect x="184.31" y="540.57" class="st9" width="422.07" height="20.45"/>
		</g>
		<g>
			<g>
				<polygon class="st3" points="91.6,914.03 57.43,914.03 103.62,612.34 137.8,612.34     "/>
				<polygon class="st3" points="699.08,914.03 733.25,914.03 687.05,612.34 652.88,612.34     "/>
				<rect x="57.43" y="561.15" class="st3" width="675.82" height="55.35"/>
				<rect x="97.61" y="728.51" class="st3" width="595.45" height="36.05"/>
				<rect x="57.43" y="561.15" class="st10" width="675.82" height="55.35"/>
			</g>
		</g>
	</g>
</g>
</svg>