<svg fill="#000000" xmlns="http://www.w3.org/2000/svg"  viewBox="0 0 24 24" width="96px" height="96px"><path d="M 16.984375 0.98632812 A 1.0001 1.0001 0 0 0 16 2 L 16 3.1230469 C 15.238847 3.3010568 14.592763 3.6769133 14.109375 4.1777344 L 13.169922 3.6347656 A 1.0001 1.0001 0 0 0 12.595703 3.4941406 A 1.0001 1.0001 0 0 0 12.169922 5.3652344 L 13.148438 5.9296875 C 13.058779 6.2815613 13 6.6401219 13 7 C 13 7.3598781 13.058779 7.7184387 13.148438 8.0703125 L 12.169922 8.6347656 A 1.0001 1.0001 0 1 0 13.169922 10.365234 L 14.109375 9.8222656 C 14.592763 10.323087 15.238847 10.698943 16 10.876953 L 16 12 A 1.0001 1.0001 0 1 0 18 12 L 18 10.876953 C 18.761153 10.698943 19.407237 10.323087 19.890625 9.8222656 L 20.830078 10.365234 A 1.0001 1.0001 0 1 0 21.830078 8.6347656 L 20.851562 8.0703125 C 20.941221 7.7184387 21 7.3598781 21 7 C 21 6.6401219 20.941221 6.2815613 20.851562 5.9296875 L 21.830078 5.3652344 A 1.0001 1.0001 0 0 0 21.375 3.4941406 A 1.0001 1.0001 0 0 0 20.830078 3.6347656 L 19.890625 4.1777344 C 19.407237 3.6769133 18.761153 3.3010568 18 3.1230469 L 18 2 A 1.0001 1.0001 0 0 0 16.984375 0.98632812 z M 16.902344 5.0078125 A 1.0001 1.0001 0 0 0 17.101562 5.0078125 C 17.784418 5.0308603 18.201113 5.263117 18.501953 5.6015625 C 18.532495 5.6359227 18.556001 5.6776743 18.583984 5.7148438 A 1.0001 1.0001 0 0 0 18.869141 6.2363281 A 1.0001 1.0001 0 0 0 18.869141 6.2382812 C 18.95366 6.4768975 19 6.7367576 19 7 C 19 7.2888633 18.940948 7.5710174 18.839844 7.828125 A 1.0001 1.0001 0 0 0 18.621094 8.2304688 C 18.581714 8.287018 18.546923 8.3478458 18.501953 8.3984375 C 18.200202 8.7379074 17.782297 8.9703776 17.095703 8.9921875 A 1.0001 1.0001 0 0 0 16.984375 8.9863281 A 1.0001 1.0001 0 0 0 16.898438 8.9921875 C 16.215582 8.9691397 15.798887 8.736883 15.498047 8.3984375 C 15.451291 8.3458375 15.413753 8.2836315 15.373047 8.2246094 A 1.0001 1.0001 0 0 0 15.164062 7.8378906 C 15.060447 7.5782094 15 7.2925688 15 7 C 15 6.7367576 15.04634 6.4768975 15.130859 6.2382812 A 1.0001 1.0001 0 0 0 15.130859 6.2363281 A 1.0001 1.0001 0 0 0 15.416016 5.7148438 C 15.443999 5.6776743 15.467505 5.6359227 15.498047 5.6015625 C 15.799494 5.2624341 16.216997 5.0300361 16.902344 5.0078125 z M 7.984375 8.9863281 A 1.0001 1.0001 0 0 0 7 10 L 7 11.09375 C 5.8639179 11.298221 4.9151951 11.83979 4.2519531 12.585938 C 4.2330732 12.607177 4.2215633 12.632784 4.203125 12.654297 L 3.3046875 12.134766 A 1.0001 1.0001 0 0 0 2.7304688 11.994141 A 1.0001 1.0001 0 0 0 2.3046875 13.865234 L 3.25 14.412109 C 3.0913676 14.928761 3 15.463787 3 16 C 3 16.536213 3.0913676 17.071239 3.25 17.587891 L 2.3046875 18.134766 A 1.0001 1.0001 0 1 0 3.3046875 19.865234 L 4.203125 19.345703 C 4.2215633 19.367216 4.2330732 19.392823 4.2519531 19.414062 C 4.9151951 20.16021 5.8639179 20.701779 7 20.90625 L 7 22 A 1.0001 1.0001 0 1 0 9 22 L 9 20.90625 C 10.136082 20.701779 11.084805 20.16021 11.748047 19.414062 C 11.766927 19.392823 11.778437 19.367216 11.796875 19.345703 L 12.695312 19.865234 A 1.0001 1.0001 0 1 0 13.695312 18.134766 L 12.75 17.587891 C 12.908632 17.071239 13 16.536213 13 16 C 13 15.463787 12.908632 14.928761 12.75 14.412109 L 13.695312 13.865234 A 1.0001 1.0001 0 0 0 13.240234 11.994141 A 1.0001 1.0001 0 0 0 12.695312 12.134766 L 11.796875 12.654297 C 11.778437 12.632784 11.766927 12.607177 11.748047 12.585938 C 11.084805 11.83979 10.136082 11.298221 9 11.09375 L 9 10 A 1.0001 1.0001 0 0 0 7.984375 8.9863281 z M 7.9042969 13.007812 A 1.0001 1.0001 0 0 0 8.0976562 13.009766 C 9.1200164 13.033196 9.7845173 13.388197 10.251953 13.914062 C 10.325032 13.996277 10.382391 14.092015 10.445312 14.183594 A 1.0001 1.0001 0 0 0 10.753906 14.753906 C 10.909898 15.142709 11 15.567192 11 16 C 11 16.455832 10.899125 16.901726 10.726562 17.306641 A 1.0001 1.0001 0 0 0 10.478516 17.769531 C 10.406799 17.8787 10.337687 17.989487 10.251953 18.085938 C 9.7838563 18.612547 9.1185934 18.969687 8.09375 18.992188 A 1.0001 1.0001 0 0 0 7.984375 18.986328 A 1.0001 1.0001 0 0 0 7.9023438 18.990234 C 6.8799836 18.966804 6.2154828 18.611803 5.7480469 18.085938 C 5.661112 17.988136 5.5900963 17.876487 5.5175781 17.765625 A 1.0001 1.0001 0 0 0 5.2773438 17.314453 C 5.1025454 16.907472 5 16.458857 5 16 C 5 15.568705 5.0892102 15.145534 5.2441406 14.757812 A 1.0001 1.0001 0 0 0 5.5546875 14.181641 C 5.6173575 14.090541 5.6753172 13.995884 5.7480469 13.914062 C 6.2158275 13.387809 6.8806423 13.030758 7.9042969 13.007812 z M 8 15 A 1 1 0 0 0 8 17 A 1 1 0 0 0 8 15 z"/></svg>