<?xml version="1.0"?><svg fill="#000000" xmlns="http://www.w3.org/2000/svg"  viewBox="0 0 24 24" width="96px" height="96px">    <path d="M19,3H5C3.897,3,3,3.897,3,5v14c0,1.103,0.897,2,2,2h14c1.103,0,2-0.897,2-2V5C21,3.897,20.103,3,19,3z M6.277,7.578 c0.278-0.367,0.699-0.596,1.158-0.577C8.121,7.029,8.5,7.522,8.5,7.522s0.379-0.493,1.064-0.521c0.46-0.019,0.881,0.21,1.158,0.577 c0.966,1.276-0.863,2.769-1.293,3.17c-0.257,0.24-0.575,0.525-0.764,0.693c-0.095,0.085-0.236,0.085-0.331,0 c-0.19-0.169-0.507-0.454-0.764-0.693C7.14,10.347,5.311,8.854,6.277,7.578z M17,17H7c-0.552,0-1-0.448-1-1v0c0-0.552,0.448-1,1-1 h10c0.552,0,1,0.448,1,1v0C18,16.552,17.552,17,17,17z M17,13h-4c-0.552,0-1-0.448-1-1v0c0-0.552,0.448-1,1-1h4c0.552,0,1,0.448,1,1 v0C18,12.552,17.552,13,17,13z M17,9h-2c-0.552,0-1-0.448-1-1v0c0-0.552,0.448-1,1-1h2c0.552,0,1,0.448,1,1v0 C18,8.552,17.552,9,17,9z"/></svg>