<?xml version="1.0"?><svg fill="#000000" xmlns="http://www.w3.org/2000/svg"  viewBox="0 0 24 24" width="192px" height="192px">    <path d="M13.172,2H6C4.9,2,4,2.9,4,4v16c0,1.1,0.9,2,2,2h12c1.1,0,2-0.9,2-2V8.828c0-0.53-0.211-1.039-0.586-1.414l-4.828-4.828 C14.211,2.211,13.702,2,13.172,2z M15,18H9c-0.552,0-1-0.448-1-1v0c0-0.552,0.448-1,1-1h6c0.552,0,1,0.448,1,1v0 C16,17.552,15.552,18,15,18z M15,14H9c-0.552,0-1-0.448-1-1v0c0-0.552,0.448-1,1-1h6c0.552,0,1,0.448,1,1v0 C16,13.552,15.552,14,15,14z M13,9V3.5L18.5,9H13z"/></svg>