<?xml version="1.0" encoding="utf-8"?>
<svg viewBox="86.5 52.5 345.5 370" xmlns="http://www.w3.org/2000/svg" xmlns:bx="https://boxy-svg.com">
  <defs>
    <filter id="black-and-white-filter-0" color-interpolation-filters="sRGB" x="-500%" y="-500%" width="1000%" height="1000%" bx:preset="black-and-white 1 -0.67">
      <feColorMatrix type="saturate" values="0"/>
      <feComponentTransfer>
        <feFuncR type="discrete" tableValues="0 0 0 0 0 0 0 0 0 0 0 0 0 0 0 0 0 0 0 0 0 0 0 0 0 0 0 0 0 0 0 0 0 0 0 0 0 0 0 0 0 0 0 0 0 0 0 0 0 0 0 0 0 0 0 0 0 0 0 0 0 0 0 0 0 0 0 0 0 0 0 0 0 0 0 0 0 0 0 0 0 0 0 0 0 0 0 0 0 0 0 0 0 0 0 0 0 0 0 0 0 0 0 0 0 0 0 0 0 0 0 0 0 0 0 0 0 0 0 0 0 0 0 0 0 0 0 0 0 0 0 0 0 0 0 0 0 0 0 0 0 0 0 0 0 0 0 0 0 0 0 0 0 0 0 0 0 0 0 0 0 0 0 0 0 0 0 0 0 0 0 0 0 0 0 0 0 0 0 0 0 0 0 0 0 0 0 0 0 0 0 0 0 0 0 0 0 0 0 0 0 0 0 0 0 0 0 0 1 1 1 1 1 1 1 1 1 1 1 1 1 1 1 1 1 1 1 1 1 1 1 1 1 1 1 1 1 1 1 1 1 1 1 1 1 1 1 1 1 1 1 1 1 1 "/>
        <feFuncG type="discrete" tableValues="0 0 0 0 0 0 0 0 0 0 0 0 0 0 0 0 0 0 0 0 0 0 0 0 0 0 0 0 0 0 0 0 0 0 0 0 0 0 0 0 0 0 0 0 0 0 0 0 0 0 0 0 0 0 0 0 0 0 0 0 0 0 0 0 0 0 0 0 0 0 0 0 0 0 0 0 0 0 0 0 0 0 0 0 0 0 0 0 0 0 0 0 0 0 0 0 0 0 0 0 0 0 0 0 0 0 0 0 0 0 0 0 0 0 0 0 0 0 0 0 0 0 0 0 0 0 0 0 0 0 0 0 0 0 0 0 0 0 0 0 0 0 0 0 0 0 0 0 0 0 0 0 0 0 0 0 0 0 0 0 0 0 0 0 0 0 0 0 0 0 0 0 0 0 0 0 0 0 0 0 0 0 0 0 0 0 0 0 0 0 0 0 0 0 0 0 0 0 0 0 0 0 0 0 0 0 0 0 1 1 1 1 1 1 1 1 1 1 1 1 1 1 1 1 1 1 1 1 1 1 1 1 1 1 1 1 1 1 1 1 1 1 1 1 1 1 1 1 1 1 1 1 1 1 "/>
        <feFuncB type="discrete" tableValues="0 0 0 0 0 0 0 0 0 0 0 0 0 0 0 0 0 0 0 0 0 0 0 0 0 0 0 0 0 0 0 0 0 0 0 0 0 0 0 0 0 0 0 0 0 0 0 0 0 0 0 0 0 0 0 0 0 0 0 0 0 0 0 0 0 0 0 0 0 0 0 0 0 0 0 0 0 0 0 0 0 0 0 0 0 0 0 0 0 0 0 0 0 0 0 0 0 0 0 0 0 0 0 0 0 0 0 0 0 0 0 0 0 0 0 0 0 0 0 0 0 0 0 0 0 0 0 0 0 0 0 0 0 0 0 0 0 0 0 0 0 0 0 0 0 0 0 0 0 0 0 0 0 0 0 0 0 0 0 0 0 0 0 0 0 0 0 0 0 0 0 0 0 0 0 0 0 0 0 0 0 0 0 0 0 0 0 0 0 0 0 0 0 0 0 0 0 0 0 0 0 0 0 0 0 0 0 0 1 1 1 1 1 1 1 1 1 1 1 1 1 1 1 1 1 1 1 1 1 1 1 1 1 1 1 1 1 1 1 1 1 1 1 1 1 1 1 1 1 1 1 1 1 1 "/>
      </feComponentTransfer>
    </filter>
    <style type="text/css">
	.st0{fill:#F2F2F2;}
	.st1{fill:#FFBD55;}
	.st2{fill:#DEDEDE;}
	.st3{fill:#F2AB44;}
	.st4{fill:#D3D3D3;}
	.st5{fill:#FFC878;}
	.st6{fill:#FFFFFF;}
	.st7{fill:#D4D4D4;}
</style>
  </defs>
  <g id="OBJECTS" style="filter: url(#black-and-white-filter-0);">
    <polygon class="st1" points="401.9,359 222.8,422.5 222.8,258 401.9,194.5  "/>
    <polygon class="st0" points="328.9,384.8 295.8,396.6 295.8,232.1 328.9,220.4  "/>
    <polygon class="st2" points="401.9,194.5 401.9,217.7 222.7,281.3 222.7,258  "/>
    <polygon class="st1" points="432,183.8 222.8,258 222.8,180.2 432,106  "/>
    <polygon class="st0" points="346.7,214.1 308,227.8 308,149.9 346.7,136.2  "/>
    <polygon class="st3" points="106.2,359 222.8,422.5 222.8,258 106.2,194.5  "/>
    <polygon class="st4" points="153.7,384.8 175.2,396.6 175.2,232.1 153.7,220.4  "/>
    <polygon class="st2" points="222.7,258 222.7,281.7 106.2,218.2 106.2,194.5  "/>
    <polygon class="st3" points="86.5,183.8 222.8,258 222.8,180.2 86.5,106  "/>
    <polygon class="st4" points="142.1,214.1 167.2,227.8 167.2,149.9 142.1,136.2  "/>
    <polygon class="st5" points="432,106 346.7,136.2 308,149.9 222.8,180.2 167.3,149.9 142,136.2 86.5,106 175.9,78.6 175.9,78.6    210.5,68 261.3,52.5 314.7,69.2 350.5,80.4  "/>
    <polygon class="st6" points="346.7,136.2 308,149.9 249.9,118.6 223.8,104.5 175.9,78.6 210.5,68 257.3,91.5 257.3,91.5 285,105.3     "/>
    <polygon class="st6" points="350.5,80.4 285,105.3 249.9,118.6 167.3,149.9 142,136.2 223.8,104.5 257.3,91.5 314.7,69.2  "/>
  </g>
</svg>