<svg fill="#000000" xmlns="http://www.w3.org/2000/svg"  viewBox="0 0 24 24" width="96px" height="96px"><path d="M 3.5 2 C 3.372 2 3.2444844 2.0494844 3.1464844 2.1464844 C 2.9514844 2.3414844 2.9514844 2.6585156 3.1464844 2.8535156 L 5.09375 4.8007812 C 3.1950225 6.6199194 2 9.1685121 2 12 C 2 17.511334 6.4886661 22 12 22 C 17.511334 22 22 17.511334 22 12 C 22 6.864114 18.106486 2.6175896 13.109375 2.0644531 A 1.0001 1.0001 0 0 0 13.009766 2.0585938 A 1.0001 1.0001 0 0 0 12.890625 4.0527344 C 16.891514 4.4955979 20 7.871886 20 12 C 20 16.430666 16.430666 20 12 20 C 7.5693339 20 4 16.430666 4 12 C 4 9.7105359 4.967513 7.6643975 6.5039062 6.2109375 L 8.1464844 7.8535156 C 8.3414844 8.0485156 8.6585156 8.0485156 8.8535156 7.8535156 C 8.9515156 7.7565156 9 7.628 9 7.5 L 9 3 A 1 1 0 0 0 8 2 L 3.5 2 z"/></svg>