<?xml version="1.0"?><svg fill="#000000" xmlns="http://www.w3.org/2000/svg"  viewBox="0 0 24 24" width="96px" height="96px">    <path d="M20.869,7.795C20.869,7.795,20.5,6,20,6c-0.375,0-1.871,1.684-2.599,2.528C17.141,8.83,16.766,9,16.368,9 C15.612,9,15,8.388,15,7.632c0-0.398,0.17-0.773,0.472-1.033C16.316,5.871,18,4.375,18,4c0-0.5-1.799-0.878-1.799-0.878 C15.809,3.041,15.404,3,15,3c-3.309,0-6,2.717-6,6.056c0,0.42,0.051,0.845,0.153,1.285l-6.214,6.103 c-1.252,1.269-1.252,3.332,0.001,4.601C3.55,21.66,4.363,22,5.231,22c0.867,0,1.681-0.34,2.28-0.946l6.229-6.12 C14.169,15,14.587,15,15,15c3.364,0,6-2.611,6-5.944C21,8.634,20.956,8.209,20.869,7.795z"/></svg>