<svg xmlns="http://www.w3.org/2000/svg" xmlns:xlink="http://www.w3.org/1999/xlink" version="1.1" x="0px" y="0px" viewBox="0 0 800 800" enable-background="new 0 0 800 800" xml:space="preserve">
<g id="BACKGROUND">
</g>
<g id="OBJECTS">
	<g>
		<g>
			<defs>
				<path id="SVGID_1_" d="M428.707,111.103c-84.626,10.007-76.422,116.148-103.71,175.902h-0.002      c-16,35.034-43.838,82.269-100.343,103.091c-54.846,20.21-88.465,34.566-110.005,51.091      c-96.817,74.291-9.267,316.289,156.143,218.43c106.378-62.938,109.623-88.418,196.411-44.01      c86.79,44.411,162.536,67.042,205.686-6c43.149-73.042,51.744-172.955-7.955-252.931c-59.697-79.974-95.56-30.979-117.59-95.565      c-12.222-35.828-16.741-70.058-31.261-97.5c-15.487-29.263-49.994-52.891-80.703-52.893      C433.128,110.716,430.905,110.843,428.707,111.103"/>
			</defs>
			<use xlink:href="#SVGID_1_" overflow="visible" fill="#CCE9FF"/>
			<clipPath id="SVGID_2_">
				<use xlink:href="#SVGID_1_" overflow="visible"/>
			</clipPath>
			<polygon clip-path="url(#SVGID_2_)" fill="#CCE9FF" points="-6.721,74.997 17.83,757.477 749.182,793.196 724.631,110.716    "/>
		</g>
		<path fill="#2B94F4" d="M300.483,295.148c-3.588,0-6.497-2.909-6.497-6.497V110.092c0-3.588,2.909-6.497,6.497-6.497h167.906    h55.114c3.588,0,6.497,2.909,6.497,6.497v178.559c0,3.588-2.909,6.497-6.497,6.497H300.483z"/>
		<path fill="#CCE9FF" d="M503.634,278.782H320.352c0-5.523-4.477-10-10-10V129.961c5.523,0,10-4.477,10-10h183.283    c0,5.523,4.477,10,10,10v138.821C508.111,268.782,503.634,273.259,503.634,278.782z"/>
		<path fill="#2B94F3" d="M451.074,207.562l-0.084,62.021l13.64-13.585l13.594,13.63l0.084-62.03L451.074,207.562z"/>
		<polygon fill="#CCE9FF" points="476.709,224.94 476.654,265.825 464.631,253.769 452.575,265.786 452.631,224.907 454.258,224.91     454.208,261.854 464.634,251.463 475.026,261.889 475.075,224.938   "/>
		<path fill="#C68F30" d="M439.497,200.01c-0.031,1.478-0.658,2.881-1.738,3.89c-0.395,0.369-0.783,0.747-1.163,1.133    c-0.218,0.222-0.434,0.446-0.646,0.674c-1.526,1.63-2.004,4.007-1.107,6.052c0.246,0.562,0.511,1.103,0.79,1.623    c0.785,1.459,0.786,3.197,0.127,4.717c-0.088,0.202-0.173,0.406-0.256,0.611c-0.993,2.447-0.128,5.258,2.081,6.706    c0.077,0.05,0.154,0.1,0.231,0.15c1.51,0.966,2.449,2.615,2.533,4.405c0.001,0.024,0.002,0.048,0.003,0.072    c0.129,2.612,2.097,4.766,4.683,5.16c0.104,0.016,0.208,0.031,0.312,0.046c1.765,0.249,3.298,1.355,4.099,2.948    c0.041,0.081,0.082,0.162,0.124,0.244c1.176,2.281,3.765,3.454,6.256,2.834c0.09-0.023,0.181-0.045,0.27-0.069    c1.725-0.448,3.567-0.025,4.918,1.138c0.08,0.069,0.161,0.138,0.242,0.206c2,1.682,4.914,1.744,6.963,0.121    c0.02-0.015,0.039-0.031,0.059-0.047c1.402-1.117,3.261-1.494,4.981-0.993c0.086,0.025,0.173,0.05,0.259,0.074    c2.545,0.712,5.235-0.489,6.421-2.851c0.088-0.175,0.174-0.35,0.257-0.526c0.726-1.524,2.061-2.684,3.707-3.06    c0.549-0.125,1.103-0.274,1.661-0.447c2.134-0.663,3.613-2.592,3.83-4.816c0.094-0.968,0.151-1.936,0.17-2.902    c0.03-1.511,0.673-2.95,1.779-3.98c0.707-0.658,1.391-1.347,2.049-2.063c1.513-1.646,1.963-4.034,1.033-6.066    c-0.243-0.531-0.502-1.043-0.775-1.536c-0.818-1.477-0.844-3.245-0.193-4.803c0.075-0.18,0.149-0.361,0.22-0.543    c0.968-2.459,0.068-5.264-2.161-6.685c-0.076-0.048-0.152-0.096-0.228-0.144c-1.521-0.947-2.48-2.584-2.583-4.373    c-0.002-0.025-0.003-0.05-0.004-0.075c-0.159-2.608-2.148-4.739-4.735-5.106c-0.105-0.015-0.21-0.029-0.315-0.043    c-1.767-0.231-3.311-1.32-4.128-2.905c-0.043-0.082-0.086-0.165-0.129-0.247c-1.2-2.269-3.801-3.415-6.285-2.769    c-0.088,0.023-0.176,0.046-0.264,0.07c-1.721,0.466-3.567,0.062-4.931-1.087c-0.08-0.068-0.161-0.135-0.242-0.202    c-2.018-1.663-4.936-1.693-6.968-0.046c-0.019,0.015-0.037,0.03-0.056,0.046c-1.389,1.133-3.244,1.532-4.971,1.052    c-0.088-0.025-0.177-0.049-0.265-0.072c-2.552-0.68-5.223,0.551-6.384,2.923c-0.097,0.199-0.192,0.398-0.284,0.598    c-0.692,1.505-1.988,2.663-3.599,3.052c-0.574,0.139-1.153,0.303-1.736,0.494c-2.122,0.696-3.573,2.638-3.769,4.862    c-0.027,0.31-0.051,0.621-0.071,0.931C439.531,198.928,439.509,199.469,439.497,200.01z"/>
		<g>
			<g>
				<path fill="#FEBF55" d="M476.706,197.55c0.839-0.162,1.521-0.673,1.926-1.352c-0.629-0.48-1.453-0.7-2.291-0.539      c-0.838,0.162-1.52,0.673-1.926,1.352C475.044,197.491,475.867,197.712,476.706,197.55z"/>
				<path fill="#FEBF55" d="M477.285,194.264c0.162,0.838,0.673,1.52,1.352,1.926c0.48-0.629,0.7-1.453,0.539-2.291      c-0.162-0.839-0.672-1.521-1.352-1.926C477.343,192.602,477.123,193.425,477.285,194.264z"/>
			</g>
			<g>
				<path fill="#FEBF55" d="M450.973,233.207c-0.162-0.838,0.059-1.662,0.539-2.291c0.68,0.406,1.191,1.088,1.352,1.926      c0.162,0.838-0.059,1.662-0.539,2.291C451.646,234.728,451.135,234.046,450.973,233.207z"/>
				<path fill="#FEBF55" d="M453.808,231.447c-0.838,0.162-1.662-0.058-2.291-0.539c0.406-0.68,1.088-1.191,1.926-1.352      c0.839-0.162,1.662,0.058,2.291,0.539C455.329,230.775,454.647,231.285,453.808,231.447z"/>
			</g>
			<g>
				<path fill="#FEBF55" d="M479.3,199.801c0.854-0.014,1.614-0.398,2.132-0.997c-0.536-0.582-1.309-0.942-2.163-0.928      c-0.854,0.014-1.614,0.398-2.132,0.997C477.674,199.455,478.447,199.815,479.3,199.801z"/>
				<path fill="#FEBF55" d="M480.441,196.665c0.014,0.854,0.398,1.614,0.997,2.132c0.582-0.536,0.942-1.309,0.928-2.163      c-0.014-0.854-0.398-1.614-0.997-2.132C480.787,195.039,480.427,195.812,480.441,196.665z"/>
			</g>
			<g>
				<path fill="#FEBF55" d="M447.782,230.472c-0.014-0.854,0.346-1.626,0.928-2.163c0.599,0.517,0.984,1.278,0.997,2.132      c0.014,0.854-0.346,1.626-0.928,2.163C448.181,232.086,447.796,231.325,447.782,230.472z"/>
				<path fill="#FEBF55" d="M450.88,229.23c-0.854,0.014-1.626-0.346-2.163-0.928c0.517-0.599,1.278-0.984,2.132-0.997      c0.854-0.014,1.626,0.346,2.163,0.928C452.494,228.832,451.733,229.217,450.88,229.23z"/>
			</g>
			<g>
				<path fill="#FEBF55" d="M481.464,202.474c0.843,0.135,1.659-0.112,2.272-0.612c-0.427-0.666-1.125-1.155-1.969-1.29      c-0.843-0.135-1.659,0.112-2.272,0.612C479.923,201.85,480.621,202.339,481.464,202.474z"/>
				<path fill="#FEBF55" d="M483.132,199.584c-0.135,0.843,0.112,1.659,0.612,2.272c0.667-0.427,1.155-1.126,1.29-1.969      c0.135-0.843-0.112-1.659-0.612-2.272C483.755,198.042,483.267,198.74,483.132,199.584z"/>
			</g>
			<g>
				<path fill="#FEBF55" d="M445.115,227.219c0.135-0.843,0.623-1.541,1.29-1.969c0.5,0.614,0.747,1.429,0.612,2.272      c-0.135,0.843-0.623,1.541-1.29,1.969C445.227,228.878,444.981,228.062,445.115,227.219z"/>
				<path fill="#FEBF55" d="M448.381,226.534c-0.843-0.135-1.541-0.623-1.968-1.29c0.614-0.5,1.429-0.747,2.272-0.612      c0.843,0.135,1.541,0.623,1.968,1.29C450.04,226.422,449.224,226.669,448.381,226.534z"/>
			</g>
			<g>
				<path fill="#FEBF55" d="M483.131,205.485c0.807,0.279,1.653,0.178,2.344-0.208c-0.305-0.73-0.908-1.333-1.715-1.612      c-0.807-0.279-1.653-0.178-2.344,0.208C481.721,204.604,482.324,205.206,483.131,205.485z"/>
				<path fill="#FEBF55" d="M485.275,202.929c-0.279,0.807-0.178,1.653,0.208,2.344c0.73-0.305,1.333-0.908,1.612-1.715      s0.178-1.653-0.208-2.344C486.157,201.519,485.554,202.122,485.275,202.929z"/>
			</g>
			<g>
				<path fill="#FEBF55" d="M443.054,223.548c0.279-0.807,0.881-1.41,1.612-1.715c0.386,0.691,0.487,1.537,0.208,2.344      c-0.279,0.807-0.881,1.41-1.612,1.715C442.876,225.201,442.775,224.355,443.054,223.548z"/>
				<path fill="#FEBF55" d="M446.389,223.441c-0.807-0.279-1.41-0.882-1.715-1.612c0.691-0.386,1.537-0.487,2.344-0.208      c0.807,0.279,1.41,0.881,1.715,1.612C448.042,223.619,447.196,223.72,446.389,223.441z"/>
			</g>
			<g>
				<path fill="#FEBF55" d="M484.25,208.745c0.746,0.415,1.597,0.462,2.345,0.202c-0.173-0.772-0.663-1.47-1.409-1.885      c-0.746-0.415-1.597-0.462-2.345-0.202C483.015,207.633,483.504,208.33,484.25,208.745z"/>
				<path fill="#FEBF55" d="M486.806,206.6c-0.415,0.746-0.462,1.597-0.202,2.345c0.772-0.173,1.47-0.663,1.885-1.409      c0.415-0.746,0.462-1.597,0.202-2.345C487.919,205.365,487.221,205.854,486.806,206.6z"/>
			</g>
			<g>
				<path fill="#FEBF55" d="M441.66,219.57c0.415-0.746,1.113-1.235,1.885-1.409c0.26,0.748,0.213,1.598-0.202,2.345      c-0.415,0.746-1.113,1.235-1.885,1.409C441.198,221.167,441.245,220.316,441.66,219.57z"/>
				<path fill="#FEBF55" d="M444.963,220.044c-0.746-0.415-1.235-1.113-1.409-1.885c0.748-0.26,1.598-0.213,2.345,0.202      c0.746,0.415,1.235,1.113,1.409,1.885C446.56,220.506,445.709,220.459,444.963,220.044z"/>
			</g>
			<g>
				<path fill="#FEBF55" d="M484.788,212.155c0.663,0.538,1.493,0.733,2.274,0.606c-0.037-0.791-0.397-1.563-1.06-2.101      c-0.663-0.538-1.493-0.732-2.274-0.606C483.765,210.844,484.125,211.617,484.788,212.155z"/>
				<path fill="#FEBF55" d="M487.677,210.486c-0.538,0.663-0.732,1.493-0.606,2.274c0.791-0.037,1.563-0.397,2.101-1.06      c0.538-0.663,0.732-1.493,0.606-2.274C488.988,209.463,488.216,209.823,487.677,210.486z"/>
			</g>
			<g>
				<path fill="#FEBF55" d="M440.977,215.406c0.538-0.663,1.31-1.023,2.101-1.06c0.127,0.781-0.068,1.611-0.606,2.274      c-0.538,0.663-1.31,1.023-2.101,1.06C440.244,216.899,440.438,216.069,440.977,215.406z"/>
				<path fill="#FEBF55" d="M444.147,216.447c-0.663-0.538-1.023-1.311-1.06-2.101c0.781-0.126,1.611,0.068,2.274,0.606      c0.663,0.538,1.023,1.31,1.06,2.101C445.64,217.179,444.81,216.985,444.147,216.447z"/>
			</g>
			<g>
				<path fill="#FEBF55" d="M484.728,215.609c0.559,0.645,1.343,0.981,2.134,0.992c0.101-0.785-0.12-1.608-0.679-2.253      c-0.559-0.645-1.343-0.981-2.134-0.992C483.948,214.141,484.169,214.964,484.728,215.609z"/>
				<path fill="#FEBF55" d="M487.863,214.468c-0.645,0.559-0.981,1.343-0.992,2.134c0.785,0.101,1.608-0.12,2.253-0.679      c0.645-0.559,0.981-1.343,0.992-2.134C489.332,213.688,488.509,213.908,487.863,214.468z"/>
			</g>
			<g>
				<path fill="#FEBF55" d="M441.024,211.183c0.645-0.559,1.468-0.78,2.253-0.679c-0.011,0.791-0.347,1.575-0.992,2.134      c-0.645,0.559-1.468,0.78-2.253,0.679C440.044,212.526,440.379,211.743,441.024,211.183z"/>
				<path fill="#FEBF55" d="M443.966,212.758c-0.559-0.645-0.78-1.468-0.679-2.253c0.792,0.011,1.575,0.347,2.134,0.992      c0.559,0.645,0.78,1.468,0.679,2.253C445.309,213.739,444.525,213.403,443.966,212.758z"/>
			</g>
			<g>
				<path fill="#FEBF55" d="M484.072,219.005c0.439,0.732,1.152,1.199,1.93,1.347c0.236-0.756,0.161-1.605-0.278-2.337      c-0.439-0.732-1.152-1.199-1.93-1.347C483.559,217.423,483.633,218.272,484.072,219.005z"/>
				<path fill="#FEBF55" d="M487.358,218.425c-0.732,0.439-1.199,1.152-1.347,1.93c0.756,0.236,1.605,0.161,2.337-0.277      c0.732-0.439,1.199-1.152,1.347-1.93C488.939,217.912,488.091,217.986,487.358,218.425z"/>
			</g>
			<g>
				<path fill="#FEBF55" d="M441.801,207.029c0.732-0.439,1.581-0.513,2.337-0.277c-0.148,0.777-0.615,1.491-1.347,1.93      c-0.732,0.439-1.581,0.513-2.337,0.277C440.603,208.181,441.069,207.468,441.801,207.029z"/>
				<path fill="#FEBF55" d="M444.425,209.091c-0.439-0.732-0.513-1.581-0.277-2.337c0.777,0.149,1.491,0.615,1.93,1.347      c0.439,0.732,0.513,1.581,0.277,2.337C445.577,210.29,444.864,209.824,444.425,209.091z"/>
			</g>
			<g>
				<path fill="#FEBF55" d="M482.84,222.237c0.305,0.798,0.926,1.381,1.666,1.662c0.363-0.703,0.437-1.552,0.133-2.35      c-0.305-0.797-0.926-1.381-1.666-1.662C482.609,220.591,482.535,221.44,482.84,222.237z"/>
				<path fill="#FEBF55" d="M486.177,222.237c-0.798,0.305-1.381,0.926-1.662,1.666c0.703,0.364,1.552,0.438,2.35,0.133      c0.797-0.305,1.381-0.926,1.662-1.666C487.823,222.006,486.974,221.932,486.177,222.237z"/>
			</g>
			<g>
				<path fill="#FEBF55" d="M443.285,203.071c0.798-0.305,1.647-0.231,2.35,0.133c-0.281,0.74-0.864,1.361-1.662,1.666      c-0.797,0.305-1.646,0.231-2.349-0.133C441.904,203.997,442.487,203.375,443.285,203.071z"/>
				<path fill="#FEBF55" d="M445.51,205.557c-0.305-0.798-0.231-1.647,0.133-2.35c0.74,0.281,1.361,0.864,1.666,1.662      c0.305,0.797,0.231,1.646-0.133,2.35C446.437,206.937,445.815,206.354,445.51,205.557z"/>
			</g>
			<g>
				<path fill="#FEBF55" d="M481.078,225.184c0.162,0.838,0.672,1.521,1.352,1.926c0.48-0.629,0.7-1.453,0.539-2.291      c-0.162-0.838-0.672-1.52-1.352-1.926C481.136,223.523,480.916,224.346,481.078,225.184z"/>
				<path fill="#FEBF55" d="M484.364,225.763c-0.839,0.162-1.521,0.673-1.926,1.352c0.629,0.48,1.453,0.7,2.291,0.539      c0.838-0.162,1.52-0.673,1.926-1.352C486.026,225.822,485.202,225.601,484.364,225.763z"/>
			</g>
			<g>
				<path fill="#FEBF55" d="M445.42,199.452c0.838-0.162,1.662,0.059,2.291,0.539c-0.405,0.68-1.088,1.191-1.926,1.352      s-1.662-0.059-2.291-0.539C443.9,200.125,444.582,199.614,445.42,199.452z"/>
				<path fill="#FEBF55" d="M447.18,202.287c-0.162-0.838,0.059-1.662,0.539-2.291c0.68,0.405,1.191,1.088,1.352,1.926      c0.162,0.838-0.059,1.662-0.539,2.291C447.853,203.807,447.342,203.125,447.18,202.287z"/>
			</g>
			<g>
				<path fill="#FEBF55" d="M478.826,227.779c0.014,0.854,0.398,1.614,0.997,2.132c0.582-0.536,0.942-1.309,0.928-2.163      c-0.014-0.854-0.398-1.614-0.997-2.132C479.172,226.153,478.813,226.925,478.826,227.779z"/>
				<path fill="#FEBF55" d="M481.962,228.92c-0.854,0.014-1.614,0.398-2.132,0.997c0.536,0.582,1.309,0.942,2.163,0.928      c0.854-0.014,1.614-0.398,2.132-0.997C483.588,229.266,482.816,228.906,481.962,228.92z"/>
			</g>
			<g>
				<path fill="#FEBF55" d="M448.156,196.261c0.854-0.014,1.626,0.346,2.163,0.928c-0.517,0.599-1.278,0.984-2.132,0.997      c-0.854,0.014-1.626-0.346-2.163-0.928C446.542,196.659,447.302,196.274,448.156,196.261z"/>
				<path fill="#FEBF55" d="M449.397,199.358c-0.014-0.854,0.346-1.626,0.928-2.163c0.599,0.517,0.983,1.278,0.997,2.132      c0.014,0.854-0.346,1.626-0.928,2.163C449.795,200.972,449.411,200.212,449.397,199.358z"/>
			</g>
			<g>
				<path fill="#FEBF55" d="M476.154,229.943c-0.135,0.843,0.112,1.659,0.612,2.272c0.666-0.427,1.155-1.125,1.29-1.969      c0.135-0.843-0.112-1.659-0.612-2.272C476.777,228.401,476.289,229.1,476.154,229.943z"/>
				<path fill="#FEBF55" d="M479.044,231.611c-0.843-0.135-1.659,0.112-2.272,0.612c0.427,0.667,1.125,1.155,1.969,1.29      c0.843,0.135,1.659-0.112,2.272-0.612C480.585,232.234,479.887,231.745,479.044,231.611z"/>
			</g>
			<g>
				<path fill="#FEBF55" d="M451.409,193.594c0.843,0.135,1.541,0.623,1.969,1.29c-0.613,0.5-1.429,0.747-2.272,0.612      c-0.843-0.135-1.541-0.623-1.968-1.29C449.75,193.706,450.566,193.459,451.409,193.594z"/>
				<path fill="#FEBF55" d="M452.093,196.86c0.135-0.843,0.623-1.541,1.29-1.968c0.5,0.613,0.747,1.429,0.612,2.272      c-0.135,0.843-0.623,1.541-1.29,1.969C452.205,198.518,451.959,197.703,452.093,196.86z"/>
			</g>
			<g>
				<path fill="#FEBF55" d="M473.142,231.61c-0.279,0.807-0.178,1.653,0.208,2.344c0.73-0.305,1.333-0.908,1.612-1.715      c0.279-0.807,0.178-1.653-0.208-2.344C474.024,230.2,473.421,230.803,473.142,231.61z"/>
				<path fill="#FEBF55" d="M475.699,233.754c-0.807-0.279-1.653-0.178-2.344,0.208c0.305,0.73,0.908,1.333,1.715,1.612      c0.807,0.279,1.653,0.178,2.344-0.208C477.108,234.635,476.505,234.033,475.699,233.754z"/>
			</g>
			<g>
				<path fill="#FEBF55" d="M455.08,191.532c0.807,0.279,1.41,0.881,1.715,1.612c-0.691,0.386-1.537,0.487-2.344,0.208      s-1.41-0.881-1.715-1.612C453.427,191.354,454.273,191.253,455.08,191.532z"/>
				<path fill="#FEBF55" d="M455.187,194.867c0.279-0.807,0.881-1.41,1.612-1.715c0.386,0.691,0.487,1.537,0.208,2.344      c-0.279,0.807-0.881,1.41-1.612,1.715C455.009,196.52,454.908,195.674,455.187,194.867z"/>
			</g>
			<g>
				<path fill="#FEBF55" d="M469.882,232.729c-0.415,0.746-0.462,1.597-0.202,2.345c0.772-0.173,1.47-0.662,1.885-1.409      c0.415-0.746,0.462-1.597,0.202-2.345C470.995,231.494,470.297,231.982,469.882,232.729z"/>
				<path fill="#FEBF55" d="M472.027,235.285c-0.746-0.415-1.597-0.462-2.345-0.202c0.173,0.772,0.663,1.47,1.409,1.885      c0.746,0.415,1.597,0.462,2.345,0.202C473.263,236.397,472.773,235.699,472.027,235.285z"/>
			</g>
			<g>
				<path fill="#FEBF55" d="M459.058,190.138c0.746,0.415,1.235,1.113,1.409,1.885c-0.748,0.26-1.598,0.213-2.345-0.202      c-0.746-0.415-1.235-1.113-1.409-1.885C457.461,189.676,458.311,189.724,459.058,190.138z"/>
				<path fill="#FEBF55" d="M458.584,193.441c0.415-0.746,1.113-1.235,1.885-1.409c0.26,0.748,0.213,1.598-0.202,2.345      c-0.415,0.746-1.113,1.235-1.885,1.409C458.122,195.039,458.169,194.188,458.584,193.441z"/>
			</g>
			<g>
				<path fill="#FEBF55" d="M466.473,233.267c-0.538,0.663-0.732,1.493-0.606,2.274c0.791-0.037,1.563-0.397,2.101-1.06      c0.538-0.663,0.732-1.493,0.606-2.274C467.783,232.243,467.011,232.604,466.473,233.267z"/>
				<path fill="#FEBF55" d="M468.142,236.156c-0.663-0.538-1.493-0.732-2.274-0.606c0.037,0.791,0.397,1.563,1.06,2.101      c0.663,0.538,1.493,0.733,2.274,0.606C469.165,237.466,468.804,236.694,468.142,236.156z"/>
			</g>
			<g>
				<path fill="#FEBF55" d="M463.221,189.455c0.663,0.538,1.023,1.31,1.06,2.101c-0.781,0.126-1.611-0.068-2.274-0.606      c-0.663-0.538-1.023-1.31-1.06-2.101C461.729,188.723,462.559,188.917,463.221,189.455z"/>
				<path fill="#FEBF55" d="M462.181,192.625c0.538-0.663,1.31-1.023,2.101-1.06c0.126,0.781-0.068,1.611-0.606,2.274      c-0.538,0.663-1.31,1.023-2.101,1.06C461.449,194.118,461.643,193.288,462.181,192.625z"/>
			</g>
			<g>
				<path fill="#FEBF55" d="M463.018,233.207c-0.645,0.559-0.981,1.343-0.992,2.134c0.785,0.101,1.608-0.12,2.253-0.679      c0.645-0.559,0.981-1.343,0.992-2.134C464.486,232.427,463.663,232.647,463.018,233.207z"/>
				<path fill="#FEBF55" d="M464.16,236.342c-0.559-0.645-1.343-0.981-2.134-0.992c-0.101,0.785,0.12,1.608,0.679,2.253      c0.559,0.645,1.343,0.981,2.134,0.992C464.94,237.81,464.719,236.987,464.16,236.342z"/>
			</g>
			<g>
				<path fill="#FEBF55" d="M467.444,189.503c0.559,0.645,0.78,1.468,0.679,2.253c-0.792-0.011-1.575-0.347-2.134-0.992      c-0.559-0.645-0.78-1.468-0.679-2.253C466.102,188.522,466.885,188.858,467.444,189.503z"/>
				<path fill="#FEBF55" d="M465.87,192.444c0.645-0.559,1.468-0.78,2.253-0.679c-0.011,0.791-0.347,1.575-0.992,2.134      c-0.645,0.559-1.468,0.78-2.253,0.679C464.889,193.787,465.224,193.004,465.87,192.444z"/>
			</g>
			<g>
				<path fill="#FEBF55" d="M459.623,232.551c-0.733,0.439-1.199,1.152-1.347,1.93c0.756,0.236,1.605,0.161,2.337-0.277      c0.733-0.439,1.199-1.152,1.347-1.93C461.204,232.037,460.355,232.112,459.623,232.551z"/>
				<path fill="#FEBF55" d="M460.203,235.837c-0.439-0.732-1.152-1.199-1.93-1.347c-0.236,0.756-0.161,1.605,0.278,2.337      c0.439,0.732,1.152,1.199,1.93,1.347C460.716,237.418,460.642,236.569,460.203,235.837z"/>
			</g>
			<g>
				<path fill="#FEBF55" d="M471.598,190.28c0.439,0.732,0.513,1.581,0.278,2.337c-0.778-0.149-1.491-0.615-1.93-1.347      c-0.439-0.732-0.513-1.581-0.277-2.337C470.446,189.081,471.16,189.547,471.598,190.28z"/>
				<path fill="#FEBF55" d="M469.537,192.903c0.732-0.439,1.581-0.513,2.337-0.277c-0.149,0.777-0.615,1.491-1.347,1.93      c-0.733,0.439-1.581,0.513-2.337,0.277C468.338,194.055,468.804,193.342,469.537,192.903z"/>
			</g>
			<g>
				<path fill="#FEBF55" d="M456.39,231.318c-0.797,0.305-1.381,0.926-1.662,1.666c0.703,0.364,1.552,0.437,2.35,0.133      c0.798-0.305,1.381-0.926,1.662-1.666C458.037,231.088,457.188,231.014,456.39,231.318z"/>
				<path fill="#FEBF55" d="M456.391,234.655c-0.305-0.797-0.926-1.381-1.666-1.662c-0.363,0.703-0.438,1.552-0.133,2.35      c0.305,0.798,0.926,1.381,1.666,1.662C456.622,236.302,456.696,235.453,456.391,234.655z"/>
			</g>
			<g>
				<path fill="#FEBF55" d="M475.557,191.763c0.305,0.797,0.231,1.647-0.133,2.35c-0.74-0.281-1.361-0.865-1.666-1.662      c-0.305-0.798-0.231-1.646,0.133-2.35C474.631,190.383,475.252,190.966,475.557,191.763z"/>
				<path fill="#FEBF55" d="M473.071,193.989c0.797-0.305,1.646-0.231,2.35,0.133c-0.281,0.74-0.864,1.361-1.662,1.666      c-0.798,0.305-1.647,0.231-2.35-0.133C471.69,194.915,472.273,194.294,473.071,193.989z"/>
			</g>
		</g>
		<g>
			<path fill="#FEBF55" d="M456.943,205.452c1.968-0.967,3.522-1.519,6.042-4.523h6.146v19.542h3.211v4.592h-13.81v-4.592h3.452     v-12.809l-3.452,1.623L456.943,205.452z"/>
		</g>
		<rect x="354.543" y="138.816" fill="#0F538C" width="114.901" height="13.88"/>
		<rect x="379.659" y="159.456" fill="#0F538C" width="64.668" height="7.812"/>
		<g>
			<rect x="336.648" y="194.955" fill="#0F538C" width="79.588" height="7.812"/>
			<rect x="336.648" y="234.857" fill="#0F538C" width="79.588" height="7.812"/>
			<rect x="336.648" y="214.906" fill="#0F538C" width="79.588" height="7.812"/>
		</g>
		<g>
			<path fill="#FEBF55" d="M359.161,481.441c-73.645-62.62-95.781-120.741-85.048-150.563c3.695-10.268,11.469-16.473,20.797-16.601     c11.003-0.16,20.841,3.853,28.669,11.574c11.034,10.883,17.621,28.943,17.621,48.308h-15.704c0-15.025-4.96-29.252-12.945-37.128     c-4.837-4.772-10.729-7.09-17.425-7.052c-3.323,0.046-5.225,3.406-6.236,6.217c-7.187,19.97,8.306,71.943,80.444,133.281     L359.161,481.441z"/>
			<path fill="#FEBF55" d="M472.542,481.441l-10.172-11.964c72.138-61.338,87.631-113.313,80.445-133.281     c-1.012-2.811-2.915-6.171-6.237-6.217c-6.733-0.047-12.588,2.281-17.425,7.052c-7.985,7.876-12.945,22.103-12.945,37.128     h-15.704c0-19.365,6.587-37.425,17.621-48.308c7.828-7.723,17.774-11.768,28.669-11.574c9.329,0.128,17.103,6.334,20.798,16.6     C568.323,360.7,546.189,418.822,472.542,481.441z"/>
		</g>
		<path fill="#E1AD3D" d="M439.682,524.163c0,14.732,3.34,28.683,9.332,41.137h-66.325c5.993-12.454,9.332-26.405,9.332-41.137    c0-14.732-3.34-28.684-9.332-41.137h66.325C443.022,495.479,439.682,509.431,439.682,524.163z"/>
		<path fill="#FEBF55" d="M325.617,336.837v73.64c0,49.835,40.399,90.235,90.235,90.235s90.235-40.4,90.235-90.235v-73.64H325.617z"/>
		<path fill="#E1AD3D" d="M466.128,601.962c0-27.766-22.51-50.276-50.276-50.276c-27.767,0-50.276,22.51-50.276,50.276H466.128z"/>
		<rect x="318.227" y="671.283" fill="#0F538C" width="195.25" height="25.122"/>
		<rect x="339.084" y="596.824" fill="#FEBF55" width="153.535" height="74.459"/>
		<path fill="#C68F30" d="M456.181,657.39h-80.658c0-5.494-4.454-9.947-9.947-9.947v-26.779c5.494,0,9.947-4.453,9.947-9.947h80.658    c0,5.494,4.454,9.947,9.947,9.947v13.39v13.389C460.634,647.443,456.181,651.896,456.181,657.39z"/>
		<g>
			<polygon fill="#FEBF55" points="202.322,379.007 202.35,379.016 202.322,378.976    "/>
			<polygon fill="#FEBF55" points="202.322,321.477 185.414,355.735 202.322,378.976    "/>
			<polygon fill="#FEBF55" points="202.322,379.025 202.35,379.016 202.322,379.007    "/>
			<polygon fill="#C68F30" points="202.35,379.016 219.229,355.735 202.322,321.477 202.322,378.976    "/>
			<polygon fill="#FEBF55" points="202.322,379.055 202.35,379.016 202.322,379.025    "/>
			<polygon fill="#FEBF55" points="257.036,361.229 219.229,355.735 202.35,379.016    "/>
			<polygon fill="#C68F30" points="229.679,387.895 257.036,361.229 202.35,379.016    "/>
			<polygon fill="#FEBF55" points="202.322,379.055 202.322,407.771 236.137,425.549 202.35,379.016    "/>
			<polygon fill="#C68F30" points="202.35,379.016 236.137,425.549 229.679,387.895    "/>
			<polygon fill="#FEBF55" points="202.322,378.976 185.414,355.735 147.608,361.229 202.322,379.007    "/>
			<polygon opacity="0.25" fill="#FEBF55" points="202.322,378.976 185.414,355.735 147.608,361.229 202.322,379.007    "/>
			<polygon fill="#C68F30" points="168.507,425.549 202.322,407.771 202.322,379.055    "/>
			<polygon fill="#FEBF55" points="202.322,379.025 174.965,387.895 168.507,425.549 202.322,379.055    "/>
			<polygon fill="#C68F30" points="202.322,379.007 147.608,361.229 174.965,387.895 202.322,379.025    "/>
		</g>
		<path fill="#C68F30" d="M207.22,325.416h-9.796c-4.676,0-8.48-3.804-8.48-8.48v-6.595c0-4.676,3.804-8.48,8.48-8.48h9.796    c4.676,0,8.48,3.804,8.48,8.48v6.595C215.7,321.612,211.896,325.416,207.22,325.416z M197.424,309.775    c-0.301,0-0.565,0.264-0.565,0.565v6.595c0,0.301,0.264,0.565,0.565,0.565h9.796c0.301,0,0.565-0.264,0.565-0.565v-6.595    c0-0.301-0.264-0.565-0.565-0.565H197.424z"/>
		<rect x="197.765" y="318.012" fill="#E1AD3D" width="9.113" height="6.93"/>
		<polygon fill="#CCE9FF" points="167.09,231.924 167.09,285.233 180.856,298.999 180.856,231.924   "/>
		<polygon fill="#CCE9FF" points="223.787,231.924 223.787,298.999 237.553,285.233 237.553,231.924   "/>
		<polygon fill="#0F538C" points="159.157,231.924 159.157,277.3 164.29,282.433 164.29,231.924   "/>
		<polygon fill="#0F538C" points="240.353,231.924 240.353,282.433 245.486,277.3 245.486,231.924   "/>
		<polygon fill="#2B94F3" points="164.29,231.924 164.29,282.433 167.09,285.233 167.09,231.924   "/>
		<polygon fill="#2B94F3" points="237.553,231.924 237.553,285.233 240.353,282.433 240.353,231.924   "/>
		<polygon fill="#2B94F3" points="196.489,231.924 180.856,231.924 180.856,298.999 196.489,314.632   "/>
		<polygon fill="#2B94F3" points="208.155,231.924 208.155,314.632 223.787,298.999 223.787,231.924   "/>
		<rect x="196.487" y="231.927" fill="#0F538C" width="11.668" height="82.708"/>
		<polygon fill="#0F538C" points="725.672,281.112 725.663,281.121 563.224,281.121 563.215,281.112 584.884,241.006     703.966,241.006 703.984,241.044 714.711,260.853 716.683,264.498   "/>
		<polygon fill="#2B94F4" points="662.985,360.089 644.439,372.248 629.433,382.082 563.226,281.121 563.214,281.11     570.984,266.761 572.209,264.493 574.171,260.852 575.396,258.583 584.901,241.047 611.183,281.121 644.439,331.823   "/>
		<polygon fill="#CCE9FF" points="647.218,367.779 640.311,372.339 570.984,266.761 572.209,264.493 574.171,260.852     575.396,258.583   "/>
		<polygon fill="#2B94F4" points="625.902,360.089 644.447,372.248 659.453,382.082 725.661,281.121 725.672,281.11     717.902,266.761 716.677,264.493 714.715,260.852 713.49,258.583 703.985,241.047 677.704,281.121 644.447,331.823   "/>
		<polygon fill="#CCE9FF" points="641.668,367.779 648.576,372.339 717.902,266.761 716.677,264.493 714.715,260.852     713.49,258.583   "/>
		
			<ellipse transform="matrix(0.2256 -0.9742 0.9742 0.2256 117.7895 930.9308)" fill="#FEBF55" cx="644.443" cy="391.377" rx="49.816" ry="49.816"/>
		<g>
			<g>
				<g>
					<g>
						<path fill="#C68F30" d="M631.27,361.433c-1.233-0.58-2.089-1.643-2.452-2.862c1.158-0.503,2.515-0.524,3.748,0.056        c1.233,0.58,2.089,1.643,2.452,2.862C633.859,361.992,632.502,362.013,631.27,361.433z"/>
						<path fill="#C68F30" d="M631.648,356.083c-0.575,1.244-1.628,2.108-2.836,2.474c-0.498-1.169-0.519-2.539,0.055-3.783        c0.575-1.244,1.628-2.108,2.836-2.474C632.202,353.469,632.223,354.839,631.648,356.083z"/>
					</g>
					<g>
						<path fill="#C68F30" d="M626.387,363.936c-1.313-0.355-2.34-1.252-2.907-2.389c1.054-0.698,2.387-0.957,3.701-0.602        c1.314,0.355,2.34,1.252,2.907,2.388C629.033,364.032,627.7,364.291,626.387,363.936z"/>
						<path fill="#C68F30" d="M625.839,358.601c-0.352,1.326-1.241,2.361-2.367,2.934c-0.691-1.064-0.948-2.409-0.596-3.735        c0.352-1.326,1.241-2.361,2.367-2.934C625.934,355.93,626.191,357.275,625.839,358.601z"/>
					</g>
					<g>
						<path fill="#C68F30" d="M622.005,367.264c-1.355-0.12-2.519-0.823-3.274-1.843c0.918-0.872,2.186-1.361,3.541-1.241        c1.355,0.12,2.52,0.823,3.274,1.843C624.628,366.894,623.36,367.383,622.005,367.264z"/>
						<path fill="#C68F30" d="M620.548,362.105c-0.119,1.367-0.816,2.543-1.826,3.304c-0.864-0.927-1.348-2.206-1.23-3.574        c0.118-1.367,0.816-2.543,1.826-3.304C620.183,359.458,620.667,360.738,620.548,362.105z"/>
					</g>
					<g>
						<path fill="#C68F30" d="M618.259,371.314c-1.355,0.12-2.623-0.369-3.541-1.241c0.754-1.02,1.919-1.723,3.274-1.843        c1.355-0.12,2.623,0.369,3.541,1.241C620.779,370.491,619.614,371.195,618.259,371.314z"/>
						<path fill="#C68F30" d="M615.937,366.49c0.118,1.367-0.366,2.647-1.23,3.574c-1.01-0.761-1.707-1.937-1.826-3.304        c-0.119-1.367,0.366-2.647,1.23-3.574C615.121,363.947,615.818,365.122,615.937,366.49z"/>
					</g>
					<g>
						<path fill="#C68F30" d="M615.262,375.965c-1.314,0.355-2.647,0.096-3.701-0.602c0.567-1.136,1.593-2.033,2.907-2.389        c1.314-0.355,2.646-0.096,3.701,0.602C617.601,374.713,616.575,375.61,615.262,375.965z"/>
						<path fill="#C68F30" d="M612.144,371.621c0.352,1.326,0.095,2.671-0.596,3.735c-1.126-0.572-2.015-1.608-2.367-2.934        c-0.352-1.326-0.095-2.671,0.596-3.735C610.903,369.26,611.792,370.295,612.144,371.621z"/>
					</g>
					<g>
						<path fill="#C68F30" d="M613.104,381.075c-1.233,0.58-2.59,0.559-3.748,0.056c0.363-1.219,1.219-2.282,2.452-2.862        c1.232-0.58,2.59-0.559,3.748-0.056C615.193,379.431,614.336,380.495,613.104,381.075z"/>
						<path fill="#C68F30" d="M609.286,377.343c0.575,1.244,0.553,2.614,0.056,3.783c-1.207-0.367-2.261-1.23-2.836-2.474        c-0.575-1.244-0.554-2.614-0.056-3.783C607.658,375.235,608.712,376.099,609.286,377.343z"/>
					</g>
					<g>
						<path fill="#C68F30" d="M611.852,386.488c-1.114,0.787-2.454,1.004-3.682,0.712c0.148-1.264,0.808-2.461,1.922-3.248        c1.114-0.787,2.454-1.004,3.682-0.712C613.626,384.504,612.966,385.701,611.852,386.488z"/>
						<path fill="#C68F30" d="M607.45,383.482c0.78,1.124,0.995,2.477,0.706,3.715c-1.252-0.149-2.438-0.815-3.218-1.94        c-0.78-1.124-0.995-2.477-0.706-3.715C605.484,381.691,606.67,382.357,607.45,383.482z"/>
					</g>
					<g>
						<path fill="#C68F30" d="M611.543,392.04c-0.962,0.971-2.244,1.419-3.503,1.346c-0.072-1.27,0.372-2.565,1.334-3.535        c0.962-0.971,2.244-1.419,3.503-1.346C612.949,389.775,612.505,391.07,611.543,392.04z"/>
						<path fill="#C68F30" d="M606.691,389.851c0.962,0.971,1.406,2.265,1.334,3.535c-1.259,0.072-2.541-0.376-3.503-1.346        c-0.962-0.97-1.406-2.265-1.334-3.535C604.446,388.432,605.729,388.881,606.691,389.851z"/>
					</g>
					<g>
						<path fill="#C68F30" d="M612.19,397.521c-0.78,1.124-1.966,1.791-3.218,1.94c-0.289-1.239-0.075-2.591,0.706-3.716        c0.78-1.124,1.966-1.79,3.218-1.94C613.185,395.044,612.971,396.397,612.19,397.521z"/>
						<path fill="#C68F30" d="M607.035,396.216c1.114,0.787,1.774,1.984,1.922,3.248c-1.227,0.292-2.568,0.075-3.682-0.712        c-1.114-0.787-1.774-1.984-1.922-3.248C604.581,395.212,605.921,395.428,607.035,396.216z"/>
					</g>
					<g>
						<path fill="#C68F30" d="M613.778,402.806c-0.575,1.244-1.628,2.108-2.836,2.474c-0.498-1.169-0.519-2.539,0.056-3.783        c0.575-1.244,1.628-2.108,2.835-2.474C614.332,400.192,614.353,401.562,613.778,402.806z"/>
						<path fill="#C68F30" d="M608.477,402.423c1.233,0.58,2.089,1.643,2.452,2.862c-1.158,0.503-2.516,0.524-3.748-0.056        c-1.233-0.58-2.089-1.643-2.452-2.862C605.887,401.865,607.245,401.843,608.477,402.423z"/>
					</g>
					<g>
						<path fill="#C68F30" d="M616.258,407.734c-0.352,1.326-1.241,2.361-2.367,2.934c-0.692-1.064-0.948-2.409-0.596-3.735        c0.352-1.326,1.241-2.361,2.367-2.934C616.354,405.063,616.611,406.408,616.258,407.734z"/>
						<path fill="#C68F30" d="M610.972,408.286c1.314,0.355,2.34,1.252,2.907,2.389c-1.054,0.698-2.387,0.957-3.701,0.602        c-1.314-0.355-2.34-1.252-2.907-2.388C608.325,408.19,609.658,407.931,610.972,408.286z"/>
					</g>
					<g>
						<path fill="#C68F30" d="M619.555,412.155c-0.118,1.367-0.816,2.543-1.826,3.304c-0.864-0.927-1.348-2.206-1.23-3.574        c0.119-1.367,0.816-2.543,1.826-3.304C619.19,409.508,619.674,410.788,619.555,412.155z"/>
						<path fill="#C68F30" d="M614.444,413.626c1.355,0.12,2.519,0.823,3.274,1.843c-0.918,0.872-2.186,1.361-3.541,1.241        c-1.355-0.12-2.52-0.823-3.274-1.843C611.821,413.995,613.089,413.506,614.444,413.626z"/>
					</g>
					<g>
						<path fill="#C68F30" d="M623.569,415.936c0.119,1.367-0.366,2.647-1.23,3.574c-1.01-0.761-1.707-1.936-1.826-3.304        c-0.118-1.367,0.366-2.647,1.23-3.574C622.753,413.393,623.451,414.569,623.569,415.936z"/>
						<path fill="#C68F30" d="M618.789,418.28c1.355-0.12,2.623,0.369,3.541,1.241c-0.754,1.02-1.919,1.723-3.274,1.843        c-1.355,0.12-2.623-0.369-3.541-1.241C616.269,419.103,617.434,418.399,618.789,418.28z"/>
					</g>
					<g>
						<path fill="#C68F30" d="M628.177,418.961c0.352,1.326,0.095,2.671-0.596,3.735c-1.126-0.573-2.015-1.608-2.367-2.934        c-0.352-1.326-0.095-2.671,0.596-3.735C626.937,416.6,627.826,417.635,628.177,418.961z"/>
						<path fill="#C68F30" d="M623.873,422.107c1.314-0.355,2.646-0.096,3.701,0.602c-0.567,1.136-1.593,2.033-2.907,2.388        c-1.314,0.355-2.647,0.096-3.701-0.602C621.533,423.359,622.559,422.462,623.873,422.107z"/>
					</g>
					<g>
						<path fill="#C68F30" d="M633.241,421.139c0.575,1.244,0.553,2.614,0.055,3.783c-1.208-0.366-2.261-1.23-2.836-2.474        c-0.575-1.244-0.553-2.614-0.055-3.783C631.612,419.031,632.666,419.895,633.241,421.139z"/>
						<path fill="#C68F30" d="M629.543,424.991c1.233-0.58,2.59-0.558,3.748-0.056c-0.363,1.218-1.219,2.282-2.452,2.862        s-2.59,0.559-3.748,0.056C627.454,426.635,628.31,425.572,629.543,424.991z"/>
					</g>
				</g>
				<path fill="#C68F30" d="M637.719,356.883c-1.278,0.47-2.628,0.329-3.739-0.274c0.467-1.182,1.411-2.166,2.69-2.635      c1.278-0.47,2.628-0.329,3.739,0.274C639.941,355.43,638.997,356.414,637.719,356.883z"/>
			</g>
			<path fill="#C68F30" d="M649.593,433.452l-0.401,0.404c-1.56-1.383-3.163-2.554-4.744-3.532c-0.19-0.106-0.359-0.213-0.527-0.319     c-4.091-2.468-7.991-3.788-10.732-4.724c-0.422-0.149-0.801-0.277-1.139-0.404c-0.274-0.106-0.548-0.191-0.822-0.319     c-1.307-0.468-2.551-1.043-3.753-1.66c-0.569-0.277-1.118-0.575-1.645-0.894c-0.59-0.34-1.16-0.681-1.708-1.064     c-0.654-0.404-1.286-0.851-1.898-1.319c-0.443-0.319-0.886-0.66-1.328-1.021c0,0,0,0-0.021,0     c-1.139-0.958-2.235-1.958-3.247-3.043c-0.379-0.383-0.759-0.787-1.117-1.192c-0.991-1.149-1.94-2.362-2.762-3.617     c-0.337-0.49-0.654-0.958-0.949-1.468c-0.78-1.256-1.476-2.575-2.087-3.915c-0.253-0.596-0.506-1.192-0.738-1.787     c-0.506-1.319-0.949-2.681-1.286-4.065c-0.169-0.681-0.316-1.362-0.464-2.043c-0.253-1.341-0.422-2.702-0.527-4.086     c-0.042-0.723-0.085-1.426-0.085-2.149v-0.319c0-1.277,0.063-2.532,0.211-3.788c0.063-0.723,0.169-1.426,0.295-2.128     c0.232-1.341,0.548-2.681,0.928-3.979c0.19-0.681,0.422-1.341,0.654-2c0.464-1.298,1.012-2.554,1.623-3.788     c0.295-0.596,0.59-1.17,0.928-1.745c0.696-1.234,1.455-2.405,2.298-3.532c0.358-0.489,0.717-0.957,1.096-1.426     c0.928-1.149,1.919-2.234,2.973-3.256c0.401-0.383,0.822-0.788,1.265-1.171c1.096-0.979,2.277-1.894,3.5-2.724     c0.506-0.341,1.012-0.681,1.539-1c0,0,0-0.021,0.021-0.021c1.223-0.745,2.488-1.426,3.795-2.022     c0.611-0.298,1.244-0.575,1.877-0.83c1.139-0.447,2.298-0.851,3.5-1.192c0.991-0.298,2.003-0.532,3.015-0.745l0.126,0.532     c-0.97,0.192-1.919,0.426-2.846,0.702c-1.371,0.383-2.699,0.851-3.985,1.383c-0.506,0.213-1.012,0.426-1.497,0.681     c-1.286,0.575-2.509,1.234-3.69,1.979c-0.527,0.319-1.054,0.66-1.56,1.043c-1.139,0.766-2.235,1.617-3.268,2.532     c-0.506,0.404-0.97,0.851-1.434,1.298c-1.012,0.979-1.961,2.022-2.846,3.107c-0.401,0.489-0.78,0.979-1.139,1.49     c-0.864,1.17-1.666,2.383-2.362,3.66c-0.295,0.511-0.548,1.021-0.801,1.532c-0.696,1.383-1.286,2.788-1.792,4.256     c-0.169,0.468-0.316,0.958-0.443,1.447c-0.443,1.49-0.78,3-1.012,4.554c-0.084,0.49-0.148,0.979-0.19,1.468     c-0.148,1.213-0.211,2.447-0.211,3.681c0,0.34,0,0.681,0.021,1.021c0,0.489,0.042,0.979,0.063,1.447     c0.105,1.511,0.316,3.001,0.633,4.448c0.105,0.532,0.211,1.064,0.358,1.596c0.337,1.383,0.78,2.745,1.307,4.064     c0.211,0.575,0.443,1.128,0.696,1.681c0.569,1.277,1.223,2.511,1.94,3.703c0.316,0.553,0.654,1.064,1.012,1.596     c0.78,1.128,1.603,2.234,2.509,3.277c0.422,0.489,0.865,0.979,1.307,1.447c0.949,1,1.961,1.936,3.015,2.809     c0.485,0.404,0.991,0.809,1.518,1.213c0.506,0.362,1.033,0.723,1.56,1.085c0.654,0.447,1.328,0.851,2.045,1.277     c0.506,0.277,1.033,0.575,1.56,0.851c1.349,0.681,2.762,1.298,4.238,1.83c0.084,0.021,0.169,0.064,0.253,0.085     c0.359,0.128,0.717,0.255,1.139,0.404h0.021c2.804,0.958,6.853,2.341,11.07,4.916c0.169,0.107,0.337,0.213,0.527,0.341     C646.514,430.963,648.075,432.112,649.593,433.452z"/>
		</g>
		<g>
			<g>
				<g>
					<g>
						<path fill="#C68F30" d="M657.617,361.433c1.233-0.58,2.089-1.643,2.452-2.862c-1.158-0.503-2.515-0.524-3.748,0.056        c-1.233,0.58-2.089,1.643-2.452,2.862C655.027,361.992,656.385,362.013,657.617,361.433z"/>
						<path fill="#C68F30" d="M657.239,356.083c0.575,1.244,1.628,2.108,2.835,2.474c0.498-1.169,0.519-2.539-0.056-3.783        c-0.575-1.244-1.628-2.108-2.835-2.474C656.685,353.469,656.664,354.839,657.239,356.083z"/>
					</g>
					<g>
						<path fill="#C68F30" d="M662.5,363.936c1.314-0.355,2.34-1.252,2.907-2.389c-1.054-0.698-2.387-0.957-3.701-0.602        c-1.314,0.355-2.34,1.252-2.907,2.388C659.853,364.032,661.186,364.291,662.5,363.936z"/>
						<path fill="#C68F30" d="M663.048,358.601c0.352,1.326,1.241,2.361,2.367,2.934c0.692-1.064,0.948-2.409,0.596-3.735        c-0.352-1.326-1.241-2.361-2.367-2.934C662.952,355.93,662.696,357.275,663.048,358.601z"/>
					</g>
					<g>
						<path fill="#C68F30" d="M666.881,367.264c1.355-0.12,2.519-0.823,3.274-1.843c-0.918-0.872-2.186-1.361-3.541-1.241        c-1.355,0.12-2.519,0.823-3.274,1.843C664.258,366.894,665.526,367.383,666.881,367.264z"/>
						<path fill="#C68F30" d="M668.338,362.105c0.118,1.367,0.816,2.543,1.826,3.304c0.864-0.927,1.348-2.206,1.23-3.574        c-0.119-1.367-0.816-2.543-1.826-3.304C668.704,359.458,668.22,360.738,668.338,362.105z"/>
					</g>
					<g>
						<path fill="#C68F30" d="M670.627,371.314c1.355,0.12,2.623-0.369,3.541-1.241c-0.754-1.02-1.919-1.723-3.274-1.843        c-1.355-0.12-2.623,0.369-3.541,1.241C668.108,370.491,669.273,371.195,670.627,371.314z"/>
						<path fill="#C68F30" d="M672.95,366.49c-0.119,1.367,0.366,2.647,1.23,3.574c1.01-0.761,1.707-1.937,1.826-3.304        c0.118-1.367-0.366-2.647-1.23-3.574C673.766,363.947,673.069,365.122,672.95,366.49z"/>
					</g>
					<g>
						<path fill="#C68F30" d="M673.625,375.965c1.314,0.355,2.646,0.096,3.701-0.602c-0.567-1.136-1.593-2.033-2.907-2.389        c-1.314-0.355-2.647-0.096-3.701,0.602C671.285,374.713,672.311,375.61,673.625,375.965z"/>
						<path fill="#C68F30" d="M676.743,371.621c-0.352,1.326-0.095,2.671,0.596,3.735c1.126-0.572,2.015-1.608,2.367-2.934        c0.352-1.326,0.095-2.671-0.596-3.735C677.983,369.26,677.095,370.295,676.743,371.621z"/>
					</g>
					<g>
						<path fill="#C68F30" d="M675.783,381.075c1.233,0.58,2.59,0.559,3.748,0.056c-0.363-1.219-1.219-2.282-2.452-2.862        c-1.233-0.58-2.59-0.559-3.748-0.056C673.694,379.431,674.55,380.495,675.783,381.075z"/>
						<path fill="#C68F30" d="M679.6,377.343c-0.575,1.244-0.553,2.614-0.055,3.783c1.207-0.367,2.261-1.23,2.836-2.474        c0.575-1.244,0.553-2.614,0.055-3.783C681.228,375.235,680.175,376.099,679.6,377.343z"/>
					</g>
					<g>
						<path fill="#C68F30" d="M677.035,386.488c1.114,0.787,2.454,1.004,3.682,0.712c-0.148-1.264-0.808-2.461-1.922-3.248        c-1.114-0.787-2.454-1.004-3.681-0.712C675.261,384.504,675.921,385.701,677.035,386.488z"/>
						<path fill="#C68F30" d="M681.437,383.482c-0.78,1.124-0.995,2.477-0.706,3.715c1.252-0.149,2.438-0.815,3.218-1.94        c0.78-1.124,0.995-2.477,0.706-3.715C683.403,381.691,682.217,382.357,681.437,383.482z"/>
					</g>
					<g>
						<path fill="#C68F30" d="M677.344,392.04c0.962,0.971,2.244,1.419,3.503,1.346c0.072-1.27-0.372-2.565-1.334-3.535        c-0.962-0.971-2.244-1.419-3.503-1.346C675.938,389.775,676.382,391.07,677.344,392.04z"/>
						<path fill="#C68F30" d="M682.196,389.851c-0.962,0.971-1.406,2.265-1.334,3.535c1.259,0.072,2.542-0.376,3.503-1.346        c0.962-0.97,1.406-2.265,1.334-3.535C684.44,388.432,683.158,388.881,682.196,389.851z"/>
					</g>
					<g>
						<path fill="#C68F30" d="M676.696,397.521c0.78,1.124,1.966,1.791,3.218,1.94c0.289-1.239,0.075-2.591-0.706-3.716        c-0.78-1.124-1.966-1.79-3.218-1.94C675.701,395.044,675.916,396.397,676.696,397.521z"/>
						<path fill="#C68F30" d="M681.851,396.216c-1.114,0.787-1.774,1.984-1.922,3.248c1.227,0.292,2.568,0.075,3.682-0.712        c1.114-0.787,1.774-1.984,1.922-3.248C684.306,395.212,682.965,395.428,681.851,396.216z"/>
					</g>
					<g>
						<path fill="#C68F30" d="M675.108,402.806c0.575,1.244,1.628,2.108,2.836,2.474c0.498-1.169,0.519-2.539-0.055-3.783        c-0.575-1.244-1.628-2.108-2.836-2.474C674.555,400.192,674.534,401.562,675.108,402.806z"/>
						<path fill="#C68F30" d="M680.409,402.423c-1.232,0.58-2.089,1.643-2.452,2.862c1.158,0.503,2.516,0.524,3.748-0.056        c1.233-0.58,2.089-1.643,2.452-2.862C682.999,401.865,681.642,401.843,680.409,402.423z"/>
					</g>
					<g>
						<path fill="#C68F30" d="M672.628,407.734c0.352,1.326,1.241,2.361,2.367,2.934c0.691-1.064,0.948-2.409,0.596-3.735        c-0.352-1.326-1.241-2.361-2.367-2.934C672.533,405.063,672.276,406.408,672.628,407.734z"/>
						<path fill="#C68F30" d="M677.915,408.286c-1.314,0.355-2.34,1.252-2.907,2.389c1.054,0.698,2.387,0.957,3.701,0.602        c1.314-0.355,2.34-1.252,2.907-2.388C680.561,408.19,679.228,407.931,677.915,408.286z"/>
					</g>
					<g>
						<path fill="#C68F30" d="M669.331,412.155c0.118,1.367,0.816,2.543,1.826,3.304c0.864-0.927,1.348-2.206,1.23-3.574        c-0.119-1.367-0.816-2.543-1.826-3.304C669.697,409.508,669.213,410.788,669.331,412.155z"/>
						<path fill="#C68F30" d="M674.442,413.626c-1.355,0.12-2.52,0.823-3.274,1.843c0.918,0.872,2.186,1.361,3.541,1.241        c1.355-0.12,2.52-0.823,3.274-1.843C677.065,413.995,675.797,413.506,674.442,413.626z"/>
					</g>
					<g>
						<path fill="#C68F30" d="M665.318,415.936c-0.119,1.367,0.366,2.647,1.23,3.574c1.01-0.761,1.707-1.936,1.826-3.304        c0.119-1.367-0.366-2.647-1.23-3.574C666.133,413.393,665.436,414.569,665.318,415.936z"/>
						<path fill="#C68F30" d="M670.098,418.28c-1.355-0.12-2.623,0.369-3.541,1.241c0.754,1.02,1.919,1.723,3.274,1.843        c1.355,0.12,2.623-0.369,3.541-1.241C672.618,419.103,671.453,418.399,670.098,418.28z"/>
					</g>
					<g>
						<path fill="#C68F30" d="M660.709,418.961c-0.352,1.326-0.095,2.671,0.596,3.735c1.126-0.573,2.015-1.608,2.367-2.934        c0.352-1.326,0.095-2.671-0.596-3.735C661.95,416.6,661.061,417.635,660.709,418.961z"/>
						<path fill="#C68F30" d="M665.014,422.107c-1.314-0.355-2.646-0.096-3.701,0.602c0.567,1.136,1.593,2.033,2.907,2.388        c1.314,0.355,2.647,0.096,3.701-0.602C667.353,423.359,666.327,422.462,665.014,422.107z"/>
					</g>
					<g>
						<path fill="#C68F30" d="M655.646,421.139c-0.575,1.244-0.553,2.614-0.055,3.783c1.207-0.366,2.261-1.23,2.835-2.474        c0.575-1.244,0.553-2.614,0.056-3.783C657.274,419.031,656.221,419.895,655.646,421.139z"/>
						<path fill="#C68F30" d="M659.344,424.991c-1.233-0.58-2.59-0.558-3.748-0.056c0.363,1.218,1.219,2.282,2.452,2.862        c1.233,0.58,2.59,0.559,3.748,0.056C661.433,426.635,660.577,425.572,659.344,424.991z"/>
					</g>
				</g>
				<path fill="#C68F30" d="M651.168,356.883c1.278,0.47,2.628,0.329,3.739-0.274c-0.467-1.182-1.412-2.166-2.69-2.635      c-1.278-0.47-2.628-0.329-3.739,0.274C648.945,355.43,649.89,356.414,651.168,356.883z"/>
			</g>
			<path fill="#C68F30" d="M681.263,390.915v0.362c0,0.702-0.042,1.404-0.084,2.107c-0.105,1.383-0.274,2.766-0.548,4.107v0.021     c-0.126,0.681-0.274,1.341-0.443,2c-0.337,1.383-0.78,2.745-1.286,4.065c-0.232,0.596-0.485,1.192-0.738,1.787     c-0.611,1.341-1.286,2.639-2.066,3.894c0,0,0,0.021-0.021,0.021c-0.274,0.511-0.59,1-0.928,1.489     c-0.844,1.234-1.75,2.426-2.741,3.554c-0.359,0.426-0.738,0.83-1.139,1.234c-1.012,1.064-2.087,2.085-3.226,3.022     c-0.443,0.362-0.907,0.723-1.371,1.043h-0.021c-0.633,0.489-1.244,0.936-1.919,1.362c-0.527,0.362-1.096,0.702-1.666,1.021     c-0.527,0.319-1.075,0.617-1.645,0.894c-1.202,0.617-2.425,1.192-3.732,1.681h-0.021c-0.274,0.106-0.548,0.191-0.823,0.298     c-0.358,0.128-0.717,0.255-1.139,0.404h-0.021c-2.72,0.936-6.621,2.256-10.711,4.724c-0.169,0.085-0.337,0.191-0.527,0.319     c-1.581,0.979-3.205,2.128-4.765,3.532l-0.401-0.404c1.518-1.341,3.078-2.49,4.639-3.447c0.169-0.128,0.337-0.234,0.527-0.341     c4.217-2.575,8.265-3.958,11.07-4.916c0.422-0.149,0.801-0.277,1.139-0.404c0.105-0.043,0.19-0.064,0.295-0.106     c1.455-0.532,2.846-1.128,4.196-1.809c0.548-0.298,1.075-0.575,1.603-0.894c0.021,0,0.021-0.021,0.021-0.021     c0.675-0.383,1.328-0.787,1.961-1.213c0.527-0.341,1.054-0.702,1.56-1.085c0.527-0.383,1.033-0.787,1.539-1.213     c1.054-0.872,2.066-1.809,3.015-2.809c0.464-0.489,0.885-0.958,1.328-1.468l0.021-0.021c0.886-1.043,1.708-2.128,2.467-3.234     c0.379-0.532,0.717-1.085,1.054-1.66c0.717-1.17,1.349-2.383,1.919-3.639c0.232-0.532,0.464-1.043,0.675-1.596v-0.021     c0.527-1.341,0.97-2.724,1.328-4.128c0.148-0.532,0.253-1.064,0.359-1.596c0-0.021,0-0.021,0-0.043     c0.316-1.426,0.527-2.915,0.632-4.405c0.021-0.447,0.042-0.894,0.063-1.362V392c0.021-0.362,0.021-0.702,0.021-1.085     c0-1.234-0.063-2.469-0.211-3.681c-0.042-0.468-0.105-0.936-0.169-1.404c-0.232-1.575-0.569-3.107-1.033-4.618     c-0.127-0.489-0.274-0.979-0.443-1.447c-0.506-1.468-1.097-2.873-1.792-4.256c-0.232-0.511-0.506-1-0.78-1.49     c-0.717-1.277-1.497-2.511-2.383-3.703c-0.358-0.511-0.738-1-1.139-1.49c-0.886-1.085-1.834-2.128-2.846-3.107     c-0.464-0.447-0.928-0.894-1.434-1.298l-0.021-0.021c-1.033-0.915-2.108-1.745-3.247-2.511c-0.506-0.383-1.033-0.723-1.56-1.043     c-1.181-0.745-2.404-1.405-3.69-1.979c-0.485-0.255-0.97-0.468-1.476-0.66l-0.021-0.021c-1.286-0.532-2.615-1-3.985-1.383     c-0.928-0.277-1.877-0.511-2.847-0.702l0.106-0.532c1.033,0.213,2.045,0.468,3.036,0.766c1.202,0.319,2.361,0.723,3.5,1.192     h0.021c0.633,0.255,1.244,0.532,1.856,0.809c1.328,0.617,2.615,1.319,3.858,2.085c0.506,0.298,0.991,0.638,1.476,0.958     c1.244,0.872,2.425,1.766,3.542,2.766l0.021,0.021c0.401,0.362,0.801,0.745,1.202,1.128c1.075,1.021,2.066,2.107,2.994,3.277     c0.38,0.447,0.738,0.915,1.075,1.383c0.843,1.128,1.602,2.298,2.298,3.532v0.021c0.337,0.553,0.654,1.128,0.928,1.724     c0.632,1.234,1.181,2.511,1.623,3.83v0.021c0.253,0.66,0.464,1.298,0.654,1.958c0.401,1.298,0.696,2.639,0.928,3.979     c0.126,0.702,0.232,1.404,0.295,2.107C681.2,388.382,681.263,389.638,681.263,390.915z"/>
		</g>
		<path fill="#C68F30" d="M631.205,378.402c3.272-1.607,5.856-2.526,10.046-7.521h10.219v32.493h5.339v7.635h-22.963v-7.635h5.741    v-21.298l-5.741,2.698L631.205,378.402z"/>
	</g>
	<path opacity="0.5" fill="#FFFFFF" d="M479.83,355.735c-18.984,5.731-6.351,39.969-21.091,67.867   C444,451.5,443.957,462.5,454.728,461s28.067-22.521,32.919-59.011S485.901,353.903,479.83,355.735z"/>
	<circle opacity="0.5" fill="#FFFFFF" cx="436.989" cy="469.5" r="9.077"/>
</g>
</svg>