<svg xmlns="http://www.w3.org/2000/svg" xmlns:xlink="http://www.w3.org/1999/xlink" version="1.1" x="0px" y="0px" viewBox="0 0 1170 780" style="enable-background:new 0 0 1170 780;" xml:space="preserve">
<style type="text/css">
	.st0{fill:#2894F5;}
	.st1{fill:#0A4A6F;}
	.st2{fill:#FFB3A6;}
	.st3{fill:#F49E92;}
	.st4{fill:#FFD0C5;}
	.st5{fill:#1E0F00;}
	.st6{fill:#094A73;}
	.st7{fill:#FFFFFF;}
	.st8{fill:#CCE9FF;}
	.st9{clip-path:url(#SVGID_2_);fill:#FFBE55;}
	.st10{fill:#FFBE55;}
</style>
<g id="Layer_2">
</g>
<g id="Object">
	<path class="st0" d="M578.3,455.9h-10.4c-91.7,0-166,74.3-166,166v32.9c0,5.3,4.3,9.6,9.6,9.6h341c9.5,0,17.1-7.7,17.1-17.1v0   C769.6,541.6,683.9,455.9,578.3,455.9z"/>
	<path class="st1" d="M411.5,664.3h341c4.9,0,9.4-2.1,12.5-5.5l-31.9-22.2c0-78.9-63.9-142.8-142.8-142.8h-4.2   c-68.4,0-123.9,55.5-123.9,123.9l-57.8,43.4C406.1,663.1,408.7,664.3,411.5,664.3z"/>
	
		<ellipse transform="matrix(0.7117 -0.7025 0.7025 0.7117 -205.2894 558.1597)" class="st0" cx="577.3" cy="529.2" rx="53.8" ry="67.8"/>
	
		<ellipse transform="matrix(0.7117 -0.7025 0.7025 0.7117 -203.5248 557.4094)" class="st2" cx="577.3" cy="526.6" rx="45.1" ry="56.8"/>
	<path class="st3" d="M565.7,475.3c-21.3,0-36.3,13.7-39.1,33.1c9,25,34.2,44.2,59.4,44.2c21.3,0,36.3-13.7,39.1-33.1   C616,494.5,590.9,475.3,565.7,475.3z"/>
	<g>
		<path class="st2" d="M686.2,424.7l-2.3-2.6l-3.9,29.5l-1.1,27.9l2.3-4.6c4.3-8.8,6.8-18.3,7.4-28.1l0.8-12.5    C689.6,430.8,688.5,427.3,686.2,424.7z"/>
		<path class="st2" d="M660.1,410.6l-5.5,18.1l-21.4,31.9c-8.1,12.3-10.8,27.4-7.5,41.8l1.2,5.2c0.4,1.6,1,3.1,1.8,4.5l65.1,114    c11.9,20.9,32.9,35,56.7,38.1h0c20.5,2.7,37.9-15.1,34.9-35.6l-0.6-3.8c-2.9-19.4-13.1-37-28.4-49.1l-86.6-68.4l13.6-41l2.8-43.9    l-6.5-22.1l0,0c-3.3,5-4.6,11.1-3.6,17.1l1,6.1l-4.8,24.9l3.3-25.1l-5.1-23.9l-0.8,1.9c-2.2,4.8-2.9,10.1-2.1,15.3l-0.3,7.2    l-8,21.5l5-21.1l0.2-18.7l0,0C662.3,406.4,660.8,408.3,660.1,410.6z"/>
		<path class="st4" d="M756.4,575.7l-86.6-68.4l0,0l0,0c0,0,99.6,91.6,113,139.3c2.5-5.4,3.6-11.5,2.6-18l-0.6-3.8    C781.9,605.4,771.8,587.8,756.4,575.7z"/>
	</g>
	<path class="st5" d="M650.8,404.5l-9.3,2.9L615.1,323c-5.8-18.7,4.6-38.6,23.3-44.5l19.9-6.2l23,73.7   C689,370.6,675.3,396.8,650.8,404.5z"/>
	<path class="st4" d="M579.5,512.9L579.5,512.9c-41.2,0-74.5-33.4-74.5-74.5v-85.8c0-39.3,31.8-71.1,71.1-71.1H588   c45,0,81.5,36.5,81.5,81.5v60C669.5,472.6,629.2,512.9,579.5,512.9z"/>
	<path class="st2" d="M588,281.4h-11.9c-23.5,0-44.4,11.4-57.3,29v33c0,41.2,33.4,74.5,74.5,74.5h0c32.1,0,60.2-16.8,76.2-42.1v-13   C669.5,317.9,633,281.4,588,281.4z"/>
	<path class="st5" d="M514.6,416.4l-9.3,2.9l-26.4-84.3c-5.8-18.7,4.6-38.6,23.3-44.5l19.9-6.2l23,73.7   C552.8,382.5,539.2,408.7,514.6,416.4z"/>
	<path class="st6" d="M493.1,343.1c-5.8-18.7,4.6-38.6,23.3-44.5l9.3-2.9l-3.6-11.5l-19.9,6.2c-18.7,5.8-29.1,25.8-23.3,44.5   l26.4,84.3l9.3-2.9c0.4-0.1,0.9-0.3,1.3-0.4L493.1,343.1z"/>
	<path class="st5" d="M684,330.2H507.6v-22c0-32.7,26.5-59.2,59.2-59.2h36.1C647.7,249,684,285.4,684,330.2L684,330.2z"/>
	<path class="st5" d="M536.9,278.2l173.3-32.8v0c4.4,23-10.8,45.2-33.8,49.6l-89.9,17C563.5,316.3,541.3,301.2,536.9,278.2   L536.9,278.2z"/>
	<path class="st6" d="M612.5,263.7l69.3-13.1v0c1.7,9.2-4.3,18.1-13.5,19.8l-36,6.8C623.1,279,614.3,272.9,612.5,263.7L612.5,263.7z   "/>
	<path class="st5" d="M552.5,282.7l93.6-55.1v0c7.3,12.4,3.2,28.4-9.3,35.8L588.3,292C575.8,299.3,559.8,295.2,552.5,282.7   L552.5,282.7z"/>
	<ellipse class="st4" cx="507.2" cy="407.6" rx="19" ry="23.1"/>
	<path class="st2" d="M506.8,394c-5.6,0-10.3,5-11.1,11.6c1.7-1.2,3.6-1.8,5.6-1.8c6.2,0,11.2,6.1,11.2,13.7c0,0.7,0,1.4-0.1,2.1   c3.3-2.4,5.6-6.8,5.6-11.8C518,400.1,513,394,506.8,394z"/>
	<g>
		<path class="st2" d="M499.1,435.2l2.6-2.3v29.8l-2.6,27.8l-1.6-4.9c-3.1-9.3-4.4-19.1-3.7-28.8l0.9-12.5    C494.8,440.8,496.4,437.5,499.1,435.2z"/>
		<path class="st4" d="M526.8,424.6l3.1,18.7l17.1,34.4c6.4,13.3,7.1,28.6,2,42.4l-1.9,5c-0.6,1.5-1.4,2.9-2.3,4.2l-79.6,104.6    c-14.6,19.1-37.2,30.4-61.3,30.4h0c-20.8,0-35.8-19.9-30.1-39.9l1.1-3.7c5.4-18.9,17.8-35,34.7-45l95-56.6l-8.2-42.4l3-43.9    l9.3-21.1l0,0c2.6,5.4,3.1,11.6,1.4,17.4l-1.8,5.9l1.5,25.3v-25.3L518,412l0.6,1.9c1.6,5,1.6,10.4,0.1,15.5l-0.7,7.1l5.2,22.3    l-2.2-21.6l2.2-18.6l0,0C525.1,420.2,526.4,422.3,526.8,424.6z"/>
		<path class="st2" d="M547.2,525.1l1.9-5c5.1-13.8,4.4-29.1-2-42.4l-17.1-34.4l-3.1-18.7c-0.4-2.4-1.7-4.5-3.6-5.9l-0.3,2.7    c0.9,3,3.2,10.9,2.6,17.3c-0.7,8.2,23.1,55.8,11.2,80.4c-11.9,24.6-100.5,148.2-160.4,128.4c5.2,9.8,15.4,16.7,27.7,16.7h0    c24.1,0,46.7-11.2,61.3-30.4l79.6-104.6C545.8,528,546.6,526.6,547.2,525.1z"/>
	</g>
	<path class="st2" d="M515.8,418.3c0.5,4.2,0.8,11-1.5,17.5c0.7,6.7,3.5,17.5,8.8,22.5v0l-5.1-21.8l0.7-7.1c1.5-5,1.5-10.4-0.1-15.5   L518,412L515.8,418.3z"/>
	<path class="st2" d="M505.4,432.9c0,0-0.7,20.7,4.4,26.7l-1.4-24.5l1.8-5.9c1.6-5.5,1.3-11.4-1-16.6   C509,415.3,508.7,427.6,505.4,432.9z"/>
	<path class="st2" d="M619.4,464.9c-11.5,0-22.4,7.8-24.3,17.5c0,0.1,0,0.1,0,0.2c-0.3,1.5,1.7,2.4,2.7,1.2   c4.6-5.5,12.2-9.2,20.2-9.2c7.5,0,13.4,3.3,16.1,8.3c0.7,1.2,2.5,1,2.8-0.4c0,0,0,0,0,0C638.7,472.7,630.9,464.9,619.4,464.9z"/>
	<g>
		<g>
			<path class="st1" d="M556.9,161.8c-2.2-10.8-2-19.3,0.7-25.5c2.6-6.2,8.3-13.9,16.8-23.1c4.5-4.4,7.7-9.2,9.7-14.7     c2-5.4,2.3-11.3,1-17.6c-1.4-6.5-4.2-11.3-8.5-14.5c-4.3-3.1-9.7-4-16.1-2.7c-5.2,1.1-9.2,3.6-12,7.5c-2.8,3.9-3.6,9-2.5,15.3     l-38.2,8.1l-0.4-0.6c-3.6-16.1-1.1-29.3,7.7-39.6c8.8-10.3,21.8-17.3,39-20.9c18.4-3.9,33.9-2.3,46.5,4.7     c12.5,7.1,20.5,18.5,23.8,34.3c2.1,9.7,1,19.2-3,28.6c-4.1,9.4-10,17.3-18,23.8c-4.3,4.3-6.9,8.5-7.8,12.6     c-0.9,4.1-0.7,9.4,0.6,15.8L556.9,161.8z M606.3,201.8l-39,8.3l-6.6-31.4l39-8.3L606.3,201.8z"/>
		</g>
		<g>
			<path class="st1" d="M694.6,225.3l-12.5-17.6l14.1-10l12.5,17.6L694.6,225.3z M703.9,192.2c4.9-3.4,9.1-5.1,12.8-5.1     c3.7,0,8.7,1.1,15.1,3.4c3.1,1.3,6.2,1.9,9.4,1.7c3.1-0.2,6.1-1.3,8.9-3.3c2.9-2.1,4.7-4.5,5.3-7.3c0.6-2.8-0.1-5.7-2.1-8.6     c-1.7-2.3-3.8-3.8-6.3-4.3c-2.5-0.6-5.3,0.1-8.1,2.1l-12.2-17.2l0.2-0.3c7.2-5.2,14.3-6.8,21.3-4.6c7,2.1,13.2,7.1,18.7,14.8     c5.9,8.3,8.4,16.3,7.6,24c-0.8,7.7-4.8,14.1-11.9,19.2c-4.4,3.1-9.3,4.6-14.8,4.6c-5.5,0-10.7-1.3-15.7-3.8     c-3-1.2-5.7-1.6-7.9-1.2c-2.3,0.4-4.8,1.6-7.7,3.7L703.9,192.2z"/>
		</g>
		<g>
			<path class="st1" d="M477,228.4c-4.3-4.1-6.8-7.9-7.6-11.5c-0.7-3.6-0.6-8.7,0.4-15.4c0.7-3.3,0.6-6.5-0.2-9.5     c-0.8-3-2.5-5.7-5-8.1c-2.6-2.5-5.4-3.7-8.2-3.8c-2.9-0.1-5.5,1.2-8,3.8c-2,2.1-3,4.4-3,7c0,2.6,1.2,5.1,3.6,7.6l-14.5,15.4     l-0.4-0.2c-6.6-6-9.5-12.6-8.8-19.9c0.7-7.3,4.3-14.4,10.8-21.3c7-7.4,14.3-11.5,22.1-12.2c7.7-0.7,14.8,1.9,21.1,7.9     c3.9,3.7,6.4,8.2,7.5,13.6c1.1,5.4,0.9,10.8-0.6,16.1c-0.6,3.2-0.4,5.9,0.4,8c0.8,2.1,2.6,4.4,5.1,6.8L477,228.4z M511.2,231     l-14.8,15.7l-12.6-11.9l14.8-15.7L511.2,231z"/>
		</g>
	</g>
	<path class="st7" d="M673.3,509.9c0,0,5.8-5,13.3-1.5s14.8,9.8,15,15.8s-8.1,39-45.4,36l0,0c-4.2-1.4-7.7-4.5-9.7-8.5l-1.2-2.4   c-1-2,0.4-4.4,2.7-4.4c6.7-0.1,18.9-1.8,27.8-11.1C688.8,520.1,673.3,509.9,673.3,509.9z"/>
	<path class="st8" d="M680.9,507.2c-4.5,0.1-7.6,2.7-7.6,2.7s15.5,10.3,2.5,23.8c-9,9.4-21.1,11-27.8,11.1c-2.2,0-3.7,2.4-2.7,4.4   l1.2,2.4c0.4,0.8,0.9,1.6,1.4,2.3c32.6-0.6,40.1-30.5,39.8-36.1C687.6,514.1,684.7,510.3,680.9,507.2z"/>
	<circle class="st8" cx="683.4" cy="546.5" r="2.1"/>
	<circle class="st8" cx="665" cy="556.1" r="2.1"/>
	<circle class="st8" cx="675.4" cy="552.6" r="2.1"/>
	<g id="Desk">
		<g>
			<defs>
				<path id="SVGID_1_" d="M915,663.4H309.4l0,0c44.2,32.2,94.5,50.5,139.3,50.5h1.3l0,0c22,21.6,50.8,34.7,76.1,34.7h241.6      c25.3,0,43.4-13.1,47.8-34.7v0h1.3C861.6,713.8,897,695.6,915,663.4L915,663.4z"/>
			</defs>
			<use xlink:href="#SVGID_1_" style="overflow:visible;fill:#FFBE55;"/>
			<clipPath id="SVGID_2_">
				<use xlink:href="#SVGID_1_" style="overflow:visible;"/>
			</clipPath>
			<path class="st9" d="M915,663.4H309.4l0,0c44.2,32.2,94.5,50.5,139.3,50.5h1.3l0,0c22,21.6,50.8,34.7,76.1,34.7h241.6     c25.3,0,43.4-13.1,47.8-34.7v0h1.3C861.6,713.8,897,695.6,915,663.4L915,663.4z"/>
			<line class="st9" x1="324.6" y1="694.5" x2="905.5" y2="694.5"/>
			<line class="st9" x1="370.8" y1="706" x2="477.2" y2="706"/>
			<line class="st9" x1="497" y1="706" x2="573.2" y2="706"/>
			<line class="st9" x1="315" y1="678.2" x2="497" y2="678.2"/>
			<line class="st9" x1="506" y1="725.1" x2="754.1" y2="725.1"/>
			<line class="st9" x1="664.6" y1="738.3" x2="769.9" y2="738.3"/>
			<line class="st9" x1="789.6" y1="674.6" x2="924.1" y2="674.6"/>
			<line class="st9" x1="754.1" y1="674.6" x2="774.8" y2="674.6"/>
			<line class="st9" x1="821.4" y1="684.3" x2="919.3" y2="684.3"/>
			<line class="st9" x1="515" y1="678.2" x2="538.1" y2="678.2"/>
			<line class="st9" x1="477.2" y1="738.3" x2="584.7" y2="738.3"/>
		</g>
		<line class="st10" x1="281" y1="663.8" x2="974" y2="663.8"/>
	</g>
</g>
</svg>