<svg xmlns="http://www.w3.org/2000/svg" xmlns:xlink="http://www.w3.org/1999/xlink" version="1.1" x="0px" y="0px" viewBox="0 0 1920 1080" style="enable-background:new 0 0 1920 1080;" xml:space="preserve">
<style type="text/css">
	.st0{opacity:0.11;fill:#2A94F4;}
	.st1{opacity:0.11;fill:#5ECAF2;}
	.st2{fill:#FCD2B1;}
	.st3{fill:#0B4870;}
	.st4{fill:#FFE3CA;}
	.st5{fill:#0E538C;}
	.st6{fill:#2A94F4;}
	.st7{fill:#FFBE55;}
	.st8{opacity:0.5;fill:#FFBE55;}
	.st9{fill:#FFB127;}
</style>
<g id="Background">
	<path class="st0" d="M699.2,1008.1c-121.7-128.9-68.6-290.4,76.6-463.5s16.2-143.8,21.1-304.6c8.4-275.4,362-330.3,400.3-77.4   c38.3,252.9,12.5,317.2-78.3,450.2s197.8,8.8,197.7,255.8C1316.6,994.2,820.8,1136.9,699.2,1008.1z"/>
	<path class="st1" d="M1183,1067.6c0,6.1-82.2,11.6-183.8,12.3c-101.5,0.7-183.9-3.7-183.9-9.8c0-6.1,82.2-11.6,183.8-12.3   C1100.6,1057.2,1182.9,1061.5,1183,1067.6z"/>
</g>
<g id="Character">
	<g>
		<g>
			<g>
				<path class="st2" d="M920,993.4c0,0-1.1,17.3,1.1,30.6c3.1,9,1.8,12,1.8,12l-35.5,2.3c0,0,14.3-10,7.8-45.9      C888.7,956.3,920,993.4,920,993.4z"/>
				<path class="st3" d="M922,1026.7c0,0-14.4,8-30.1,6c-16.5,10.9-28.5,16-44.3,20.4c-15.8,4.5-10.9,17.3,16.3,11.3      c27.2-6,46.6-7.6,52.8-8c6.2-0.3,16.1-1,15.9-5.3C932.5,1046.8,926.8,1024.5,922,1026.7z"/>
				<g>
					<path class="st2" d="M1100.7,967.3c0,0,6.4,16.1,14.1,27.1c6.6,6.8,6.7,10,6.7,10l-31.1,17.3c0,0,8.7-15.1-12.7-44.9       C1056.5,947.2,1100.7,967.3,1100.7,967.3z"/>
					<path class="st3" d="M1116.8,996.5c0,0-9.6,13.4-24.6,18.3c-10.2,16.9-18.9,26.6-31.2,37.4c-12.4,10.8-2.5,20.3,19.6,3.2       c22-17.1,38.9-26.9,44.3-29.8c5.5-2.9,14.1-7.8,12.1-11.6C1134.8,1010.2,1120.2,992.5,1116.8,996.5z"/>
				</g>
				<path class="st4" d="M865.4,302.7c0,0,10.3-18.5,15-26.1c4.8-7.7,25.6,11.2,25.6,11.2s1.9,8.2-8.1,13.6      c-10.1,5.4-16.2,5.3-18.2,12.1c-2.1,6.8-14.4-2.6-14.4-2.6L865.4,302.7z"/>
				<path class="st4" d="M1007.3,307.1c0,0-9.4-20.1-13.8-28c-4.4-7.9-26,10-26,10s-2.3,8.1,7.5,14c9.8,5.8,15.9,6,17.7,12.9      c1.8,6.9,14.5-2,14.5-2L1007.3,307.1z"/>
				<path class="st4" d="M891.2,294.7c0,0,6.8-1.6,8.1-4.5c1.3-2.9,3.1-7.5,6.3-6.9c4.1,0.8,0.6,10.2-1.4,12.6"/>
				<path class="st4" d="M982,296.7c0,0-6.7-1.9-7.9-4.9c-1.2-3-2.8-7.6-6-7.2c-4.2,0.6-0.3,11.4,1.6,13.8"/>
				<path class="st5" d="M935.3,692c0,0,31.2,113,49.9,143c18.7,30,101.1,160.5,101.1,160.5s14.8-8.2,23.2-12.2      c-41.1-105.3-53.1-134.9-78.8-175.8c-15-59.6-5.3-139.7-42.4-190.9c-11.3-15.6-62.8,13.9-62.8,13.9L935.3,692z"/>
				<path class="st5" d="M883,626.5c0,0-4.6,161.7-4.6,192.4c0,30.6,15.4,194.9,15.4,194.9s11.1,5.3,29.5-4.5      c0.6-37.8,7.1-93.8,1.7-182.3c19.7-84.2,31.6-167.1,31.6-167.1l-1.9-43.9L883,626.5z"/>
				<path class="st3" d="M898.9,402.7c0,0-17.6,15.5-10.7,48.8c2.3,9.8-10.8,24.3-19.6,31.7c-8.8,7.5-16.4,24.4-8,39.5      c8.3,15.1,10.4,16.2,6.5,30.9c-3.9,14.7-4.1,45.3,37.4,39.1c41.5-6.2,41.1-107.8,41.1-107.8l-5.5-44.1L898.9,402.7z"/>
				<path class="st4" d="M961.1,460.3c0,0-1.8,1-4.7,2.3c0,1.5,0.1,2.9,0,4.3c0.1,8.6,0,14.2,0,14.2c-6.6,11-18.9,11.2-24.6,8.5      c-0.6-0.3-1.1-0.6-1.5-0.9c-2.2-1.6-3.2-4.4-2.7-7c0.8-4.3,0.9-8.3,0.8-12c-5.7,0.2-11.6-0.5-17.2-2.9      c-22-9.2-9.4-69.2-9.4-69.2s37.4-15.9,49.2-0.5C962.6,412.6,961.1,460.3,961.1,460.3z"/>
				<path class="st3" d="M939.4,370.8c-10.2,1.7-21.8,9-26.8,18.1c-2.9,5.2,14.2,9.8,14.4,17.4c0.4,14.8,17.2,20.6,30.5,26.1      c3.5,1.4,8.2,7.8,0.1,15.5c0,0-11.8,10.9-10.4,24.3c1.2,11.3,22,9.3,22,9.3s-29.6,89.4-25.9,102c2,6.7,59.6,41.6,99.1,8.5      c16.2-13.6,18.3-39.1,4.5-55.2c-10.5-12.2-10.4-20.5-9.6-23.6c10.7-38.4-8.8-64.6-30.8-75.3c-8.9-4.3-15-12.8-15.5-22.7      c-0.6-10.5-3.3-23.4-12.4-31.9C965.6,371.2,951.5,368.7,939.4,370.8z"/>
				<path class="st3" d="M888.5,379.8c-8.4,6.8-8.1,19.8,0.9,25.8c9,6,23.6,9.6,45.6-1.6c26.2-13.3,18.2-34,0.7-32.4      C902.5,382.9,898.5,371.7,888.5,379.8z"/>
				<path class="st6" d="M927.4,482.4c0,0,1,10.6,15.4,8.3c7.5-2.2,8.9-7.4,10.3-11.2c5.9,0.4,20.4,0.6,32.5-16.2      c9.3-13,23.1-35.4,29.6-47.1c2.7-4.8,3.4-10.4,2-15.7c-6.5-24.7-30.6-85.9-30.6-85.9l23.9-8.7c0,0,24.4,60.3,36.7,90.9      c4,10,3.6,21.1-1.2,30.7c-13,26-38.1,70.4-49.9,93.2c-3.7,13.7,15.5,110.6,15.5,110.6s-52.8,32.5-128.8,8.6      c-0.1-29.1,3.3-82.5,2.5-112.5c-0.8-30.7-16.8-27.8-57.7-112.1c-3.9-8-5-17.1-3.1-25.9c4.2-19.5,18-52.3,40.8-86.8      c16.2,7.3,18.8,9.9,18.8,9.9s-21.4,53.7-28.9,75.9c-1.5,4.6-1.1,9.6,1.2,13.9C868.7,425.1,905.9,482.2,927.4,482.4z"/>
			</g>
		</g>
		<g>
			<path class="st7" d="M947.7,205.4l0.5-83.8l-18.7-0.1l-0.4,76.1l0,0c0,0,0,0.2,0,0.4l0,6.2c-0.4,10.8-3.1,31.3-17.6,31.2     l53.5,0.3C950.9,235.6,948.1,216.5,947.7,205.4z"/>
			<g>
				<g>
					<path class="st7" d="M857.8,35.7c4.1,2.2,7.9,5.2,10.9,8.9c7.8,9.5,9.3,21.4,3.9,32c-2.1,4.2-5.6,7.3-9.8,8.8       c-1.9,0.8-4,1.2-6.2,1.2c-7.2,0.2-14.4-3.5-17.8-9.2c-2.8-4.8-2.8-10.4,0.1-15.5c1.9-3.3,6.2-4.5,9.5-2.5       c3.3,1.9,4.5,6.2,2.5,9.5c-0.5,0.8-0.4,1.1-0.2,1.4c0.7,1.2,3.1,2.4,5.4,2.4c2.5-0.1,3.5-1.5,4-2.5c0.1-0.2,0.2-0.3,0.2-0.5       c3.1-6.5,0.7-11.9-1.6-15.1c-0.3-0.4-0.6-0.8-0.9-1.1c-5.6-6.8-15.4-10.1-23.2-7.8c-9,2.7-14.9,12.5-16.5,27.6       c-3.3,29.1,17.2,49,29.7,58.2c13.6,10,27.1,15.1,36.3,17c5.2,1.1,9,1.2,10.6,0.5c3.5-1.5,7.6,0.1,9.1,3.6       c1,2.1,0.7,4.5-0.3,6.3c-0.7,1.2-1.8,2.3-3.2,2.9c-1.6,0.7-3.5,1.2-5.6,1.4c-13.7,1.5-36.6-6.7-55.1-20.4       c-25.8-19-38.3-44.1-35.3-70.9c3.2-28.4,17.9-36.9,26.4-39.4C839.6,29.8,849.4,31.2,857.8,35.7z"/>
				</g>
				<path class="st8" d="M904,152.6c1,2.1,0.7,4.5-0.3,6.3c-0.7,1.2-1.8,2.3-3.2,2.9c-1.6,0.7-3.5,1.2-5.6,1.4      c-3.9-4.4-7.4-9.3-10.6-14.6c5.2,1.1,9,1.2,10.6,0.5C898.4,147.5,902.5,149.1,904,152.6z"/>
			</g>
			<g>
				<g>
					<path class="st7" d="M1017.2,35.6c-4.2,2.1-8,5-11.2,8.5c-8.1,9.2-10,21.1-4.9,31.9c2,4.3,5.3,7.4,9.5,9.1       c1.9,0.8,4,1.3,6.1,1.4c7.2,0.4,14.5-3.1,18.1-8.6c3-4.7,3.1-10.3,0.3-15.5c-1.8-3.4-6-4.6-9.4-2.8c-3.3,1.8-4.6,6-2.8,9.4       c0.5,0.9,0.3,1.1,0.2,1.4c-0.8,1.1-3.2,2.3-5.5,2.2c-2.5-0.2-3.5-1.6-4-2.7c-0.1-0.2-0.2-0.3-0.2-0.5       c-2.9-6.6-0.3-11.9,2.1-15.1c0.3-0.4,0.6-0.7,0.9-1.1c5.8-6.6,15.7-9.6,23.4-7.1c8.9,3,14.5,12.9,15.7,28.1       c2.4,29.2-18.7,48.4-31.5,57.2c-13.9,9.6-27.6,14.3-36.8,15.9c-5.3,1-9.1,0.9-10.6,0.2c-3.5-1.7-7.6-0.2-9.2,3.3       c-1,2.1-0.9,4.4,0.1,6.3c0.7,1.3,1.7,2.3,3.1,2.9c1.6,0.8,3.5,1.3,5.6,1.5c13.6,1.9,36.8-5.6,55.7-18.7       c26.3-18.2,39.6-43,37.4-69.8c-2.4-28.5-16.8-37.4-25.2-40.2C1035.6,30.3,1025.7,31.3,1017.2,35.6z"/>
				</g>
				<path class="st8" d="M967.5,151c-1,2.1-0.9,4.4,0.1,6.3c0.7,1.3,1.7,2.3,3.1,2.9c1.6,0.8,3.5,1.3,5.6,1.5      c4.1-4.3,7.7-9.1,11-14.2c-5.3,1-9.1,0.9-10.6,0.2C973.3,146.1,969.1,147.6,967.5,151z"/>
			</g>
			<path class="st7" d="M1008.9,25.6c0,0,0,5-0.4,13.2c-1.7,32.5-10.6,115.7-58.3,139.4l-2.3,2c-2.9,2.5-6.7,3.8-10.6,3.6l-2.4-0.1     c-3.4-0.1-6.6-1.3-9.2-3.4l-2.7-2.2c-46.8-23.9-55.2-105.4-56.7-138.8c-0.4-9-0.3-14.5-0.3-14.5c0-8,9.4-10.1,9.4-10.1l124,0.7     C999.6,15.4,1009,17.6,1008.9,25.6z"/>
			<path class="st7" d="M1001.6,36.2l-128.3-0.7c-7.9,0-14.2-6.5-14.2-14.4l0,0c0-7.9,6.5-14.2,14.4-14.2l128.3,0.7     c7.9,0,14.2,6.5,14.2,14.4l0,0C1016,29.9,1009.5,36.3,1001.6,36.2z"/>
			<path class="st7" d="M1001.6,36.2l-128.3-0.7c-7.9,0-14.2-6.5-14.2-14.4l0,0c0-7.9,6.5-14.2,14.4-14.2l128.3,0.7     c7.9,0,14.2,6.5,14.2,14.4l0,0C1016,29.9,1009.5,36.3,1001.6,36.2z"/>
			<path class="st7" d="M1001.6,36.2l-128.3-0.7c-7.9,0-14.2-6.5-14.2-14.4l0,0c0-7.9,6.5-14.2,14.4-14.2l128.3,0.7     c7.9,0,14.2,6.5,14.2,14.4l0,0C1016,29.9,1009.5,36.3,1001.6,36.2z"/>
			<path class="st5" d="M997.6,306.9l-119.7-0.7l0.3-57.1c0-3.7,3-6.6,6.7-6.6l106.4,0.6c3.7,0,6.6,3,6.6,6.7L997.6,306.9z"/>
			<path class="st9" d="M1004.6,307l-133.7-0.8c-0.6,0-1.1-0.5-1-1.1l0-8.1c0-0.6,0.5-1.1,1.1-1.1l133.7,0.8c0.6,0,1.1,0.5,1.1,1.1     l0,8.1C1005.7,306.5,1005.2,307,1004.6,307z"/>
			<path class="st3" d="M1004.6,307l-133.7-0.8c-0.6,0-1.1-0.5-1-1.1l0-8.1c0-0.6,0.5-1.1,1.1-1.1l133.7,0.8c0.6,0,1.1,0.5,1.1,1.1     l0,8.1C1005.7,306.5,1005.2,307,1004.6,307z"/>
			<path class="st7" d="M967.3,243l-58.4-0.3c-0.4,0-0.8-0.3-0.8-0.8l0-5.8c0-0.4,0.3-0.8,0.8-0.8l58.4,0.3c0.4,0,0.8,0.3,0.8,0.8     l0,5.8C968,242.7,967.7,243,967.3,243z"/>
			<path class="st8" d="M967.3,243l-58.4-0.3c-0.4,0-0.8-0.3-0.8-0.8l0-5.8c0-0.4,0.3-0.8,0.8-0.8l58.4,0.3c0.4,0,0.8,0.3,0.8,0.8     l0,5.8C968,242.7,967.7,243,967.3,243z"/>
		</g>
	</g>
</g>
</svg>