<svg xmlns="http://www.w3.org/2000/svg" xmlns:xlink="http://www.w3.org/1999/xlink" version="1.1" id="Layer_1" x="0px" y="0px" viewBox="0 0 500 500" style="enable-background:new 0 0 500 500;" xml:space="preserve">
<style type="text/css">
	.st0{fill:#F2F2F2;}
	.st1{fill:#FFBD55;}
	.st2{fill:#DEDEDE;}
	.st3{fill:#F2AB44;}
	.st4{fill:#D3D3D3;}
	.st5{fill:#FFC878;}
	.st6{fill:#FFFFFF;}
	.st7{fill:#D4D4D4;}
</style>
<path class="st0" d="M278.6,308.5c-96.3,0-226.9,2.4-222.3,40.4s74,42.7,56,66c-18,23.3,28,59.3,114,55.3s151.3-14.3,154-47.7  c1.7-20.9,27.9-31.6,45.3-42.9c24.7-16,30-48-12-60S278.6,308.5,278.6,308.5z"/>
<g id="BACKGROUND">
</g>
<g id="OBJECTS">
	<polygon class="st1" points="401.9,359 222.8,422.5 222.8,258 401.9,194.5  "/>
	<polygon class="st0" points="328.9,384.8 295.8,396.6 295.8,232.1 328.9,220.4  "/>
	<polygon class="st2" points="401.9,194.5 401.9,217.7 222.7,281.3 222.7,258  "/>
	<polygon class="st1" points="432,183.8 222.8,258 222.8,180.2 432,106  "/>
	<polygon class="st0" points="346.7,214.1 308,227.8 308,149.9 346.7,136.2  "/>
	<polygon class="st3" points="106.2,359 222.8,422.5 222.8,258 106.2,194.5  "/>
	<polygon class="st4" points="153.7,384.8 175.2,396.6 175.2,232.1 153.7,220.4  "/>
	<polygon class="st2" points="222.7,258 222.7,281.7 106.2,218.2 106.2,194.5  "/>
	<polygon class="st3" points="86.5,183.8 222.8,258 222.8,180.2 86.5,106  "/>
	<polygon class="st4" points="142.1,214.1 167.2,227.8 167.2,149.9 142.1,136.2  "/>
	<polygon class="st5" points="432,106 346.7,136.2 308,149.9 222.8,180.2 167.3,149.9 142,136.2 86.5,106 175.9,78.6 175.9,78.6    210.5,68 261.3,52.5 314.7,69.2 350.5,80.4  "/>
	<polygon class="st6" points="346.7,136.2 308,149.9 249.9,118.6 223.8,104.5 175.9,78.6 210.5,68 257.3,91.5 257.3,91.5 285,105.3     "/>
	<polygon class="st6" points="350.5,80.4 285,105.3 249.9,118.6 167.3,149.9 142,136.2 223.8,104.5 257.3,91.5 314.7,69.2  "/>
	<path class="st7" d="M246.3,110.2c0,0,8.7-79.8,47.4-69.8s0,49.7,0,49.7s6.8-31-6.8-32.4C273.2,56.4,253.1,84.6,246.3,110.2z"/>
	<path class="st7" d="M323.4,117l-23.3,16.4c0,0-34.7-6.8-53.8-23.3l21.4-9.9C267.7,100.3,296.4,115.8,323.4,117z"/>
	<path class="st0" d="M246.3,110.2c0,0,84.8-54.7,100.4-26.5s2.7,38.3-6.4,41.5c-9.1,3.2-40.2,8.2-40.2,8.2s14.5-31.4-1.7-39   c-3.6-1.7-7.9-1.5-11.7,0L246.3,110.2z"/>
	<g>
		<g>
			<path class="st0" d="M169.2,117l23.3,16.4c0,0,34.7-6.8,53.8-23.3l-21.4-9.9C224.8,100.3,196.1,115.8,169.2,117z"/>
		</g>
		<path class="st0" d="M246.3,110.2c0,0-8.7-79.8-47.4-69.8s0,49.7,0,49.7s-6.8-31,6.8-32.4C219.4,56.4,239.4,84.6,246.3,110.2z"/>
	</g>
	<path class="st7" d="M246.3,110.2c0,0-84.8-54.7-100.4-26.5c-15.5,28.3-2.7,38.3,6.4,41.5c9.1,3.2,40.2,8.2,40.2,8.2   s-14.5-31.4,1.7-39c3.6-1.7,7.9-1.5,11.7,0L246.3,110.2z"/>
</g>
<g id="DESIGNED_BY_FREEPIK">
</g>
</svg>