<svg xmlns="http://www.w3.org/2000/svg" xmlns:xlink="http://www.w3.org/1999/xlink" version="1.1" id="Layer_1" x="0px" y="0px" viewBox="0 0 823 823" style="enable-background:new 0 0 823 823;" xml:space="preserve">
<style type="text/css">
	.st0{opacity:0.24;clip-path:url(#SVGID_2_);fill:#FFBE55;}
	.st1{clip-path:url(#SVGID_2_);}
	.st2{fill:#FFBE55;}
	.st3{fill:#F9F9F9;}
	.st4{fill:#2A94F4;}
	.st5{fill:#0E538C;}
	.st6{fill:#0B4870;}
	.st7{fill:#CCE9FF;}
	.st8{fill:#FFFFFF;}
	.st9{fill:#FCDCB5;}
	.st10{fill:#FCD2B1;}
	.st11{fill:#FFE3CA;}
	.st12{fill:#FF957E;}
	.st13{fill:#F2F2F2;}
	.st14{fill:#D3D3D3;}
</style>
<g>
	<g>
		<defs>
			<path id="SVGID_1_" d="M735,608.6c50.9-91.1,30.4-212.3-60.2-282.9c-49.6-38.6-114.7-51-163.4-91.3     c-54.8-45.3-108.8-100.3-180.2-117.5c-75.9-18.3-159.5,8.8-212.3,65.8C54.5,252,61,349.5,89.8,434.4     C162.9,649.6,450.4,819.6,661,686.1C693.5,665.5,718.2,638.7,735,608.6z"/>
		</defs>
		<clipPath id="SVGID_2_">
			<use xlink:href="#SVGID_1_" style="overflow:visible;"/>
		</clipPath>
		<circle class="st0" cx="387" cy="376" r="425"/>
		<g class="st1">
			<path class="st2" d="M241.6,495.8c-59.5-4.2-118.7-8.3-178-11.8c1.7,2.1,3.5,4.1,5.3,6.2c42.3,2.5,84.4,5,126.8,8.2     c63.7,4.9,127.6,8.7,190.6,15.1c57.2,5.8,113.8,11.8,171.6,16.2c45.5,3.5,91.1,5.5,136.8,7.6c3.1-1.7,6.1-3.5,9-5.3     c-38.1-1.8-76.3-3.5-114.4-5.9C472.3,518.5,358.6,504,241.6,495.8z"/>
			<path class="st2" d="M590.9,550.6c-58.9-5-118.3-8.8-177.1-14.2c-54.1-4.9-107-11.3-161.4-15.7c-53.6-4.3-107.7-7.7-161.8-10.8     c2.8,2.2,5.8,4.4,9,6.6c35.2,2.1,70.3,4.3,105.4,6.6c63.8,4.3,125.3,10.8,188,17.2c59.1,6.1,119.6,9.9,179.4,14.6     c22.8,1.8,45.5,3.7,68.1,5.6c4.5-1.4,8.9-3,13.2-4.5C632.7,554.2,611.8,552.4,590.9,550.6z"/>
			<path class="st2" d="M218.3,309.5c123.7,10.7,245.7,23.1,368.9,35c62.6,6,125.6,10.7,188.9,14.8c-0.4-2-0.7-4-1.2-6.1     c-66.7-4.4-133.1-9.3-199.3-15.7c-66-6.3-131.7-13.2-197.4-20.1c-60.9-6.4-123.1-10.3-184.5-15.9c-42-3.8-83.8-8.1-125.6-12.5     c-0.9,1.4-2.2,3.5-3.7,6.1C115.7,300.1,167.1,305.1,218.3,309.5z"/>
			<path class="st2" d="M251.7,562.1c-18.9-0.7-37.5-2-56-3.5c11.5,3.1,23.7,6,36.8,8.6c52.4,2.7,104,4.5,156.4,8.5     c36.5,2.7,72.9,5.7,109.3,8.8c11.7-0.6,23.8-1.6,36.3-2.9C440.8,573.3,346.6,565.6,251.7,562.1z"/>
			<path class="st2" d="M203.1,447.1c-55.1-5.8-110.2-11.2-165.5-16c0.5,2.1,1,4.2,1.6,6.3c53.1,4.6,106,9.6,159,15.2     c182.8,19.1,365.3,31.8,550,41c1.5-1.8,3-3.7,4.4-5.6C568.1,478.9,385.7,466.3,203.1,447.1z"/>
			<path class="st2" d="M254.9,356.1c-68.9-8.5-138-17.1-207.5-25.1c-0.7,1.8-1.4,3.7-2,5.6c63.3,7.4,126.3,15.3,188.9,23     c113.8,14,227.4,28.8,344,38.4c61.4,5.1,123.7,6.5,185.5,10.5c5.3,0.3,10.6,0.7,15.9,1.1c0.1-1.9,0.3-3.8,0.3-5.7     c-51.7-3.2-103.4-5.5-155.3-8.4C499.5,388.3,375.6,371.1,254.9,356.1z"/>
			<path class="st2" d="M589.3,456.3c58.7,3.4,117.2,7.5,175.7,11.4c1-1.9,1.9-3.8,2.7-5.8c-54.1-3.6-108.2-7.4-162.5-10.6     c-123.1-7.2-242.5-17.8-364.1-28.6c-68.9-6.1-137.9-11.9-206.9-17.6c0.1,2,0.2,3.9,0.3,5.9c72.6,6.1,145.3,12.1,217.7,18.6     C365,439.6,475.2,449.6,589.3,456.3z"/>
			<path class="st2" d="M482.8,494.6c-29.9-2.8-61.4-2.1-90.9-5.7c-55.3-6.7-110.1-10.3-167.3-13.4c-58.6-3.2-116.9-7.7-175-12.6     c1.1,2,2.3,4.1,3.5,6.1c46.8,4.6,94.7,9.1,142,11c64.5,2.6,129.5,6.8,192,14.4c25.9,3.2,52.4,3.3,79,4.9     c31.9,1.8,63.6,4.5,95.7,6.2c55.5,2.9,110.7,6.1,165.9,9.2c2.2-1.9,4.3-3.7,6.4-5.7c-51.7-2.9-103.3-5.9-155.2-8.5     C546.9,498.8,514.3,497.6,482.8,494.6z"/>
			<path class="st2" d="M410.5,344.9c-68.7-4.3-134.4-13-201.9-19.7c-50.7-5.1-101.7-9.6-152.7-14c-0.9,1.9-1.8,3.8-2.7,5.8     c50.3,4.3,100.6,8.7,150.6,13.6c53.1,5.2,106,13.1,159.6,17c61.1,4.5,122.3,8.5,183.5,12.9c78.4,5.5,154.9,14.1,232.3,21     c-0.2-1.9-0.4-3.9-0.6-5.9c-67.1-6-133.7-13.2-201.4-18.7C522.1,352.4,466,348.4,410.5,344.9z"/>
			<path class="st2" d="M772.2,450.3c0.6-1.9,1.3-3.8,1.8-5.7c-196.2-10.4-391.9-26.8-582.8-48.3c-51.9-5.9-103.9-11.1-156-16.1     c-0.2,1.7-0.4,3.5-0.6,5.3c40.2,4,80.2,8.3,119.8,12.7C357.5,420.9,564,439.1,772.2,450.3z"/>
			<path class="st2" d="M380.8,392.1c63.6,3.9,126.5,10.7,188.5,17.7c69.1,7.8,138.7,12.7,208.8,16.4c0.3-1.9,0.5-4,0.7-6     c-73.7-3.9-146.6-9.3-219.9-17.6c-47.9-5.4-96.3-10.1-145.2-14c-59.9-4.8-120.5-6.1-180.6-10.2c-65.3-4.5-130.1-11.2-194.5-18.3     c-0.4,1.9-0.8,3.8-1.2,5.7c54,6,108.2,11.6,162.8,15.9C260.4,386.5,320.5,388.4,380.8,392.1z"/>
			<path class="st2" d="M230.4,108.4c123.3,14.7,244.9,31.1,367.6,46.9c62.4,8.1,125.2,14.8,188.3,20.9c-0.3-2-0.6-4.1-1-6.1     c-66.5-6.5-132.7-13.7-198.7-22.2c-65.8-8.5-131.2-17.5-196.7-26.5c-60.7-8.3-122.7-14.3-183.9-21.9     C164.2,94.4,122.5,88.8,80.9,83c-0.9,1.4-2.3,3.4-3.8,5.9C128.2,95.8,179.4,102.4,230.4,108.4z"/>
			<path class="st2" d="M210.8,245.5c-54.9-7.6-109.8-14.7-164.9-21.3c0.4,2.1,0.9,4.2,1.4,6.3c52.9,6.3,105.6,13.1,158.4,20.3     c182.1,25,364.1,43.7,548.4,58.8c1.6-1.8,3.1-3.6,4.6-5.5C574.5,289.1,392.6,270.6,210.8,245.5z"/>
			<path class="st2" d="M265.5,156.2c-68.6-10.8-137.4-21.6-206.6-31.8c-0.7,1.8-1.5,3.6-2.2,5.5c63,9.4,125.7,19.4,188,29.1     C358,176.7,471,195.2,587.4,208.6c61.2,7,123.5,10.5,185.1,16.5c5.3,0.5,10.6,1.1,15.9,1.6c0.2-1.9,0.4-3.8,0.5-5.7     c-51.6-4.9-103.2-8.8-155-13.5C508.9,196.3,385.6,175.1,265.5,156.2z"/>
			<path class="st2" d="M596.4,267.1c58.6,5.3,116.9,11.3,175.2,17.1c1-1.9,2-3.8,2.9-5.7c-54-5.3-107.9-10.9-162-15.8     c-122.8-11.2-241.8-25.6-363-40.4C180.9,214,112.1,206,43.3,198c0,2,0.1,4,0.1,5.9c72.4,8.4,144.8,16.8,217,25.6     C372.8,243.2,482.6,256.8,596.4,267.1z"/>
			<path class="st2" d="M488.7,302c-29.8-3.7-61.3-4.1-90.6-8.6c-55.1-8.5-109.7-13.9-166.7-18.8c-58.5-5.1-116.6-11.5-174.5-18.3     c1,2.1,2.1,4.1,3.3,6.2c46.6,6.1,94.3,12.2,141.6,15.6c64.4,4.7,129.2,11,191.4,20.6c25.8,4,52.2,5,78.8,7.4     c31.8,2.8,63.4,6.5,95.4,9.2c55.3,4.7,110.4,9.7,165.6,14.6c2.2-1.8,4.4-3.6,6.5-5.5c-51.5-4.6-103.1-9.2-154.9-13.6     C552.7,308.3,520.1,306,488.7,302z"/>
			<path class="st2" d="M421.4,150c-68.5-6.5-133.9-17.3-201.2-26.3c-50.5-6.7-101.4-12.9-152.2-18.9c-1,1.8-1.9,3.7-2.9,5.7     c50.1,6,100.3,12,150.1,18.5c52.9,6.9,105.5,16.5,158.9,22.2c60.9,6.4,121.9,12.5,183,18.8c78.2,8.1,154.4,19.1,231.5,28.5     c-0.1-1.9-0.3-3.9-0.4-5.9c-66.9-8.2-133.2-17.5-200.7-25.3C532.6,161.2,476.7,155.3,421.4,150z"/>
			<path class="st2" d="M779.4,267.1c0.7-1.9,1.4-3.7,2-5.7c-195.8-16.7-390.8-39.5-580.9-67.2C148.8,186.7,97,179.7,45.1,173     c-0.3,1.7-0.5,3.5-0.7,5.3c40.1,5.3,79.9,10.9,119.3,16.6C365.9,224.3,571.7,249.1,779.4,267.1z"/>
			<path class="st2" d="M390.2,196.3c63.5,6,126.1,14.8,187.8,23.8c68.8,10,138.2,17.2,208.1,23.1c0.4-1.9,0.6-4,0.9-6     c-73.5-6.3-146.2-14.1-219.2-24.7c-47.7-7-95.9-13.2-144.6-18.7c-59.7-6.7-120.2-10-180.2-16.1c-65.1-6.6-129.6-15.4-193.8-24.6     c-0.5,1.9-1,3.8-1.4,5.7c53.8,7.7,107.7,15.1,162.2,21.2C270,186.7,330,190.6,390.2,196.3z"/>
		</g>
	</g>
	<path class="st2" d="M730.8,529.5c-10.3-15.4,0.5-27.6,18.3-51c20.1-26.4,2.5-20.5-21.8-13.2c-46.4,13.9,31-51.7,21.6-75.7   c-9.5-24-40,15.6-21.6-42.2c18.4-57.8,5.9-72.9-10.6-76.2c-16.5-3.4-6.9,77.9-23,52.3c-16-25.7-51.8-13.7-19.4,37.2   c32.4,50.9,19.4,103.1,7.8,85.5c-1.3-1.9-21-72.1-46.1-46.2c-25.1,25.9,28.2,71.6,49.8,128.7c21.7,57.1,15,54.6,9.5,51.3   c-5.5-3.3-34-77.8-49.2-38.2c-10.1,26.3,11.7,20.9,46.5,107.8c0,0,1.1,110,24.1-4.9c1-4.8,1.9-9.4,2.8-13.9   c23.6-60.6,31.7-73.6,43.9-106.5C774.5,494.4,749.6,505.1,730.8,529.5z"/>
	<path class="st3" d="M745.3,532.5c-0.5-0.2-1.1,0.1-1.3,0.6c-0.2,0.5-16.8,45.9-25.1,63.7c0.1-1.2,0.1-2.3,0.2-3.5   c0.9-22.8-1.8-46.1-8-69.3c7.4-4.3,20.8-38.7,22.4-42.8c0.2-0.5-0.1-1.1-0.6-1.3c-0.5-0.2-1.1,0.1-1.3,0.6   c-5.7,14.8-16,38.1-21,41.5c-1-3.6-2.1-7.1-3.2-10.7c0,0,0,0,0-0.1c-0.4-1.1-0.7-2.2-1.1-3.3c-11.3-33.4-5-43.7,1.2-53.6   c4.5-7.3,9.1-14.9,7.1-30.6c17.7-10.4,25.1-31.2,25.4-32.1c0.2-0.5-0.1-1.1-0.6-1.3c-0.5-0.2-1.1,0.1-1.3,0.6   c-0.1,0.2-7.2,20.4-23.7,30.6c-0.3-1.8-0.7-3.8-1.2-5.8c-7-29.5-3.2-48.7,1.9-75.3c2.8-14.7,6.1-31.4,8.2-53.2   c0.1-0.9-0.5-1.6-1.4-1.7c-0.8-0.1-1.6,0.5-1.7,1.4c-2.1,21.6-5.3,38.2-8.1,52.9c-2.7,13.9-5,25.9-5.6,38.3   c-20-21.5-30.8-53.5-30.9-53.8c-0.2-0.5-0.8-0.8-1.3-0.7c-0.5,0.2-0.8,0.8-0.7,1.3c0.1,0.3,11.5,34.2,32.7,56   c-0.3,10.8,0.7,22.1,3.9,35.4c4.7,20.1-0.1,27.9-5.2,36.2c-6.5,10.6-13.3,21.5-1.5,56.3c0,0.1,0,0.1,0.1,0.2   c-28.2-15.7-57.6-93.4-57.9-94.2c-0.2-0.5-0.8-0.8-1.3-0.6c-0.5,0.2-0.8,0.8-0.6,1.3c1.3,3.4,31.2,82.7,60.8,96.3   c16.6,50.9,12.8,92.2,6.7,118c-8.5-23.9-48.8-75.2-50.6-77.6c-0.4-0.5-1-0.5-1.5-0.2c-0.5,0.4-0.5,1-0.2,1.5   c0.5,0.6,46.2,58.8,51.3,80.2c-2.5,9.7-5.3,16.9-7.1,21c-0.3,0.8,0,1.7,0.8,2.1c0.2,0.1,0.4,0.1,0.6,0.1c0.6,0,1.2-0.4,1.4-0.9   c4.9-11.3,10.8-29.4,12.9-54c7-12.8,26.5-66.1,27.4-68.4C746.1,533.2,745.9,532.7,745.3,532.5z"/>
	<g>
		<path class="st4" d="M676,632.1c0,0-19.5,77.3,27.3,77.9c0,0,44.3,9.4,36-75.6L676,632.1z"/>
	</g>
	<g>
		<path class="st2" d="M118.8,675.3c-13.2-39.3-14-58.5-11.2-70.2c2.8-11.7-10.3-24.7-12.8-5.6c-2.5,19.1-7.5,2,0-22.9    c7.5-24.8-3.1-60.6-9.2-42.1c-6.1,18.5,4.2,73.8-11.1,43c-15.4-30.7-39-79.6-51-62.6c-12,17,54.6,69.9,39.6,66.4    c-15.1-3.4-51.2-12.1-16.8,6.6c10.4,5.6,24.1,6.1,29.5,9.4c12.6,7.7,12.4,17,2.4,15.5c-14.4-2.2-51.7-13.8-19.8,9.7    c32,23.5,31.2-35.4,52.1,51.5L118.8,675.3z"/>
	</g>
	<g>
		<g>
			<path class="st2" d="M143.3,590.6c-5.7-9.2-11.2-21.4-17-34.4c-14.3-31.8-32-71.5-63.3-86.6l0.7-1.5     c31.9,15.4,49.8,55.4,64.1,87.5c5.8,12.9,11.2,25.1,16.9,34.2L143.3,590.6z"/>
		</g>
		<path class="st2" d="M65.9,470.6c-5.1-2.4-11.1-3.3-16.7-2.8C46,468,43,469,40,470.2c-2.2,0.9-4.5,1-6.6-0.3    c-4.9-2.9-4.1-10.5,1.3-12.4c2.5-0.9,5.8-0.3,8.4,0c3.5,0.4,7.1,1.5,10.3,2.9c2.6,1.2,5.1,2.6,7.4,4.3c1.5,1.1,2.8,2.2,4.1,3.5    c0.5,0.5,1,1,1.4,1.5C66.7,470.2,66.4,470.8,65.9,470.6z"/>
		<path class="st2" d="M85.2,484.6c-5-1.1-10.5-0.5-15.3,1c-2.7,0.9-5.1,2.3-7.4,3.9c-1.8,1.3-3.8,2-6,1.3c-5.2-1.5-6-8.7-1.4-11.4    c2-1.2,4.8-1.3,7.1-1.6c3.1-0.3,6.3-0.2,9.4,0.3c2.7,0.5,5.3,1.3,7.8,2.3c1.5,0.6,3,1.4,4.4,2.2c0.5,0.3,1.1,0.7,1.6,1    C85.8,484.2,85.6,484.7,85.2,484.6z"/>
		<path class="st2" d="M102.9,508.3c-1.7-5.2-1.9-11.1-1.2-16.5c0.5-3.4,1.4-6.8,2.8-9.9c1-2.2,2.1-4.9,3.9-6.7    c4-3.9,11-1.4,11.7,4.1c0.3,2.6-0.9,5-3,6.5c-2.5,1.8-4.6,3.7-6.6,6c-2,2.4-3.6,5.4-4.7,8.3c-0.7,1.8-1.3,3.6-1.7,5.5    c-0.1,0.7-0.3,1.4-0.4,2.1C103.7,508.3,103.1,509.1,102.9,508.3z"/>
		<g>
			<path class="st2" d="M107.5,515.8c-3.4-2.8-7.7-4.6-11.9-5.5c-2.7-0.6-5.5-0.9-8.2-0.7c-1.9,0.1-4.3,0.2-6.1,1     c-4.1,1.9-4.2,7.8-0.2,9.9c1.8,1,4,0.7,5.7-0.4c2-1.3,4.1-2.4,6.4-3.2c2.4-0.8,5-1.2,7.5-1.2c1.5,0,3.1,0.1,4.6,0.3     c0.6,0.1,1.1,0.2,1.7,0.3C107.2,516.4,108,516.2,107.5,515.8z"/>
		</g>
	</g>
	<path class="st5" d="M211.9,611.2c-16.2,16-41.5,30.7-26.4,65.6l-19.8-1l-1.7-0.1l-11.8-0.6c-33.6-77.9-64-102.3-37.4-112   c26.6-9.7,49.1,38.5,26.6-9.7c-16.7-35.7-25.5-58.2-5.8-65.3c19.6-7,30.5,28.4,30.5-4.6c0-11.3,2.6-31.7,28.8-25.2   c26.2,6.5-14.4,60.1,14.8,52.8c29.3-7.3,35.1-1.5,25.3,10.6c-9.8,12.1-55.5,50.5-11.8,43.9C266.7,558.9,228.1,595.2,211.9,611.2z"/>
	<path class="st3" d="M218.9,583.1c-0.6,0.3-55.6,34.7-56.2,63.6c0.5,9.6,1.5,19.3,3,29l-1.7-0.1c-0.2-1.3-0.4-2.6-0.6-3.9   c-0.1,0-0.1,0.1-0.2,0.1c-0.1,0-0.1,0-0.2,0c-0.4,0-0.7-0.3-0.8-0.7c-4.1-19.3-34.4-58.2-34.7-58.6c-0.3-0.4-0.2-0.9,0.1-1.2   c0.4-0.3,0.9-0.2,1.2,0.1c1.2,1.5,27,34.8,33.8,55.2c-0.3-2.2-0.5-4.4-0.7-6.5c0,0,0,0,0-0.1c-12.4-55.2-48.4-87-48.8-87.3   c-0.4-0.3-0.4-0.8-0.1-1.2c0.3-0.4,0.8-0.4,1.2-0.1c0.3,0.3,32.7,28.9,46.9,78.8c-0.1-0.9-0.1-1.8-0.2-2.8c0-0.1,0-0.2,0-0.2   c0-0.2,0-0.4,0-0.6c-0.4-8.2-0.5-16.3-0.4-24.2c-0.1-0.1-0.1-0.2-0.1-0.3c-3.5-21.9-25.7-45.3-26-45.5c-0.3-0.3-0.3-0.9,0-1.2   c0.3-0.3,0.9-0.3,1.2,0c0.8,0.9,19.2,20.1,25.1,40.5c0-1.1,0.1-2.3,0.2-3.4c-0.2-0.2-0.3-0.5-0.3-0.9c0.1-0.4,0.2-0.7,0.3-1.1   c0.3-5.1,0.7-10.2,1.1-15.2c0-0.1,0-0.2,0-0.4c0-0.1,0.1-0.2,0.1-0.3c0.5-5,1-9.9,1.6-14.7c0,0,0,0,0-0.1   c-1-22.7-26.9-59.5-27.2-59.8c-0.3-0.4-0.2-0.9,0.2-1.2c0.4-0.3,0.9-0.2,1.2,0.2c1,1.4,22.3,31.6,26.7,54.5   c0.2-1.1,0.3-2.3,0.5-3.4c0,0,0-0.1,0-0.1c0.1-1,0.3-2,0.5-2.9c0.2-1.2,0.4-2.5,0.6-3.7c0,0,0,0,0-0.1c0.3-35.4-29.2-61-29.5-61.3   c-0.4-0.3-0.4-0.8-0.1-1.2c0.3-0.4,0.8-0.4,1.2-0.1c0.3,0.2,26.2,22.8,29.7,55c1.5-8.7,3.2-17,4.8-24.7   c-0.4-9.3-11.6-22.4-11.7-22.6c-0.3-0.4-0.3-0.9,0.1-1.2c0.4-0.3,0.9-0.3,1.2,0.1c0.4,0.5,8.7,10.3,11.3,19.3   c0.8-3.6,1.5-7.1,2.2-10.5c0.8-3.7,1.6-7.2,2.3-10.6c1.7-8.2-6-33.3-6.1-33.5c-0.1-0.4,0.1-0.9,0.6-1.1c0.4-0.1,0.9,0.1,1.1,0.6   c0.3,0.8,4.8,15.5,6.1,26.3c2.1-10.5,3.5-19.2,3.5-26c0-0.5,0.4-0.8,0.8-0.8c0.5,0,0.8,0.4,0.8,0.8c-0.1,9.6-2.7,22.6-6.2,38.9   c7.1-10.4,16.2-31.8,16.3-32c0.2-0.4,0.7-0.6,1.1-0.4c0.4,0.2,0.6,0.7,0.4,1.1c-0.5,1.1-11.2,26.4-18.7,35.3   c-0.1,0.6-0.3,1.2-0.4,1.9c-1.2,5.4-2.4,11.2-3.7,17.2c6.5-10.7,17.8-19.7,18.4-20.1c0.4-0.3,0.9-0.2,1.2,0.1   c0.3,0.4,0.2,0.9-0.1,1.2c-0.2,0.1-15.7,12.4-20.7,25c-1.1,5.3-2.1,10.9-3.1,16.6c9.2-20.3,30.3-35.8,31.4-36.6   c0.4-0.3,0.9-0.2,1.2,0.2c0.3,0.4,0.2,0.9-0.2,1.2c-0.3,0.2-29.2,21.5-34.2,46c-0.9,5.8-1.7,11.7-2.4,17.8   c12.3-35.5,46-64.8,46.4-65.2c0.4-0.3,0.9-0.3,1.2,0.1c0.3,0.4,0.3,0.9-0.1,1.2c-0.4,0.3-39.7,34.5-48.5,73.5   c-0.1,0.6-0.1,1.3-0.2,1.9c7.5-15.1,30.1-38.4,31.2-39.5c0.3-0.3,0.9-0.3,1.2,0c0.3,0.3,0.3,0.8,0,1.2   c-0.3,0.3-27.4,28.1-32.3,42.5c-0.1,0.2-0.2,0.4-0.4,0.5c-0.1,1.5-0.2,3-0.3,4.6c10.3-19.6,41.3-34.2,42.7-34.9   c0.4-0.2,0.9,0,1.1,0.4c0.2,0.4,0,0.9-0.4,1.1c-0.4,0.2-36.2,17.1-43.7,38.1c-0.5,9-0.6,18.2-0.4,27.5   c8.5-27.6,53.5-55.6,55.6-56.9c0.4-0.2,0.9-0.1,1.2,0.3C219.5,582.3,219.3,582.8,218.9,583.1z"/>
	<g>
		<path class="st6" d="M93.1,665.9c0,0-13.3,58.2,61,52.7c0,0,50.3,0.6,47.7-52.7H93.1z"/>
	</g>
	<rect x="249.8" y="610" class="st4" width="368.7" height="102.1"/>
	<line class="st6" x1="256.7" y1="671.4" x2="608.6" y2="671.4"/>
	<path class="st4" d="M655.1,584.9H204.6V409.5c0-11.4,9.2-20.7,20.7-20.7h409.2c11.4,0,20.7,9.2,20.7,20.7V584.9z"/>
	<g>
		<rect x="249.8" y="566.2" class="st7" width="368.7" height="67.1"/>
	</g>
	<g>
		<path class="st7" d="M683.5,712.2h-74.8V542.8c0-20.7,16.8-37.4,37.4-37.4l0,0c20.7,0,37.4,16.8,37.4,37.4V712.2z"/>
	</g>
	<g>
		<path class="st7" d="M256.7,712.2h-74.8V525.3c0-11,8.9-19.9,19.9-19.9h35c11,0,19.9,8.9,19.9,19.9V712.2z"/>
	</g>
	<g>
		<path class="st4" d="M256.7,712.2h-74.8V572.4c0-9.6,7.8-17.4,17.4-17.4h40.1c9.6,0,17.4,7.8,17.4,17.4V712.2z"/>
		<line class="st4" x1="256.7" y1="587.6" x2="256.7" y2="712.2"/>
	</g>
	<g>
		<path class="st4" d="M683.5,712.2h-74.8V572.4c0-9.6,7.8-17.4,17.4-17.4h40.1c9.6,0,17.4,7.8,17.4,17.4V712.2z"/>
		<line class="st4" x1="608.6" y1="587.6" x2="608.6" y2="712.2"/>
	</g>
	<circle class="st7" cx="216.6" cy="593" r="17"/>
	<circle class="st7" cx="646.1" cy="593" r="17"/>
	<g>
		<path class="st2" d="M290.8,493.8c0,0-29-31.1,0-19.8c29,11.3,41.8-16.3,96.2,7.3c0,0,7.5-10.1,13.1-9.9    c5.6,0.2-8.3,21.6-4.5,25.6c3.2,3.3,12,34.7,6.5,48.3c-1.6,4-0.9,8.6,2.3,11.5c4.7,4.3,8.2,9.6-1,10c-15.9,0.7-74,20.8-99.9,2.9    c-16.6,11.8-23.8,10.2-14.3-3.5C298.7,552.5,276.6,526.3,290.8,493.8z"/>
	</g>
	<g>
		<path class="st2" d="M469.6,492.9c0,0-29-31.1,0-19.8c29,11.3,41.8-16.3,96.2,7.3c0,0,7.5-10.1,13.1-9.9    c5.6,0.2-8.3,21.6-4.5,25.6c3.2,3.3,12,34.7,6.5,48.3c-1.6,4-0.9,8.6,2.3,11.5c4.7,4.3,8.2,9.6-1,10c-15.9,0.7-74,20.8-99.9,2.9    c-16.6,11.8-23.8,10.2-14.3-3.5C477.5,551.6,455.3,525.4,469.6,492.9z"/>
	</g>
	<g>
		<path class="st8" d="M423.8,457.7c0,0,15.9,17.4,29.9,3.6c24.7,50.1,20,85.1,20,85.1s-37.3,18.7-59.1-6.1    C392.7,515.6,423.8,457.7,423.8,457.7z"/>
	</g>
	<path class="st9" d="M498.6,494.5l-30.8-55.4l-13.2,13.8c0,0,16.5,72.9,27.6,69.2C493.4,518.3,498.6,511.4,498.6,494.5z"/>
	<path class="st10" d="M422.3,385.9c0,0,6.1,16.6-4.5,28.2c-10.5,11.6,2.2,69.7,36.8,49.3c5.7-42.3,2.5-57.6,2.5-57.6L422.3,385.9z"/>
	<path class="st11" d="M471.4,377.5c0,23.2-12.6,43.2-28.3,43.2c-15.7,0-28.4-19.9-28.4-43.1s12.6-33.2,28.3-33.2   C458.7,344.4,471.4,354.3,471.4,377.5z"/>
	<path class="st5" d="M479.1,373.2c-3.3-22-22.2-45.6-36.1-34.2c-15.3-7.3-38.8,5.5-41.8,35.1c-1.1,11.3-1.1,36.6,24.9,37.9   c-5.3-9.5-5.8-25.2-5.6-37.9c10.6-1.3,26.5-2.1,45.3,0.1c0.2,12.8-0.2,28.2-5.5,37.7C486.2,410.5,479.1,373.1,479.1,373.2z"/>
	<path class="st6" d="M466.5,546.5c0,0,87.7-19.3,95.6,9.8c5.9,36.4-8.7,55.5-134.8,65.8C427,620.8,398.2,574.1,466.5,546.5z"/>
	<g>
		<path class="st7" d="M418.1,529.3c-3.3,0.2-9.4,36.7-9.4,36.7s-18.1-16.5-24.5-16c1.9-32,2.8-91.7,2.8-91.7L374,518    c0,0,0,0,7.7,6.7c1.7,1.5,2,4.1,1.5,7.2c-12.4,1-17.9,1.4-17.9,1.4l-1.7,14.3c0,0-3,6.1-10.7-9.7c-7.7-15.8,2.7-103.1,21.4-112.8    c18.7-9.6,43.6-11,43.6-11s6.1,28,13.3,31.9C428.3,460.3,414.8,494.2,418.1,529.3z"/>
	</g>
	<g>
		<path class="st4" d="M387,458.3c-0.9,5-1.9,10-2.9,15c-1,5-2.1,10-3.2,14.9c-1.1,5-2.1,9.9-3.3,14.9c-1.2,5-2.3,9.9-3.5,14.9    l-0.1,0c0.7-5,1.7-10,2.7-15c1-5,2.3-9.9,3.5-14.9C382.5,478.1,384.8,468.2,387,458.3L387,458.3z"/>
	</g>
	<g>
		<path class="st4" d="M352.8,537.9c-0.3-1.6-0.4-3.2-0.1-4.8c0.3-1.6,1-3.1,1.9-4.5c0.9-1.4,2-2.6,3.2-3.6c1.2-1.1,2.4-2.1,3.7-3.1    c2.6-1.9,5.7-3.4,9-3.6c1.6-0.1,3.4,0.2,4.9,0.9c1.5,0.8,2.6,2.1,3.3,3.6l-0.1,0c-0.9-1.3-2.1-2.4-3.5-3c-1.4-0.6-3-0.7-4.5-0.6    c-3.1,0.2-6.1,1.5-8.7,3.2c-1.3,0.9-2.6,1.9-3.8,2.9c-1.2,1-2.3,2.2-3.2,3.5c-0.9,1.3-1.6,2.7-2,4.3    C352.6,534.7,352.6,536.3,352.8,537.9L352.8,537.9z"/>
	</g>
	<g>
		<path class="st4" d="M356,532c-1.5,2.3-2,5.1-1.4,7.6c0.3,1.3,0.9,2.4,1.5,3.6c0.7,1.1,1.5,2.1,2.5,3.1l-0.1,0.1    c-1.3-0.5-2.4-1.5-3.2-2.7c-0.8-1.2-1.3-2.5-1.5-3.9C353.4,537,354.2,534.1,356,532L356,532z"/>
	</g>
	<g>
		<path class="st4" d="M423,455.4c0.5,0.1,1.1,0.1,1.6,0.2c0.3,0.1,0.6,0,0.8,0.2c0.2,0.1,0.4,0.3,0.6,0.7l0,0.1    c-0.3,0.1-0.6,0.2-0.9,0.1c-0.3,0-0.5-0.2-0.7-0.4C423.9,456.1,423.5,455.8,423,455.4L423,455.4z"/>
	</g>
	<g>
		<path class="st4" d="M417.9,477.1c0.5,0.1,1,0.1,1.4,0.2c0.2,0.1,0.5,0,0.7,0.2c0.2,0.1,0.4,0.3,0.5,0.6l0,0.1    c-0.3,0.1-0.6,0.1-0.8,0.1c-0.2,0-0.4-0.2-0.6-0.4C418.7,477.8,418.3,477.5,417.9,477.1L417.9,477.1z"/>
	</g>
	<g>
		<path class="st4" d="M430.1,448.7c-4.4,12.8-7.6,25.9-9.6,39.3c-1,6.7-1.7,13.4-2.2,20.1c-0.6,6.7-0.8,13.5-0.9,20.2l-0.1,0    c-0.4-6.8-0.3-13.5,0.1-20.3c0.4-6.8,1.3-13.5,2.4-20.1C422,474.5,425.4,461.4,430.1,448.7L430.1,448.7z"/>
	</g>
	<g>
		<path class="st4" d="M414.3,497.2c0.6,0.2,1.2,0.4,1.8,0.5c0.3,0,0.6,0,0.9,0.1c0.3,0.1,0.6,0.2,0.9,0.5l0,0.1    c-0.3,0.3-0.7,0.3-1,0.4c-0.4,0-0.7-0.2-1-0.3C415.3,498.2,414.7,497.8,414.3,497.2L414.3,497.2z"/>
	</g>
	<g>
		<path class="st4" d="M414.1,517.2c0.5-0.1,1-0.2,1.5-0.3c0.3,0,0.5-0.2,0.8-0.1c0.3,0.1,0.5,0.2,0.8,0.4v0.1    c-0.3,0.3-0.5,0.4-0.8,0.4c-0.3,0.1-0.5-0.1-0.8-0.1C415.1,517.6,414.6,517.5,414.1,517.2L414.1,517.2z"/>
	</g>
	<g>
		<path class="st4" d="M409.9,414.9c0.5,6.3,0.8,12.7,0.9,19c0.1,6.3,0.1,12.7-0.2,19.1l-0.5-0.5c1.7-0.2,3.4-0.7,5-1.1    c1.7-0.4,3.3-0.9,5-1.4c1.6-0.5,3.3-1.1,4.9-1.7c1.6-0.6,3.3-1.2,4.8-1.9l0,0.1c-3.1,1.7-6.3,3-9.6,4.2c-3.3,1.1-6.6,2.2-10.1,2.8    l-0.6,0.1l0-0.6c0.4-6.3,0.6-12.7,0.6-19C410.3,427.6,410.2,421.3,409.9,414.9L409.9,414.9z"/>
	</g>
	<g>
		<path class="st7" d="M441.7,439.2c0,0,10.2-23,20.5-25.1c10.3-2.1,32.9,7.5,38.9,19.8c8,16.3,15,86.6-2.4,89.8    c6.6,16.6,6.6,16.6,6.6,16.6l-32.4,5C472.8,545.2,442.2,448.9,441.7,439.2z"/>
	</g>
	<g>
		<path class="st4" d="M453.8,456.1c3.6,0.5,7.3-0.1,10.5-1.7c1.6-0.8,3-1.9,4.3-3.1c1.3-1.2,2.5-2.5,3.6-4l0.1,0    c-0.6,1.7-1.7,3.3-3,4.6c-1.3,1.3-2.9,2.3-4.6,3.1C461.2,456.6,457.4,457,453.8,456.1L453.8,456.1z"/>
	</g>
	<g>
		<path class="st4" d="M480.8,447.8c1,5.8,2.2,11.5,3.3,17.3c0.6,2.9,1.2,5.7,1.7,8.6c0.4,2.9,0.9,5.8,1,8.7l-0.1,0    c-0.7-2.9-1.2-5.7-1.8-8.6c-0.6-2.9-1-5.8-1.5-8.7C482.4,459.5,481.4,453.7,480.8,447.8L480.8,447.8z"/>
	</g>
	<g>
		<path class="st4" d="M459.6,470.2c1.7,5.6,3.7,11.1,6.1,16.4c2.4,5.3,5.1,10.5,8.2,15.4c1.5,2.5,3.2,4.9,4.9,7.3    c1.7,2.4,3.4,4.7,5.4,6.8c2,2.1,4.2,4,6.8,5.3c2.5,1.3,5.4,2.1,8.3,2l0,0.1c-2.9,0.3-5.9-0.3-8.6-1.6c-2.7-1.3-5.1-3.1-7.2-5.2    c-2.1-2.1-3.9-4.5-5.5-6.9c-1.7-2.4-3.2-4.9-4.8-7.4c-3-5-5.7-10.3-8-15.6C463,481.4,461,475.8,459.6,470.2L459.6,470.2z"/>
	</g>
	<g>
		<path class="st4" d="M476.7,459.3c2.4,4.1,4.2,8.6,6,13c1.8,4.4,3.5,8.9,6.2,12.8c2.7,3.9,5.6,7.8,7.8,12.1    c2.2,4.3,3.8,9,3.9,13.8l-0.1,0c-0.7-4.7-2.4-9.2-4.7-13.4c-2.2-4.2-4.9-8.1-7.6-12.1c-2.6-4.1-4.3-8.6-6-13    C480.6,468,478.9,463.5,476.7,459.3L476.7,459.3z"/>
	</g>
	<g>
		<path class="st4" d="M489.8,487.1c2-0.3,4-0.6,6-0.2c1,0.2,2.1,0.5,2.9,1.1c0.9,0.6,1.6,1.5,1.8,2.5l-0.1,0    c-0.7-0.8-1.4-1.3-2.2-1.8c-0.8-0.4-1.6-0.9-2.6-1.2C493.8,487.1,491.8,487.1,489.8,487.1L489.8,487.1z"/>
	</g>
	<g>
		<path class="st4" d="M457.3,469.5c4,0.1,8-1.1,11.5-3.2c1.7-1,3.2-2.3,4.7-3.7c1.4-1.4,2.7-2.9,3.9-4.6l0.1,0    c-0.7,1.9-1.9,3.7-3.3,5.2c-1.4,1.5-3.1,2.7-5,3.7C465.5,468.9,461.3,469.9,457.3,469.5L457.3,469.5z"/>
	</g>
	<g>
		<path class="st4" d="M472.4,447.8c1.4,1.4,2.7,2.8,3.7,4.6c0.5,0.9,1,1.8,1.2,2.8c0.2,1,0.3,2,0.1,3l-0.1,0    c-0.3-0.9-0.6-1.9-0.9-2.8c-0.3-0.9-0.5-1.8-0.9-2.7C474.6,451,473.5,449.4,472.4,447.8L472.4,447.8z"/>
	</g>
	<g>
		<path class="st4" d="M453.9,455.8c0,2.4,0.3,4.7,0.9,7c0.3,1.1,0.8,2.2,1.2,3.3l1.3,3.3l-0.1,0c-0.8-0.9-1.5-1.9-2-3    c-0.5-1.1-0.8-2.3-1.1-3.5C453.6,460.6,453.5,458.2,453.9,455.8L453.9,455.8z"/>
	</g>
	<g>
		<g>
			<path class="st4" d="M455.1,465.4c0.3,0.5,0.4,1.1,0.3,1.6c-0.1,0.6-0.4,1.1-0.9,1.4c-1,0.7-2.6,0.4-3.3-0.8     c-0.3-0.5-0.5-1.2-0.3-1.9c0.1-0.6,0.6-1.2,1.2-1.5c0.6-0.3,1.3-0.3,1.9-0.1C454.5,464.5,454.9,464.9,455.1,465.4z M455.1,465.4     c-0.3-0.5-0.8-0.7-1.3-0.7c-0.5,0-0.9,0.1-1.3,0.4c-0.7,0.4-1.1,1.4-0.7,2.2c0.4,0.8,1.5,1.2,2.4,0.7c0.4-0.2,0.8-0.6,1-1.1     C455.4,466.5,455.4,465.9,455.1,465.4z"/>
		</g>
		<g>
			<path class="st4" d="M460.7,485.4c0.3,0.5,0.4,1.1,0.3,1.6c-0.1,0.6-0.4,1.1-0.9,1.4c-1,0.7-2.6,0.4-3.3-0.8     c-0.3-0.5-0.5-1.2-0.3-1.9c0.1-0.6,0.6-1.2,1.2-1.5c0.6-0.3,1.3-0.3,1.9-0.1C460,484.5,460.4,484.9,460.7,485.4z M460.6,485.4     c-0.3-0.5-0.8-0.7-1.3-0.7c-0.5,0-0.9,0.1-1.3,0.4c-0.7,0.4-1.1,1.4-0.7,2.2c0.4,0.8,1.5,1.2,2.4,0.7c0.4-0.2,0.8-0.6,1-1.1     C461,486.5,460.9,485.9,460.6,485.4z"/>
		</g>
		<g>
			<path class="st4" d="M466,503c0.3,0.5,0.4,1.1,0.3,1.6c-0.1,0.6-0.4,1.1-0.9,1.4c-1,0.7-2.6,0.4-3.3-0.8     c-0.3-0.5-0.5-1.2-0.3-1.9c0.1-0.6,0.6-1.2,1.2-1.5c0.6-0.3,1.3-0.3,1.9,0C465.3,502.1,465.8,502.5,466,503z M465.9,503     c-0.3-0.5-0.8-0.7-1.3-0.7c-0.5,0-0.9,0.1-1.3,0.4c-0.7,0.4-1.1,1.4-0.7,2.2c0.4,0.8,1.5,1.2,2.4,0.7c0.4-0.2,0.8-0.6,1-1.1     C466.3,504.1,466.2,503.5,465.9,503z"/>
		</g>
		<g>
			<path class="st4" d="M471.4,519.1c0.3,0.5,0.4,1.1,0.3,1.6c-0.1,0.6-0.4,1.1-0.9,1.4c-1,0.7-2.6,0.4-3.3-0.8     c-0.3-0.5-0.5-1.2-0.3-1.9c0.1-0.6,0.6-1.2,1.2-1.5c0.6-0.3,1.3-0.3,1.9-0.1C470.7,518.1,471.1,518.6,471.4,519.1z M471.3,519.1     c-0.3-0.5-0.8-0.7-1.3-0.7c-0.5,0-0.9,0.1-1.3,0.4c-0.7,0.4-1.1,1.4-0.7,2.2c0.4,0.8,1.5,1.2,2.4,0.7c0.4-0.2,0.8-0.6,1-1.1     C471.6,520.1,471.6,519.6,471.3,519.1z"/>
		</g>
		<g>
			<path class="st4" d="M442.1,442l15.5,51.6l3.9,12.9l3.8,12.9c2.4,8.6,4.9,17.3,7.2,25.9l-0.1,0c-2.8-8.5-5.4-17.1-8-25.7     l-3.8-12.9l-3.7-12.9L442.1,442L442.1,442z"/>
		</g>
	</g>
	<g>
		<path class="st4" d="M444.6,443.3c1.3,1.8,2.6,3.6,4.1,5.2c0.7,0.8,1.5,1.6,2.3,2.4c0.4,0.4,0.8,0.8,1.2,1.2    c0.4,0.4,0.8,0.7,1.2,1c0.4,0.3,1,0.4,1.4,0.2c0.4-0.2,0.7-0.6,1-1.1c0.5-1,0.9-2,1.3-3c0.9-2,1.7-4.1,2.6-6.1    c1.6-4.1,3-8.3,4-12.6c0.5-2.1,0.8-4.3,1.1-6.5c0.2-2.2,0.2-4.4,0.1-6.6l0.1,0c0.4,2.2,0.5,4.4,0.4,6.7c-0.1,2.2-0.4,4.5-0.8,6.7    c-0.9,4.4-2.5,8.6-4.2,12.7c-0.9,2-1.8,4.1-2.7,6.1c-0.5,1-0.9,2-1.4,3c-0.3,0.5-0.7,1-1.3,1.3c-0.6,0.2-1.3,0-1.8-0.3    c-0.5-0.3-0.9-0.7-1.3-1.1c-0.4-0.4-0.8-0.8-1.2-1.2c-0.8-0.8-1.5-1.6-2.2-2.5C447,447,445.7,445.2,444.6,443.3L444.6,443.3z"/>
	</g>
	<g>
		<path class="st11" d="M374,522.4c0,0,11.5,1.4,23.5,1.4c5.6,16.6-1,17.5-1,17.5s-27.8,6.4-33.6,5.3    C357.1,545.5,351.3,528.9,374,522.4z"/>
	</g>
	<g>
		<path class="st11" d="M397.5,523.8c0,0,17.2,0.4,22.7,4.2c5.6,3.8,6.9,6.4,6.9,6.4l0,4.4c0,0,10.8,12.5,8.7,13.9    c-2.1,1.3-16.7-10.5-16.7-10.5s17.6,14.8,16.4,18.1c-1.2,3.3-16.8-9.2-16.8-9.2s16.1,12.9,12.6,14.4s-8.3-3.9-8.3-3.9    s6.9,10.4-3.8,2.5c-10.7-7.9-12.3-13.9-18-17.3C395.5,543.2,390.9,531.1,397.5,523.8z"/>
	</g>
	<g>
		<path class="st10" d="M411.9,549.9c4.6,5.3,9.2,10.6,13.8,15.9"/>
		<path class="st12" d="M411.9,549.9l7,7.8c1.2,1.3,2.4,2.6,3.5,3.9c1.1,1.4,2.2,2.7,3.3,4.1l0,0c-1.3-1.2-2.4-2.5-3.6-3.8    c-1.2-1.3-2.3-2.7-3.4-4L411.9,549.9L411.9,549.9z"/>
	</g>
	<g>
		<path class="st10" d="M413,544.9c2.9,3,5.7,6.1,8.6,9.1"/>
		<path class="st12" d="M413,544.9l4.4,4.4c0.7,0.7,1.5,1.5,2.2,2.2c0.7,0.8,1.4,1.6,2,2.4l0,0c-0.8-0.7-1.5-1.4-2.3-2.1    c-0.7-0.7-1.4-1.5-2.1-2.3L413,544.9L413,544.9z"/>
	</g>
	<g>
		<path class="st10" d="M416.7,539c2.9,2.7,5.8,5.4,8.6,8.2"/>
		<path class="st12" d="M416.7,539l4.4,4c0.7,0.7,1.5,1.3,2.2,2c0.7,0.7,1.4,1.4,2,2.2l0,0c-0.8-0.6-1.6-1.2-2.3-1.9    c-0.7-0.7-1.4-1.4-2.1-2.1L416.7,539L416.7,539z"/>
	</g>
	<g>
		<path class="st10" d="M420.6,531.6c2.3,2.5,4.7,5.1,7,7.6"/>
		<path class="st12" d="M420.6,531.6c1.2,1.2,2.4,2.5,3.6,3.7c0.6,0.6,1.2,1.2,1.8,1.9c0.6,0.7,1.1,1.3,1.6,2.1l0,0    c-0.7-0.5-1.3-1.2-1.9-1.8c-0.6-0.6-1.2-1.3-1.7-1.9C422.9,534.3,421.7,533,420.6,531.6L420.6,531.6z"/>
	</g>
	<path class="st11" d="M471.4,448.6c-6.8,8.5-15.6,7.8-15.6,7.8s-1.2-3.5-6-10.7c-4.8-7.1-2.3-13.6-2.8-16c-0.5-2.4-11.4-6.2-12.4-7   c-1.1-0.8,0.1-2.2,13.6-0.4c-0.5-1.9-2.5-3.6-4.6-4.6c-1.5-0.8-3-1.3-3.9-1.3c-1.6,0-6.2-1.9-5.9-3.1c0-0.1,0.1-0.1,0.1-0.1   c0.1-0.2,0.4-0.4,0.9-0.5c1.6-0.1,3.1-0.2,4.5-0.1c8.8,0.3,12.5,4,12.7,4.3c-0.2-0.4-4.1-7.3-7.1-8c-3.2-0.8-8.5,1.5-8.7-0.4   c-0.3-1.8,6.7-2.5,6.7-2.5s-3.1-1.2-2.7-2.4c0.4-1.2,7.4-0.7,11.4,0.6c4,1.3,1.8-0.3,11.9,11.3   C462.3,431.2,471.4,448.6,471.4,448.6z"/>
	<g>
		<path class="st10" d="M452,416.9c-1.2-0.9-2.6-1.6-4.1-2.1c-1.4-0.5-2.9-1-4.4-1.3c-1.5-0.3-3-0.6-4.5-0.7    c-0.8-0.1-1.5-0.1-2.3-0.1c-0.7,0-1.5,0.1-2.1,0.3c-0.1,0.1-0.3,0.1-0.3,0.2c0,0,0,0,0,0c0,0,0,0,0,0c0,0.1,0,0.1,0,0.2    c0.1,0.2,0.3,0.5,0.6,0.7c0.6,0.4,1.3,0.7,2,1c1.4,0.6,2.9,1,4.3,1.6c1.4,0.6,2.9,1.2,4.1,2.2c1.3,0.9,2.3,2.1,3,3.6l0,0    c-0.7-1.4-1.8-2.5-3.1-3.4c-1.3-0.9-2.7-1.5-4.1-2c-1.4-0.5-2.9-1-4.4-1.6c-0.7-0.3-1.5-0.5-2.1-1c-0.3-0.2-0.6-0.5-0.7-0.9    c-0.1-0.2-0.1-0.4,0-0.6c0.1-0.2,0.3-0.3,0.5-0.4c0.7-0.3,1.5-0.3,2.3-0.3c0.8,0,1.5,0,2.3,0.1c1.5,0.1,3.1,0.4,4.6,0.8    c1.5,0.4,3,0.8,4.4,1.4C449.5,415.2,450.9,415.9,452,416.9L452,416.9z"/>
	</g>
	<g>
		<path class="st10" d="M441.1,403.1c0.8-0.1,1.7-0.2,2.5-0.2c0.8,0,1.7,0,2.5,0.1c1.7,0.2,3.3,0.6,4.9,1.1c1.6,0.6,3.1,1.3,4.5,2.3    c0.7,0.5,1.3,1,1.9,1.6c0.6,0.6,1.1,1.3,1.5,2l0,0c-0.9-1.4-2.2-2.5-3.6-3.4c-1.4-0.9-2.9-1.6-4.5-2.1    C447.7,403.5,444.4,403,441.1,403.1L441.1,403.1z"/>
	</g>
	<g>
		<path class="st10" d="M456.6,413.6c-0.5,0.1-0.9-0.4-1.1-0.7c-0.3-0.4-0.6-0.7-0.8-1.1c-0.5-0.7-1.1-1.5-1.7-2.2    c-1.2-1.4-2.7-2.4-4.4-2.8c-3.5-0.7-7.2-0.3-10.6,0.8c-0.2,0.1-0.4,0.1-0.6,0.2c-0.2,0.1-0.5,0.2-0.4,0.2    c-0.1,0.1-0.1,0.3-0.1,0.3c0,0.1,0.1,0.2,0.2,0.3c0.3,0.2,0.7,0.2,1.1,0.3c0.4,0,0.9,0,1.3,0c0.9,0,1.8-0.3,2.7-0.4    c0.9-0.1,2,0,2.9,0.3c1.8,0.6,3.3,1.9,4.4,3.4c1.1,1.5,2,3.1,2.7,4.8l0,0c-0.8-1.7-1.7-3.2-2.9-4.7c-1.1-1.4-2.6-2.7-4.3-3.2    c-0.9-0.3-1.8-0.4-2.7-0.2c-0.9,0.1-1.8,0.4-2.7,0.4c-0.5,0-0.9,0.1-1.4,0c-0.5,0-0.9-0.1-1.3-0.3c-0.2-0.1-0.4-0.3-0.4-0.6    c0-0.2,0.1-0.5,0.2-0.7c0.4-0.3,0.8-0.4,1.3-0.6c3.5-1.1,7.3-1.4,10.9-0.7c1.8,0.5,3.3,1.6,4.5,3c0.6,0.7,1.1,1.5,1.6,2.2    c0.3,0.4,0.5,0.8,0.8,1.1C455.8,413.2,456.1,413.6,456.6,413.6L456.6,413.6z"/>
	</g>
	<path class="st13" d="M415.8,581l80-1.6c4.6-0.1,8.6-3.2,9.7-7.7l14.5-56.3c1.3-5-2.5-9.8-7.7-9.7l-73.5,1.4   c-3.1,0.1-5.7,2.2-6.4,5.2L415.8,581z"/>
	<path class="st14" d="M463.8,546.5c0.1,4.2,3.5,7.5,7.7,7.4c4.2-0.1,7.5-3.5,7.4-7.7c-0.1-4.2-3.5-7.5-7.7-7.4   C467,538.9,463.7,542.3,463.8,546.5z"/>
	<path class="st5" d="M477.4,616.8c0,0-72.8-84.6-103.9-74.5c-31.2,10.1-41,67.2,53.8,79.7C467.3,618,477.4,616.8,477.4,616.8z"/>
</g>
</svg>