<svg id="Layer_1" data-name="Layer 1" xmlns="http://www.w3.org/2000/svg" xmlns:xlink="http://www.w3.org/1999/xlink" width="406" height="306" viewBox="0 0 471.76 582.83" class="illustration styles_illustrationTablet__1DWOa"><defs><linearGradient id="linear-gradient" x1="409.11" y1="545.14" x2="425.87" y2="545.14" gradientTransform="matrix(1, 0, 0, -1, 0, 598)" gradientUnits="userSpaceOnUse"><stop offset="0.01"></stop><stop offset="1" stop-opacity="0"></stop></linearGradient><linearGradient id="linear-gradient-2" x1="391.46" y1="458.97" x2="431.23" y2="458.97" gradientTransform="matrix(1, 0, 0, -1, 0, 598)" gradientUnits="userSpaceOnUse"><stop offset="0" stop-color="#ecc4d7"></stop><stop offset="0.42" stop-color="#efd4d1"></stop><stop offset="1" stop-color="#f2eac9"></stop></linearGradient><linearGradient id="linear-gradient-3" x1="418.96" y1="525.27" x2="442.17" y2="525.27" gradientTransform="matrix(1, 0, 0, -1, -175.93, 594.94)" xlink:href="#linear-gradient"></linearGradient><linearGradient id="linear-gradient-4" x1="372.15" y1="506.53" x2="444.51" y2="506.53" xlink:href="#linear-gradient-2"></linearGradient><linearGradient id="linear-gradient-5" x1="381.15" y1="485.66" x2="398.84" y2="485.66" xlink:href="#linear-gradient"></linearGradient><linearGradient id="linear-gradient-6" x1="351.8" y1="535.07" x2="382.68" y2="535.07" xlink:href="#linear-gradient"></linearGradient><linearGradient id="linear-gradient-7" x1="365.11" y1="572.63" x2="393.17" y2="572.63" xlink:href="#linear-gradient"></linearGradient><linearGradient id="linear-gradient-8" x1="365.11" y1="572.14" x2="391.77" y2="572.14" xlink:href="#linear-gradient"></linearGradient><linearGradient id="linear-gradient-9" x1="586.38" y1="563.01" x2="647.58" y2="563.01" xlink:href="#linear-gradient-2"></linearGradient><linearGradient id="linear-gradient-10" x1="608.53" y1="560.38" x2="634.25" y2="560.38" xlink:href="#linear-gradient-2"></linearGradient><linearGradient id="linear-gradient-11" x1="356.79" y1="488.05" x2="368.61" y2="488.05" xlink:href="#linear-gradient-2"></linearGradient><linearGradient id="linear-gradient-12" x1="519.01" y1="94.68" x2="548.27" y2="94.68" xlink:href="#linear-gradient-2"></linearGradient><linearGradient id="linear-gradient-13" x1="233.95" y1="64.73" x2="271.64" y2="64.73" xlink:href="#linear-gradient-2"></linearGradient><linearGradient id="linear-gradient-14" x1="349.22" y1="481.83" x2="395.39" y2="481.83" xlink:href="#linear-gradient-2"></linearGradient><linearGradient id="linear-gradient-15" x1="422.45" y1="179.03" x2="-188.3" y2="696" gradientUnits="userSpaceOnUse"><stop offset="0" stop-opacity="0"></stop><stop offset="0.99"></stop></linearGradient><linearGradient id="linear-gradient-16" x1="320.9" y1="139.56" x2="328.51" y2="215.44" xlink:href="#linear-gradient-15"></linearGradient><linearGradient id="linear-gradient-17" x1="498.4" y1="87.21" x2="592.64" y2="301.44" xlink:href="#linear-gradient-15"></linearGradient><linearGradient id="linear-gradient-18" x1="429.33" y1="138.08" x2="440.32" y2="209.38" xlink:href="#linear-gradient-15"></linearGradient><linearGradient id="linear-gradient-19" x1="392.18" y1="140.78" x2="433.22" y2="221.69" xlink:href="#linear-gradient-15"></linearGradient><linearGradient id="linear-gradient-20" x1="563.53" y1="393.91" x2="82.34" y2="612.29" xlink:href="#linear-gradient-15"></linearGradient><linearGradient id="linear-gradient-21" x1="470.15" y1="359.74" x2="-768.06" y2="921.7" xlink:href="#linear-gradient-15"></linearGradient><linearGradient id="linear-gradient-22" x1="228.14" y1="558.47" x2="273.64" y2="607.36" xlink:href="#linear-gradient-15"></linearGradient><linearGradient id="linear-gradient-23" x1="535.63" y1="498.72" x2="541.49" y2="606.06" gradientUnits="userSpaceOnUse"><stop offset="0" stop-opacity="0"></stop><stop offset="0.86" stop-opacity="0.66"></stop><stop offset="0.99"></stop></linearGradient><linearGradient id="linear-gradient-24" x1="546.32" y1="525.31" x2="541.08" y2="577.44" xlink:href="#linear-gradient-23"></linearGradient><linearGradient id="linear-gradient-25" x1="228.6" y1="561.68" x2="256.05" y2="497.52" xlink:href="#linear-gradient-15"></linearGradient></defs><title>dance the music</title><path d="M328.78,67.37c-16.22,29.47-22.24,65.51-46.56,88.84-12.38,11.95-28.38,19.18-42.84,28.49-29.8,19.17-53.9,48.75-61.24,83.37s4.06,73.95,32.32,95.2c24.21,18.19,57.63,22.13,79.76,42.84,41.19,38.34,28,118.31,77.12,145.81,24.65,13.8,56.53,7.34,79.87-8.65S487,503.5,502.86,480.16q42.23-61.79,84.46-123.46c13.15-19.18,26.52-38.89,31.45-61.57,6.35-29.36-3-61.57-24.11-82.93-28.15-28.38-75.37-39-90.6-76-7.55-18.52-4.93-39.44-3.83-59.38C506.36-35.83,366.79-1.87,328.78,67.37Z" transform="translate(-175.93 -3.06)" fill="#68e1fd" opacity="0.18" style="isolation: isolate;"></path><path d="M413.68,43.48c1.65.55,12.16,18.85,12.16,18.85l-4.6-.88s-3-8.44-12.16-8.44C409.08,53.23,410,42.28,413.68,43.48Z" transform="translate(-175.93 -3.06)" fill="url(#linear-gradient)"></path><path d="M552.27,484.55s-24.95,6.23-29.38-4.07a7,7,0,0,1-.53-1.74c-2.3-12.71,4.6-67.92,4.6-67.92s-58.72-40.32-84-33.42C421.57,383.21,316.18,492,283.42,526.07a20.14,20.14,0,0,1-22.67,4.49,16.54,16.54,0,0,1-6.91-24.43L363,348.55l6.11-8.83,99.15-21s102.43,42.62,112.84,59.93S552.27,484.55,552.27,484.55Z" transform="translate(-175.93 -3.06)" fill="#68e1fd"></path><path d="M476,300.39c-.11,9.64-1.43,19.61-6.57,27.71-8.88,14-26.74,19-42.95,22.79-10.19,2.41-20.6,4.82-31.11,3.83s-21.06-5.87-26.23-15a.41.41,0,0,0-.07-.11c-3.17-5.7-3.94-12.38-4.6-18.85-3.5-32-7-64.6-4.51-96.6a224,224,0,0,1,3.34-25.25c.48-2.56,1-5.1,1.61-7.64,2.49-10.86,8.14-28.56,17.51-39.39,5.09-5.89,11.27-9.74,18.64-9.36,9.21.55,18.52,1.42,27.72,2.63,6.68,1,13.8,2.19,18.95,6.68,8.66,7.45,8.55,20.71,9.1,32.21C458.71,223.37,476.35,261,476,300.39Z" transform="translate(-175.93 -3.06)" fill="#68e1fd"></path><path d="M397.14,144.93c.22,5.15,19.07,16.79,23,14.82,6.48.82,8.65-.91,9.75-5.62,1.53-6.57,2.08-13.8-.88-20-2.3-4.93-6.68-8.76-11.61-11.17-5.15-2.52-21-8.33-25.2-1.86C389,126,397,138.79,397.14,144.93Z" transform="translate(-175.93 -3.06)" fill="url(#linear-gradient-2)"></path><ellipse cx="245.75" cy="69.67" rx="14.68" ry="16.1" fill="url(#linear-gradient-3)"></ellipse><path d="M420.69,58.82a34.7,34.7,0,0,1,4.17,7c5.15,10.3,10.29,20.49,15.44,30.79,2.41,4.93,5,10.29,3.95,15.77A16.67,16.67,0,0,1,440,120.5a28.69,28.69,0,0,1-12.06,8.22c-7.12,2.52-15.22,2.08-22.45-.33s-13.7-6.58-19.61-11.4c-4.71-3.83-9.21-8.21-11.84-13.8-2.19-4.82-2.52-23.33-1.31-27.06C376,65.07,384.32,60,394.29,55.86,403.49,52.14,413.35,49.73,420.69,58.82Z" transform="translate(-175.93 -3.06)" fill="url(#linear-gradient-4)"></path><path d="M396.37,22.34a27.34,27.34,0,0,1,13.81-6.79c4.82-.88,10.08-.44,14.24,2.3s6.9,7.78,5.81,12.6c-1.76,8.65-13,11.39-18,18.73-2.08,3-3,6.57-4.49,9.86-3.18,6.35-10.19,11.39-17.2,9.86-3.73-.88-8-3.29-11-.88-2.3,1.87-.77,5.48-1.64,8.33-7.45,25.42,12.71,38.45,12,40-1.21,3-27.06,3.72-30.24,3.17s-5.8-2.63-8-4.93c-6.24-6.24-10.4-15.77-7.34-24.1,1.21-3.28,3.4-6.24,3.51-9.75.11-3.18-1.64-6-2.74-9-4.38-11.29.77-25.42,11.29-31.33a54.24,54.24,0,0,1,10.18-4c5.7-1.75,11.4-3.18,17.09-4.82C389.14,29.9,392.21,26.06,396.37,22.34Z" transform="translate(-175.93 -3.06)" fill="#3f3d56"></path><path d="M394.51,108.45c2.63,9.42-1.53,18.73-9.31,20.92s-16.11-3.72-18.74-13.14S368,97.49,375.78,95.3,391.88,99,394.51,108.45Z" transform="translate(-175.93 -3.06)" fill="url(#linear-gradient-5)"></path><path d="M382.68,102.31l-13.7,3.4c-38.56-65.4-.65-83.92,2.63-85.45.11,0,.11-.11.22-.11a21.91,21.91,0,0,0-6.68,7.23C350.91,52,382.68,102.31,382.68,102.31Z" transform="translate(-175.93 -3.06)" fill="url(#linear-gradient-6)"></path><path d="M393.2,26.39l-1.43.77-8.11,4.38C374.57,26,368.55,26.28,365,27.49A19.79,19.79,0,0,1,368.55,23a26.15,26.15,0,0,1,3.28-2.74h0C381,15.88,393.2,26.39,393.2,26.39Z" transform="translate(-175.93 -3.06)" fill="url(#linear-gradient-7)"></path><path d="M391.77,27.16l-8.11,4.38C374.57,26,368.55,26.28,365,27.49A19.79,19.79,0,0,1,368.55,23c.65-.55,1.42-1.21,2.19-1.76h0C379.06,17.3,389.8,25.52,391.77,27.16Z" transform="translate(-175.93 -3.06)" fill="url(#linear-gradient-8)"></path><path d="M382.13,164.1c1.64,3,.55,6.68-.55,9.86-2,5.7-5.86,18.63-10.4,30.14-3.5,8.85-7.41,16.85-11.2,20.06-.2.17-.39.33-.59.47-7.1-21.9-20-18.79-33.57-21.75-12.16-2.63-40.21-5.15-52.48-7.23-19.72-3.28-30.23-1.53-29.68-18.73.32-12.82,10.73-23.66,22.34-29.25s24.65-7.34,37.14-10.63c12.93-3.39,24.76-12.49,37.47-15.66,10.52-2.52,17.2,4.6,22,15.11a6.27,6.27,0,0,1,.77,3.95,6.71,6.71,0,0,1-2.52,3.28C344.34,158,336,155.45,315.3,162.13c17.66-1.86,41.57-8.83,67.14-10.25q4.47-.27,9-.27C393.85,151.61,381,161.91,382.13,164.1Z" transform="translate(-175.93 -3.06)" fill="#68e1fd"></path><path d="M601.24,66.93c-.33,2-1.75,3.5-3.29,4.93-14.68,14.24-29.47,28.48-44.15,42.61-24.1,23.34-48.2,46.56-72.3,69.9-9.32,9-20.16,18.62-33.2,18.4-2.74-11.94-9.86-33.19-6.9-45.24.49-2-3.27-8.14-2-9.81.26-.36,10.33-1.31,13.34-3.24,6.11-3.94,13.33-7.09,18.37-10.4A452.3,452.3,0,0,0,542.3,76.35c10.84-10.85,21.9-22.67,35.26-29.45a55.87,55.87,0,0,1,5.72-2.53,50.13,50.13,0,0,1,7.11-2.09q4.77,9.69,9.53,19.39C600.69,63.31,601.57,65.07,601.24,66.93Z" transform="translate(-175.93 -3.06)" fill="#68e1fd"></path><path d="M596,34.61c.66-6.46.22-13.37,3-19.17.65-1.43,2.08-3.07,3.61-2.63,1.32.33,1.87,2,2.19,3.28,1,5.48.11,11.51,2.85,16.44,6.36-8.88,12.6-17.86,19-26.73,1.09-1.54,2.62-3.18,4.38-2.63-.33,8.32-4.71,15.88-8.88,23,1.76-1.75,4.93-.54,6,1.65s.44,4.82-.66,7a4.57,4.57,0,0,1,5.7,7.12l14.57-4.27c.11,2.63-2.41,4.38-4.71,5.69-16.43,9.53-33.09,19.18-51.49,23.56-3.4-5.37-7.56-11.61-3-16.65C592.8,45.35,595.32,41.51,596,34.61Z" transform="translate(-175.93 -3.06)" fill="url(#linear-gradient-9)"></path><path d="M608.69,38a2.36,2.36,0,0,0,.76,3,3.56,3.56,0,0,0,1.87.33,15.49,15.49,0,0,0,8.21-2.63c-3.06,2.3-6.24,4.82-7.45,8.44a1.54,1.54,0,0,0,0,1.53,1.87,1.87,0,0,0,1.1.66c3.61.66,6.9-2.08,10.19-3.83,2.08-1.1,4.27-1.87,6.35-3.07a9,9,0,0,0,4.49-5.15,2.35,2.35,0,0,0-.54-2.52,2.58,2.58,0,0,0-2.52.11c-2.41.87-4.82,1.75-7.23,2.74a12.17,12.17,0,0,0,5.14-9.1,2.85,2.85,0,0,0-.32-1.64c-2-2.85-8.77,1.32-10.74,2.74-1.31,1-2.52,2.19-3.83,3.29C612.41,34.28,609.67,35.81,608.69,38Z" transform="translate(-175.93 -3.06)" fill="url(#linear-gradient-10)"></path><path d="M360.66,101.22c-1.53,0-2.41,1.64-3,3.07a18.81,18.81,0,0,0-.88,7.77,8.89,8.89,0,0,0,2,5c3.83,4.28,9.75-1,9.75-5.58C368.55,108.45,364.05,101.11,360.66,101.22Z" transform="translate(-175.93 -3.06)" fill="url(#linear-gradient-11)"></path><path d="M520.28,507.11a47.28,47.28,0,0,0-1.32,10.3,3.56,3.56,0,0,0,.44,1.86,3.6,3.6,0,0,0,1.75,1.32,32,32,0,0,0,24.22,1.31,4.39,4.39,0,0,0,2.41-1.53,3.81,3.81,0,0,0,0-3.73,31.56,31.56,0,0,0-2.09-3.17c-2.3-3.73-2.08-8.33-1.64-12.71a152.6,152.6,0,0,1,2.52-15.67c.33-1.42-18.84-3.61-21.36-.65-1.64,1.86-1.64,6.68-2.08,9C522.25,498,521.26,502.51,520.28,507.11Z" transform="translate(-175.93 -3.06)" fill="url(#linear-gradient-12)"></path><path d="M527.84,505.25a25.46,25.46,0,0,0-6.9-1.75c-2.41-.11-4.93.77-6.14,2.85a7.06,7.06,0,0,0-.88,2.95c-1.53,8.22-3.06,16.44-4.71,24.76a6,6,0,0,0,0,3.4c.55,1.53,2.19,2.52,3.84,3.07,5.15,1.86,10.73,2,16.1,2.08l56,1a4.68,4.68,0,0,0,2.41-.44c2-1.1,1.21-4.17-.11-5.92-4.38-6.35-12-9.42-18.95-12.82A44.67,44.67,0,0,1,558.29,518c-2.63-2.41-4.27-6.79-7.34-8.66-2.41-1.42-5.26-1-7.89-1.09A66,66,0,0,1,527.84,505.25Z" transform="translate(-175.93 -3.06)" fill="#68e1fd"></path><path d="M523.89,554c4.71.22,9.32,2,14,2.74a75,75,0,0,0,14.9.33c7.55-.44,15.22-.77,22.78-1.2,3.07-.11,6.36-.33,9-2s4.49-5,3.17-7.78c-1.42-3.06-5.47-3.83-8.87-4.05-19.5-1.42-39.22-3.83-58.83-4.38-5.81-.11-14.79,1.2-14.13,9.09C506.91,555.65,517.87,553.67,523.89,554Z" transform="translate(-175.93 -3.06)" fill="#68e1fd"></path><path d="M552.6,510a3.82,3.82,0,0,1,1.42-4.71,4,4,0,0,1,4.93.66c1.32,1.53,1.32,3.72,1.42,5.7a20.13,20.13,0,0,0,4.39,10.95" transform="translate(-175.93 -3.06)" fill="#68e1fd"></path><path d="M252.66,517.66c-4.6,7.89-12.29,17.28-18.65,23.74,4,7,13.59,9.1,21,6.25s12.93-9.42,16.65-16.54c-8.11-2.3-12.69-8-19-13.45" transform="translate(-175.93 -3.06)" fill="url(#linear-gradient-13)"></path><path d="M266.71,545.94a27.9,27.9,0,0,1-3.88,5.21c-6.14,6.8-12.27,13.7-18.41,20.49-2.3,2.52-4.6,5.15-7.78,6.25-2.73,1-5.69.76-8.65.54-11.24-.8-22.48-1.68-33.81-2.48l-3.44-.26a8.41,8.41,0,0,1-3.72-.87c-3.18-1.86-2.63-6.58-1.1-9.86a28.31,28.31,0,0,1,17.2-14.9c5.26-1.64,11-1.75,15.78-4.16,3.94-2,6.79-5.15,9.86-8,4.38-4.16,5-5.7,10.73-3.51,2.07.66,28.38,7.51,28.38,5.94A8.89,8.89,0,0,1,266.71,545.94Z" transform="translate(-175.93 -3.06)" fill="#68e1fd"></path><path d="M198,582.92c12.05,1.54,24.21,3.07,36.26,3a25.09,25.09,0,0,0,9.43-1.42,9.4,9.4,0,0,0,5.91-7c.22-1.65-.33-3.51-1.86-4.06a5.52,5.52,0,0,0-1.32-.22c-17.41-1.64-34.72-3.39-52.14-5-5.92-.55-13.7.76-14,8.32C180,583.47,193,582.27,198,582.92Z" transform="translate(-175.93 -3.06)" fill="#68e1fd"></path><path d="M349.26,122c3.51.44,6.58-2.3,8.11-5.47s1.86-6.69,3-10a22,22,0,0,1,23.66-14,1.88,1.88,0,0,1,1.43.77c.33.66-.22,1.31-.77,1.86a21.16,21.16,0,0,1-8.43,4.93c6-2.08,13-2.85,19.28-1.31-.33,1.31-1.65,2.19-2.74,2.85-5,3.06-10,6-15,9.09,5.15-2.85,10.74-5.92,16.65-5.59.66,1.21-.55,2.52-1.64,3.29-3.84,2.85-7.56,5.7-11.4,8.54a20.67,20.67,0,0,1,9.1-2.95c-2,4.16-7.34,5.25-10.08,9a34.63,34.63,0,0,0-2.3,4.6,24.34,24.34,0,0,1-11.94,11.94c-1,.44-2.19.77-3.07.11a3.18,3.18,0,0,1-.88-1.42C359.56,131.67,355.18,125.65,349.26,122Z" transform="translate(-175.93 -3.06)" fill="url(#linear-gradient-14)"></path><path d="M416.76,160.47s2,21.38,1.09,29.71,11.06,91.58,12,118.42-5.59,25-5.59,25c-16.54,8.33-55.22,6.14-55.22,6.14l-4.27,7.34s27.39,3.28,61-4.28a257.44,257.44,0,0,0,54.34-19.17l-7.34-3.07s-34.29,11.95-48.53,13" transform="translate(-175.93 -3.06)" fill="none" stroke="#fff" stroke-miterlimit="10" stroke-width="1.1"></path><path d="M584,43.05s-7.12,11.06-2.52,21.25S595.1,74.49,595.1,74.49" transform="translate(-175.93 -3.06)" fill="none" stroke="#fff" stroke-miterlimit="10" stroke-width="0.96"></path><path d="M424.78,329.51c-5.43,12.66-53.52,10.32-55.62,10.21a.41.41,0,0,0-.07-.11c-3.17-5.7-3.94-12.38-4.6-18.85-3.5-32-7-64.6-4.51-96.6-.2.17-.39.33-.59.47-7.1-21.9-20-18.79-33.57-21.75-12.16-2.63-40.21-5.15-52.48-7.23-19.72-3.28-30.23-1.53-29.68-18.73,0,0,91.66,15.62,108.94,18.71a42.81,42.81,0,0,1,10.72,3.28,30.84,30.84,0,0,1,7.86,5.19c4.25,3.87,7,8.49,9.8,13.12,5.54,9.26,6.78,75.88,11.1,97.47S424.78,329.51,424.78,329.51Z" transform="translate(-175.93 -3.06)" fill="url(#linear-gradient-15)"></path><path d="M282.84,164.65c4.74-4,10.86-5.93,16.75-7.91a354.14,354.14,0,0,0,51.93-22.2,8.76,8.76,0,0,1,2.9-1.11c4.07-.48,6.35,4.49,7.3,8.48-4.25,1-7.19,4.73-10.53,7.56-9.73,8.21-22.05,7.84-33.63,11.11-4.91,1.38-8.77,2.61-14,2.91l-10.62.59C291,164.19,284.24,163.46,282.84,164.65Z" transform="translate(-175.93 -3.06)" fill="url(#linear-gradient-16)"></path><path d="M577.56,46.9l-.4,13S473.72,158,433,154.3c-8.11-.74,7.34-5.53,6.38-6.58-.11-.13,13.34-3.24,13.34-3.24,6.11-3.94,13.33-7.09,18.37-10.4A452.3,452.3,0,0,0,542.3,76.35C553.14,65.5,564.2,53.68,577.56,46.9Z" transform="translate(-175.93 -3.06)" fill="url(#linear-gradient-17)"></path><path d="M382.44,151.88s13.65,12,28.76,9.82,5.56-1.23,5.56-1.23-20.67-9.26-20.67-17.89S382.44,151.88,382.44,151.88Z" transform="translate(-175.93 -3.06)" fill="#68e1fd"></path><path d="M439.38,147.72s2.84,8.81-11.2,14.81-5.39,1.83-5.39,1.83,11.4-20.57,6.92-28S439.38,147.72,439.38,147.72Z" transform="translate(-175.93 -3.06)" fill="#68e1fd"></path><path d="M439.38,147.72s.31,2.67-9.67,9.46l-5.55,2.88s10-16.27,5.55-23.65S439.38,147.72,439.38,147.72Z" transform="translate(-175.93 -3.06)" fill="url(#linear-gradient-18)"></path><path d="M382.44,151.88s13.61,11.64,28.76,9.82c5.15-.62,6-1.93,6-1.93s-21.09-8.56-21.09-17.19S382.44,151.88,382.44,151.88Z" transform="translate(-175.93 -3.06)" fill="url(#linear-gradient-19)"></path><path d="M540.14,404.77c-.92,13-7.41,75.88-7.41,75.88l-9.84-.17a7,7,0,0,1-.53-1.74c-2.3-12.71,4.6-67.92,4.6-67.92s-58.72-40.32-84-33.42c0,0,14.85-11.5,26.88-9.65s63.86,24.06,63.86,24.06S541.06,391.81,540.14,404.77Z" transform="translate(-175.93 -3.06)" fill="url(#linear-gradient-20)"></path><path d="M399.48,348.32c-9.25,3.7-37,36.08-60.15,63.84-21.66,26-80.61,97.74-88,106.73a16.37,16.37,0,0,1-.36-3.43,16.54,16.54,0,0,1,2.88-9.33L363,348.55C377.48,350,399.48,348.32,399.48,348.32Z" transform="translate(-175.93 -3.06)" fill="url(#linear-gradient-21)"></path><path d="M266.71,545.94a27.9,27.9,0,0,1-3.88,5.21c-6.14,6.8-12.27,13.7-18.41,20.49-2.3,2.52-4.6,5.15-7.78,6.25-2.73,1-5.69.76-8.65.54-11.24-.8-22.48-1.68-33.81-2.48a9.07,9.07,0,0,1-.13-2.7,6,6,0,0,1,1.12-3.3,5.71,5.71,0,0,1,2.17-1.53c2.86-1.27,6.09-1.34,9.22-1.37l21.37-.28c2.73,0,5.58-.1,8-1.34a18.15,18.15,0,0,0,3.28-2.31q4-3.29,8-6.59c4.59-3.77,9.24-7.6,14.69-10A7,7,0,0,1,266.71,545.94Z" transform="translate(-175.93 -3.06)" fill="url(#linear-gradient-22)"></path><path d="M517,510a2.84,2.84,0,0,1,3.18-1.9,19.63,19.63,0,0,1,6.65,1c5,1.94,8,7.15,10,12.12,1.71,4.08,3.28,8.46,6.67,11.29a28,28,0,0,0,6.72,3.66,100.41,100.41,0,0,1,14.4,7.87c.33.22.7.54.61.92s-.39.45-.67.56a18.62,18.62,0,0,1-6.26.85,115.35,115.35,0,0,1-12.45-.85q-10.7-1.17-21.34-2.8a52.27,52.27,0,0,1-9.91-2.23,7,7,0,0,1-2.49-1.38,5.79,5.79,0,0,1-1.55-3.39,20.53,20.53,0,0,1,.59-6.92c.69-3.44,1.25-6.93,2-10.34C513.79,516,515.17,511.82,517,510Z" transform="translate(-175.93 -3.06)" fill="url(#linear-gradient-23)"></path><path d="M518.92,544.35a15.25,15.25,0,0,0-4.86-.73A5,5,0,0,0,510,546c-1,1.93,0,4.45,1.79,5.73a10.41,10.41,0,0,0,6.23,1.56,41.84,41.84,0,0,1,6.53.05c2.29.36,4.41,1.38,6.64,2a36.64,36.64,0,0,0,7.53,1c12.92.74,26.31.8,38.27-4.15a2.09,2.09,0,0,0,1.23-.93,1.49,1.49,0,0,0-.79-1.8,4.43,4.43,0,0,0-2.11-.32c-8.62.15-17.3.76-25.9.17A170.55,170.55,0,0,1,518.92,544.35Z" transform="translate(-175.93 -3.06)" fill="url(#linear-gradient-24)"></path><path d="M236.09,551.46a28.72,28.72,0,0,0,12.68-8,1,1,0,0,0,.35-.68,1,1,0,0,0-.48-.67,29.26,29.26,0,0,0-12.53-5.53,4.41,4.41,0,0,0-2.47.07,5.09,5.09,0,0,0-1.94,1.86,42,42,0,0,1-8.92,8.93c-.55.41-1.18.94-1.1,1.62a1.77,1.77,0,0,0,.79,1.1,12.88,12.88,0,0,0,13.15,1.55" transform="translate(-175.93 -3.06)" fill="url(#linear-gradient-25)"></path><g><path d="M552.07,198.18l52.37-27-2.35,48.52s-5.63,16.15-13.14,10.14,8.64-16.14,8.64-16.14l.37-23.28-40.17,19.52.76,28.16s-6,19.14-12.39,12.76,6.75-19.14,6.75-19.14Z" transform="translate(-175.93 -3.06)" fill="#68e1fd"></path><path d="M269.67,258.15l10.69-43.36s17.27,13.89,14.65,24-12.39,12.76-12.39,12.76,5.25-8.63,4.13-11.63-7.32-8.26-7.32-8.26L271,267s-11.26,17.26-16.14,4.88S269.67,258.15,269.67,258.15Z" transform="translate(-175.93 -3.06)" fill="#68e1fd"></path></g></svg>