<svg xmlns="http://www.w3.org/2000/svg" xmlns:xlink="http://www.w3.org/1999/xlink" version="1.1" id="Layer_1" x="0px" y="0px" viewBox="0 0 2000 2000" style="enable-background:new 0 0 2000 2000;" xml:space="preserve">
<style type="text/css">
	.st0{opacity:0.22;}
	.st1{fill:#FFBE55;}
	.st2{opacity:0.67;fill:#FFBE55;}
	.st3{fill:#0B4870;}
	.st4{fill:#EFB68F;}
	.st5{fill:#D3D3D3;}
	.st6{fill:#E0E0E0;}
	.st7{fill:#FCD2B1;}
	.st8{fill:#F7F7F7;}
	.st9{fill:#2A94F4;}
	.st10{fill:#FFFFFF;}
</style>
<g id="Floor" class="st0">
	<path class="st1" d="M453.6,1357c-37.7-35.5-149.4-140.8-168-308c-20.1-180.9,73.1-395.2,221-447c110.2-38.6,155.8,46.3,357,36   c105.7-5.4,123.9-30.4,307-79c270.6-71.8,405.9-107.7,476-53c121.9,95.1,68.2,388.1-27,570c-14.4,27.5-64.4,118.9-167,212   c-28.8,26.2-346.9,306-723,214C681.7,1490.3,562.3,1459.5,453.6,1357z"/>
	<ellipse class="st2" cx="926.6" cy="1442" rx="559" ry="23"/>
</g>
<g>
	<g id="New_Year">
		<g>
			<path class="st3" d="M476,858.6l-16.1-3.7l-11.1-32.5c-1.4-4.2-2.7-9.1-3.8-14.9c0.1,4.4-0.2,8-0.9,10.9l-7.2,31.1l-16-3.7     l14.8-64.3l18.6,4.3l9.6,27c1.9,5.4,3.2,10,3.9,13.9c0.3-5.7,1.1-11.5,2.4-17.2l4.4-19l16.1,3.7L476,858.6z"/>
			<g>
				<path class="st3" d="M423.1,763l93.5,21.6l-21.6,93.5l-93.5-21.6L423.1,763 M418.6,755.8l-1.3,5.8l-21.6,93.5l-1.3,5.8l5.8,1.3      l93.5,21.6l5.8,1.3l1.3-5.8l21.6-93.5l1.3-5.8l-5.8-1.3l-93.5-21.6L418.6,755.8L418.6,755.8z"/>
			</g>
		</g>
		<g>
			<path class="st3" d="M616.3,869.2l1,15.7l-49.5,3.2l-4.2-65.8l49.5-3.2l1,15.2l-29.7,1.9l0.6,9.5l24-1.5l0.9,14.6l-24,1.5     l0.7,10.8L616.3,869.2z"/>
			<g>
				<path class="st3" d="M630.9,802.5l6.2,95.8l-95.8,6.2l-6.2-95.8L630.9,802.5 M636.5,796.1l-6,0.4l-95.8,6.2l-6,0.4l0.4,6      l6.2,95.8l0.4,6l6-0.4l95.8-6.2l6-0.4l-0.4-6l-6.2-95.8L636.5,796.1L636.5,796.1z"/>
			</g>
		</g>
		<g>
			<path class="st3" d="M763.7,813.6l-21.4,64.8l-17-1l-7-36.9l-10.9,35.8l-17.7-1.1l-13.6-66.9l19,1.1l6.9,38.5l11.2-37.4l15.9,0.9     l7.5,38.6l11.5-37.4L763.7,813.6z"/>
			<g>
				<path class="st3" d="M673,792.7l95.8,5.7l-5.7,95.8l-95.8-5.7L673,792.7 M667.4,786.4l-0.4,6l-5.7,95.8l-0.4,6l6,0.4l95.8,5.7      l6,0.4l0.4-6l5.7-95.8l0.4-6l-6-0.4l-95.8-5.7L667.4,786.4L667.4,786.4z"/>
			</g>
		</g>
		<g>
			<path class="st3" d="M1033.2,878.1l0,15.8l-49.6,0l0-66l49.6,0l0,15.2l-29.8,0l0,9.6l24.1,0l0,14.6l-24.1,0l0,10.8L1033.2,878.1z     "/>
			<g>
				<path class="st3" d="M962.1,812.5l96,0l0,96l-96,0L962.1,812.5 M956.1,806.5l0,6l0,96l0,6l6,0l96,0l6,0l0-6l0-96l0-6l-6,0l-96,0      L956.1,806.5L956.1,806.5z"/>
			</g>
		</g>
		<g>
			<path class="st3" d="M1153.3,818.5l-5.2-12.5l-17.6,2l-2.5,13.4l-16.3,1.8l12.9-67.8l21.3-2.4l27.9,63.2L1153.3,818.5z      M1132.4,793.3l10.6-1.2l-7.4-18.4L1132.4,793.3z"/>
			<g>
				<path class="st3" d="M1181.4,733.4l10.7,95.4l-95.4,10.7l-10.7-95.4L1181.4,733.4 M1186.7,726.8l-6,0.7l-95.4,10.7l-6,0.7l0.7,6      l10.7,95.4l0.7,6l6-0.7l95.4-10.7l6-0.7l-0.7-6l-10.7-95.4L1186.7,726.8L1186.7,726.8z"/>
			</g>
		</g>
		<g>
			<path class="st3" d="M1298.7,755.2l-20.7,8.6l-18.6-19.6l-5.9,2.5l9.7,23.3l-18.7,7.8l-25.3-60.9l31.8-13.2     c7-2.9,13.2-3.5,18.4-1.9c5.2,1.7,9,5.2,11.2,10.6c1.5,3.5,2,6.9,1.7,10.2c-0.3,3.3-2.2,6.9-5.7,10.7L1298.7,755.2z M1248,733.6     l8-3.3c2.3-1,4-2.3,5.1-3.8c1-1.6,1.1-3.3,0.3-5.2c-1.6-3.9-4.8-4.8-9.6-2.9l-8.6,3.6L1248,733.6z"/>
			<g>
				<path class="st3" d="M1284.9,672.7l36.9,88.6l-88.6,36.9l-36.9-88.6L1284.9,672.7 M1288.2,664.9l-5.5,2.3l-88.6,36.9l-5.5,2.3      l2.3,5.5l36.9,88.6l2.3,5.5l5.5-2.3l88.6-36.9l5.5-2.3l-2.3-5.5l-36.9-88.6L1288.2,664.9L1288.2,664.9z"/>
			</g>
		</g>
	</g>
	<g>
		<path class="st3" d="M907.8,838.9l-20.6,38v27.9h-19.7v-27.9l-22.2-38h22.2l11.6,21.7l11.1-21.7H907.8z"/>
		<g>
			<path class="st3" d="M927.1,823.5v96h-96v-96H927.1 M933.1,817.5h-6h-96h-6v6v96v6h6h96h6v-6v-96V817.5L933.1,817.5z"/>
		</g>
	</g>
</g>
<g>
	<path class="st1" d="M716.5,628.5c-6.5-3.7-14.5-5.5-22.3-7.6c6.4-6.4,13.7-14.7,12.6-21.8c-0.2-1.4-2.1-2.3-3.3-1.9   c-3.9,1.2-5,3.4-7.3,6.8c-2.9,4.4-6.1,8.5-9.5,12.5c-2.2-8.6-3.5-19.8-9.2-26.9c-0.5-0.7-1.5-0.2-1.7,0.5   c-2.4,7.4-0.7,16.7,0.7,24.7c-7.6-2.8-15.7-5-23.4-2.9c-1.5,0.4-1.7,2.4-0.4,3.2c7.6,4.5,16.8,7.2,25.3,10.2c0,0.3,0.1,0.6,0.1,0.9   c-6.5,6.8-13.5,13.1-19.1,20.6c-0.5,0.7,0.4,1.8,1.2,1.5c7.2-2.5,13.6-7.5,19.4-12.9c1.1,6,2.8,11.8,5.7,16.2c3.3,5,11.9,2,10-4.2   c-1.7-5.7-3.3-11.3-4.9-17c8.2,3.4,17.2,6.7,25.3,4.5C718.5,634.1,719.1,630,716.5,628.5z"/>
	<path class="st1" d="M623,635.1c-6.6,0-13-1.7-19.4,0c-1.7,0.4-1.7,2.9,0,3.3c6.7,1.8,13.1,0,19.6-2.1   C623.9,636.1,623.8,635.1,623,635.1z"/>
	<path class="st1" d="M574.5,642.5c-7.7-0.7-16.7-1.7-23.5,2.5c-2.1,1.2-1.7,4.4,0.7,5.1c7.6,2.2,17.1,0.2,23.7-4.4   C576.8,644.6,576.2,642.6,574.5,642.5z"/>
	<path class="st1" d="M522.5,653.2c-5.3-1-10.7-0.3-16-0.1c-4.8,0.2-10.5-0.7-14.6,2.3c-1.8,1.3-1.8,3.6,0,4.9   c4.2,3,9.7,1.8,14.6,1.2c5.6-0.7,11.4-1.2,16.6-3.4C525.2,657.1,524.7,653.6,522.5,653.2z"/>
	<path class="st1" d="M646.9,651.4c-3.1,0.7-5.9,2.1-8.7,3.7c-3.2,1.8-5.2,3.4-6.9,6.7c-1.1,2.1,0.7,4.2,2.9,3.8   c3.7-0.7,5.7-2.3,8.3-5c2.2-2.3,4.3-4.7,5.8-7.4C648.8,652.2,648,651.2,646.9,651.4z"/>
	<path class="st1" d="M609.6,681.8c-4.7,3-9.3,6.3-12.5,10.9c-1,1.4,0.6,3.4,2.2,2.9c5.7-1.9,10.7-6.1,12.6-12   C612.3,682.3,610.7,681.1,609.6,681.8z"/>
	<path class="st1" d="M566.4,722c-9.1,4.9-17.6,13.1-22.1,22.3c-1,2.1,1.5,4.1,3.3,2.5c7.6-6.7,14.8-14.7,20.8-22.9   C569.3,722.7,567.6,721.3,566.4,722z"/>
	<path class="st1" d="M616.4,652c-25.5,13.2-54.3,23.3-76.7,41.5c-1.5,1.2,0.4,3.6,2,2.6c24.4-14.7,55.4-22.2,75.5-43.2   C617.7,652.5,617,651.7,616.4,652z"/>
	<path class="st1" d="M666,671.1c-0.3-0.5-0.9-0.6-1.4-0.4c-6.3,2.9-11.5,12.6-16.1,17.8c-7.6,8.6-13.5,18.4-19.5,28.1   c-12.7,20.4-26.4,42.5-29.6,66.7c-0.3,2.6,3.5,3.2,4.7,1.3c13.7-22.4,23.6-46.9,37.2-69.4c5.5-9.1,11.2-17.6,17.6-26.1   C662.4,684.6,669.3,677,666,671.1z"/>
	<path class="st1" d="M685.3,692.4c-0.8-5.1-2-10.5-4.8-14.8c-0.3-0.5-1-0.3-1.1,0.3c-0.5,5,0.2,10.2,0.3,15.3   c0.1,4.5-1.1,9.4,1.6,13.2c1,1.4,2.8,1.4,3.8,0C687.7,702.3,686,697,685.3,692.4z"/>
	<path class="st1" d="M690,739.4c-0.9-4.8-2.4-9.2-2.7-14.1c-0.4-5.4-8.2-5.5-8.4,0c-0.2,4.6,0.4,9.2,1,13.7   c0.6,4.5,1.1,8.1,5.7,9.8c0.9,0.3,1.8-0.1,2.5-0.6C691.1,745.6,690.7,743,690,739.4z"/>
	<path class="st1" d="M704,796.8c-1.1-5.3-2.7-10.7-4.7-15.8c-1.4-3.6-2.6-7.4-6.1-9.5c-0.8-0.5-1.7,0-2,0.8   c-1.2,3.5,0,7.2,0.6,10.8c1,5.4,1.8,10.9,3.1,16.2C696.4,805.3,705.2,802.7,704,796.8z"/>
	<path class="st1" d="M658.3,722c-10.1,24.8-10.2,53.9-9.3,80.2c0.1,1.8,2.8,1.8,2.9,0c1.1-26.9,5.6-53.3,7.5-80.1   C659.4,721.5,658.5,721.5,658.3,722z"/>
	<path class="st1" d="M721.7,668.1c-2.6-3-8.2-8.6-12.5-6.1c-1.2,0.7-1.6,2-1.4,3.3c0.3,2,2.4,3.5,3.7,4.9c1.7,1.8,3.1,4,4.6,6.1   c1.4,2,2.9,5.5,5.2,6.6c1.7,0.8,4.5,1.9,6,0C731.3,677.9,724.8,671.6,721.7,668.1z"/>
	<path class="st1" d="M763.9,718.5c-1.5-3.8-4.5-6.6-7.2-9.6c-3.1-3.6-6-7.6-9.4-10.9c-1.1-1-2.9,0-2.5,1.4c1.1,4.3,3.8,8.5,6.5,12   c2.9,3.7,5.8,7.7,10.3,9.5C762.9,721.3,764.4,719.7,763.9,718.5z"/>
	<path class="st1" d="M791.3,748.4c-2.6-3.5-5.6-6.8-8.3-10.3c-3.4-4.3-9.5,1.8-6,6c2.4,2.8,4.8,5.5,7.2,8.4c2.4,2.8,4.3,6,8,7.3   c1,0.3,2-0.4,2.3-1.3C795.6,754.7,793.5,751.3,791.3,748.4z"/>
	<path class="st1" d="M741.8,741.1c-4.7-11.1-11.5-20.6-18-30.7c-6.4-9.9-11.9-21.4-20.2-29.9c-0.5-0.5-1.3,0-1.2,0.7   c2.8,11.5,10.2,22.1,16.1,32.3c6.1,10.6,11.9,21,20,30.1C740.2,745.6,742.7,743.1,741.8,741.1z"/>
	<path class="st1" d="M863.4,708.4c-8.5-10.6-21.7-18.3-32.4-26.6c-10.5-8.1-21.2-16.2-33-22.5c-20.2-10.8-45.3-12.5-64-26.2   c-0.5-0.4-1.1,0.4-0.7,0.9c15.5,16.4,38,21.7,57.8,31.2c13.2,6.4,25,16.3,36.4,25.4c10,8,20.5,18.8,32.9,22.9   C863.6,714.6,865.1,710.6,863.4,708.4z"/>
	<path class="st1" d="M881.4,538.9c-31.4,4.6-61.6,13.3-91.2,24.7c-26.8,10.3-56.6,23.5-76,45.4c-1.6,1.8,0.4,4.3,2.5,3.3   c13-6.5,25.2-14.5,38-21.3c13.4-7,27.5-12.9,41.7-18.2c28.4-10.6,58.1-17.5,86.6-27.8C887,543.6,885.4,538.3,881.4,538.9z"/>
	<path class="st1" d="M767.1,610.4c-3.4-5.3-11.1-1.9-15.8-0.3c-3.6,1.2-7.1,2.5-10.7,3.8c-2.5,0.9-5.7,1.2-7.5,3.4   c-0.2,0.2-0.3,0.5-0.1,0.8c2.5,4.4,10.9,2,14.7,1.1c3.8-0.9,7.5-2,11.3-2.8c3.2-0.6,6.3-0.7,8-3.9   C767.5,611.9,767.6,611.1,767.1,610.4z"/>
	<path class="st1" d="M810.1,597.8c-4.9-1-8.6-0.4-13.4,1c-5.2,1.5-11.1,2.6-15.4,6c-1.1,0.8-1.2,2.8,0.4,3.2   c4.4,1,8.9,0.1,13.2-0.7c5.8-1.1,10.9-1.8,15.7-5.4C812,600.7,812.2,598.2,810.1,597.8z"/>
	<path class="st1" d="M857,590.6c-4.1-2.1-7.5-2.4-12.1-1.9c-3.6,0.4-9.5,0.5-12.6,2.6c-1.4,1-1.9,3-0.6,4.3   c2.8,2.8,8.3,2.1,11.9,2.1c5.1-0.1,8.9-1,13.3-3.4C858.4,593.6,858.5,591.4,857,590.6z"/>
	<path class="st1" d="M850.7,626.6c-14.6-1.4-29-1.1-43.6-0.3c-7.1,0.4-14.2,0.8-21.4,1c-5.5,0.2-11.8-0.6-16.6,2.4   c-0.5,0.3-0.5,1,0,1.4c8.1,5.9,24.7,3.2,34.3,3.3c15.8,0.1,31.5-0.7,47.3-2.2C854.2,631.8,854.2,627,850.7,626.6z"/>
	<path class="st1" d="M768.4,472.3c-15.2,16.6-27.9,34.9-38.7,54.6c-8.8,16-20.3,39.7-15.6,58.3c0.1,0.5,0.9,0.6,1.2,0.2   c4.3-8.1,6.2-17.5,9.3-26.2c3.9-10.7,9.4-20.8,15-30.6c10.3-18.1,23.1-34.6,33.6-52.6C774.9,473.1,770.8,469.8,768.4,472.3z"/>
	<path class="st1" d="M672,533.8c-1-13.4-1.2-26.8-1.3-40.2c-0.1-13.4-0.4-26.8-0.8-40.3c-0.3-11.1,0.2-23.6-5-33.7   c-0.9-1.7-3.5-1.2-4,0.5c-3.1,10.5-0.9,22.3-0.4,33.1c0.6,13.4,0.8,26.8,1.3,40.3c0.9,24.9,0.8,53.8,10.3,77.2   c0.6,1.5,2.9,1.4,2.9-0.4C675,558.2,672.9,545.9,672,533.8z"/>
	<path class="st1" d="M697.2,554.2c-1.4-1.9-3.7-1.9-5,0c-2.1,2.9-2.1,5.9-1.7,9.3c0.3,3.2-0.1,6.3,0.8,9.4c0.2,0.8,1.3,1.3,2,0.8   c3-1.9,3.8-4.7,4.8-8C699.2,561.7,699.8,557.6,697.2,554.2z"/>
	<path class="st1" d="M706.1,521.4c-0.5-1.4-2.8-2.2-3.6-0.5c-0.4,0.9-1.1,1.7-1.5,2.6c-0.4,1.1-0.7,2.3-0.9,3.5   c-0.6,2.7-1.3,5.4-2.3,8c-0.9,2.5,2.8,3.8,4.2,1.8c1.5-2.3,2.9-4.7,4-7.3C707.2,526.5,707.2,524.3,706.1,521.4z"/>
	<path class="st1" d="M715.7,484c-0.2-1.9-2-2.7-3.5-1.5c-4.7,3.8-5.4,11.6-6,17.3c-0.3,2.6,3.5,2.8,4.3,0.6   C712.2,495.2,716.5,489.5,715.7,484z"/>
	<path class="st1" d="M748.9,556.7c-4.5,0.7-7.8,3.6-10.8,6.8c-2.3,2.5-5.3,5.3-5.9,8.9c0,0.2,0.1,0.5,0.3,0.5   c3.3,0.9,6.6-1.2,9.1-3.1c3.8-2.9,7.4-5.7,9.8-9.9C752.4,558.1,750.7,556.4,748.9,556.7z"/>
	<path class="st1" d="M785.3,535.5c-4.5,0.3-7.9,2.2-11.3,5c-1.5,1.2-3.2,2.3-4.6,3.7c-0.7,0.6-1.9,2.2-2.3,2.5   c-0.5,0.3-0.3,1.1,0.3,1.1c1,0.1,1.6,0.5,2.8,0.4c2.2-0.2,4.1-0.8,6.2-1.5c4.5-1.6,8.2-3.8,10.8-7.9   C788,537.5,787,535.4,785.3,535.5z"/>
	<path class="st1" d="M819.5,516.9c-3.8-0.7-7.1,1.3-10.4,2.9c-2.8,1.4-5.3,2.5-7.5,4.7c-0.3,0.3-0.2,0.8,0.1,1.1   c2.5,1.9,6,0.5,8.7-0.2c3.6-1,8.2-2.1,10.1-5.7C821.2,518.7,820.8,517.1,819.5,516.9z"/>
	<path class="st1" d="M641.1,595.5c-20-19.6-38.6-40.2-55.4-62.5c-7.9-10.4-15.5-21-23-31.7c-7.4-10.6-14.4-22.3-24.3-30.8   c-2.8-2.4-8.4-0.2-6.9,4c4.7,12.2,12.8,22.6,20.4,33.1c7.9,11,16.1,21.9,24.5,32.5c17.8,22.3,37.2,44,60.7,60.5   C640.3,602.8,643.7,598,641.1,595.5z"/>
	<path class="st1" d="M650.6,568.7c-3.6-6.6-7.8-12.2-12.3-18.2c-1.2-1.6-3.9-0.7-3.3,1.4c1.7,7,4.7,12.2,8.8,18.2   c3.7,5.4,6.8,12,11.5,16.5c0.4,0.4,1,0.1,1-0.4C657,580,653.5,573.9,650.6,568.7z"/>
	<path class="st1" d="M622.5,502c-1.1-1.8-4-0.6-3.4,1.4c2.2,8.5,4,17.1,8.7,24.7c1.2,1.9,3.6,0.6,3.3-1.4   C629.8,517.9,627.1,509.6,622.5,502z"/>
	<path class="st1" d="M620.4,455.6c-0.8-1.6-3.6-0.9-3.5,0.9c0.5,7.1,2.1,13.9,1.3,21.1c-0.4,3.4,4.9,3.3,5.3,0   C624.6,470,623.9,462.5,620.4,455.6z"/>
	<path class="st1" d="M619,616c-24.8-10.1-55.4-10.5-81.7-10.1c-26,0.4-55.6,1.7-79.6,12.6c-3.7,1.7-1.8,7.6,2,7.5   c26-1.1,51.5-7.6,77.6-8.9c27.1-1.4,54.6,2.4,81.5,0.4C619.7,617.4,619.8,616.4,619,616z"/>
	<path class="st1" d="M618,601.7c-6.5-6.1-15.4-9.7-23.4-13.2c-2.2-0.9-4.3,1.4-2.6,3.3c6.2,6.8,14.9,13.2,24.7,13   C618.3,604.9,619.3,602.9,618,601.7z"/>
	<path class="st1" d="M561.4,579.3c-2.5-3.2-5.9-5.3-9.3-7.5c-3.7-2.3-6.6-5-10.8-6.3c-1.3-0.4-2.8,1-2.3,2.3   c1.7,4.5,4.8,6.3,8.9,8.5c4.1,2.2,8.3,3.9,12.9,4.5C561.7,580.8,561.8,579.8,561.4,579.3z"/>
	<path class="st1" d="M500.4,545.4c-5.5-4.4-11.8-10.3-19-11.3c-2.5-0.4-4.7,2.4-2.6,4.5c5.2,5.2,13.7,6.8,20.6,8.6   C500.4,547.4,501.3,546.1,500.4,545.4z"/>
	<path class="st1" d="M819.4,732c-6.2-16.1-21.9-23.1-33.4-34.8c-3.6-3.7-9,1.8-5.6,5.6c10.4,11.7,23.7,20.6,34.7,31.7   C816.8,736.2,820.4,734.5,819.4,732z"/>
</g>
<path class="st3" d="M991,1402c-1-1-2-3-3-4c-2.7-1.2-5.6-2-8.4-2.9c-0.3,2.1-0.4,3.1-0.4,3.1s-54.4,16-73,32.6h106.3  c0,0,1.7-8.7,4.5-22.5c-2.9-0.1-5.9-0.5-9-1.4C1003,1406,997,1402,991,1402z"/>
<polygon class="st4" points="789.1,864.5 815.1,843.5 800.1,827.5 787.2,835.5 778.1,855.5 "/>
<path class="st4" d="M630,936.5c0,0,32.4,58-7.5,84.4l3.1,20.9l-29.8,5l-31.9-90C563.8,956.8,583.5,908,630,936.5z"/>
<path class="st3" d="M946.2,721.8c-14.3,6.9-29,16.2-36.9,28l26.9,36.5c0,0,6.6-2.8,15.7-8.4C940.9,763.3,941.7,741.2,946.2,721.8z"/>
<path class="st3" d="M816.4,1371.2c9.2-45.5,29.6-161.3,3.7-179.7c-32.4-23-146,8-146,8l-32,61c0,0,125.8-28,138.1-21  c7.9,4.5,3.7,80.5-0.2,133.7C791.9,1374.3,804.3,1374,816.4,1371.2z"/>
<path class="st3" d="M870.6,1429.5L819,1394c-12.8,3.9-26.9,3.3-40.9,3.1c-1.4,16.5-2.4,27.5-2.4,27.5L870.6,1429.5z"/>
<path class="st4" d="M819,1394l-6.5-4.5c0,0,1.6-7,3.9-18.3c-12.1,2.8-24.5,3.1-36.5,2c-0.6,8.7-1.3,16.8-1.9,23.9  C792,1397.2,806.2,1397.9,819,1394z"/>
<path class="st3" d="M590.1,1198.5c0,0-31,82-7,100s128,10.5,219-113.7c0,0-1-27.3-29-29.3s-99,60.4-99,60.4L590.1,1198.5z"/>
<path class="st3" d="M877.6,1317.2c-7.2,11.2-16.3,20.9-28.9,26.6l9.4,16.6l82-55L877.6,1317.2z"/>
<path class="st3" d="M851,1318c5.7-6.3,9.5-14.2,14-21.5l-32.4-61.8l-5.1,71.6l12.6,22.4C844.1,1325.6,847.8,1322.2,851,1318z"/>
<path class="st4" d="M865,1296.5c-4.6,7.3-8.3,15.2-14,21.5c-3.2,4.2-6.9,7.6-10.9,10.6l8.6,15.2c12.6-5.7,21.8-15.4,28.9-26.6  l-1.5,0.3L865,1296.5z"/>
<path class="st1" d="M627.2,1041.3c0,0,37.5,20.8,45,43c7.5,22.2-3.6,69.9,10.8,96.3c14.4,26.3-27.5,47.4-65.2,53.5  c-38.7,6.3-27.5-24.6-23.6-62.5c3.9-37.9-29.1-82.7,3.8-125.9C598.1,1045.7,605.4,1033.8,627.2,1041.3z"/>
<path class="st3" d="M597.1,969.5l-9,4c0,0-7-10-11-8s-5,11,10,22c0,0,23,52,10,66s-25,21-28,39s-8,75-48,67s-71,7-72-17  s30-15,42-45s-2-52,26-73c28-21,25-13,22-43s6-43,19-44c0,0,45-45,74-17c21.2,20.4-20,27-42,28C590.1,948.5,598.1,959.5,597.1,969.5  z"/>
<polygon class="st5" points="638.1,1314.5 537.1,1430.5 569.1,1430.5 670.1,1314.5 "/>
<polygon class="st5" points="618.1,1314.5 719.1,1430.5 687.1,1430.5 586.1,1314.5 "/>
<path class="st4" d="M642.4,1028.3c0,0,67.7-39.8,92.7-89.8s43-92,43-92l19,11c0,0-32,95-42,112s-63,75-96,86L642.4,1028.3z"/>
<rect x="530.1" y="1306.5" class="st3" width="199" height="35.5"/>
<path class="st4" d="M566.5,1113.9c0,0-17.4,109.6-0.4,132.6s109-55,109-55l-14-15c0,0-71,30.9-69.5,22.5s14-94,14-94L566.5,1113.9z  "/>
<rect x="530.1" y="1070.5" class="st3" width="28" height="252"/>
<path class="st1" d="M650.5,1017l31.9,27c0,0-18.4,38-41.7,31.9S618.6,1039.1,650.5,1017z"/>
<path class="st1" d="M560.1,1122.5l48-10c0,0,4-48.6-16.5-54.8C571.1,1051.5,560.1,1122.5,560.1,1122.5z"/>
<path class="st6" d="M739.6,817l31.5-33.4c0,0,31.7,32.6,18.6,47.2C778.4,843.3,764.5,837.9,739.6,817z"/>
<polygon class="st6" points="782.1,831.8 809.2,856.7 814.6,851.7 785.8,824.9 "/>
<polygon class="st6" points="811,871.4 807.2,849.1 831.6,843.4 "/>
<path class="st4" d="M794.2,825.3c-0.6,0.9-4.5,8.4,0.2,11.3s4.1,7.4,7.5,8.2c3.4,0.7,7.1,5.8,8.2,5.2c1.1-0.6,7.5-2.4,6.7-9.1  C816,834.1,803.6,811.8,794.2,825.3z"/>
<path class="st4" d="M778.1,846.5c0,0,7-19,12-16s-8,23-8,23L778.1,846.5z"/>
<path class="st4" d="M656.1,1183.5c0,0,5-10,12-21s9.4-9.7,9.2-5.9c-0.2,3.9-5.2,8.9-5.2,11.9s21-8,25-17s5,7,4,10  s-18.3,29.4-28.6,32.2C662.1,1196.5,656.1,1183.5,656.1,1183.5z"/>
<g id="Male">
	<path class="st3" d="M1072,1009.7c0,0-35.8,87.7-61.4,211.2c-12.9,62.5-20.8,107.1-25.4,135.9c10.4,9.5,25.2,11.4,39.8,12.9   c10.4-49,25.1-113.1,34.9-135.4c16.6-37.8,84.5-215.7,84.5-215.7L1072,1009.7z"/>
	<path class="st7" d="M979.6,1395.1c2.9,0.8,5.7,1.7,8.4,2.9c1,1,2,3,3,4c6,0,12,4,17,5c3.1,0.9,6,1.3,9,1.4   c2.1-10.5,4.9-23.9,8-38.6c-14.6-1.5-29.4-3.3-39.8-12.9C981.9,1377.2,980.3,1389.8,979.6,1395.1z"/>
	<path class="st3" d="M1156,1363c5.8-1.6,11.6-1.8,17.4-1.6c8.7-32.9,19.3-78.2,21.5-109.1c3.8-53.8-23.7-193.9-23.7-193.9   l-69.8-31.4c0,0,34.6,199.1,38.4,236.8c2,19.3-1.9,62.9-6.2,101C1141,1364.3,1147.6,1365.8,1156,1363z"/>
	<path class="st7" d="M1164,1395.5c2.2-7.4,5.6-19.5,9.4-34.1c-5.8-0.2-11.6,0-17.4,1.6c-8.4,2.8-15,1.3-22.3,1.8   c-1.5,13.2-3,25.8-4.4,36.4c2.8-0.3,5.7-1.2,8.7-1.2C1146.9,1398.5,1155.5,1396.9,1164,1395.5z"/>
	<path class="st3" d="M1228.2,1442.4c-12.8-28.8-66.6-39-66.6-39s0.9-2.9,2.3-7.9c-8.5,1.4-17.1,3-26,4.5c-2.9,0-5.8,0.9-8.7,1.2   c-2.4,18.8-4.2,31.6-4.2,31.6L1228.2,1442.4z"/>
	<path class="st7" d="M1175.3,800c0,0-49.4,44.4-20.2,82.3l-9.7,18.8l26.6,14.4l59.4-74.8C1231.4,840.6,1228.6,788,1175.3,800z"/>
	<path class="st3" d="M1200.9,839.7c0,0,13.9-1.9,10.6,6.3s-11.2,8-11.2,8l-11.6,40.4c0,0,69.7-54.3,52.6-66.2   c0,0-37.5-67.8-65.5-47.7c-11.2,8-12.7,20.5-1.4,26.7s31.6,13.7,27.8,18.7c-3.8,5.1-10.3,14.4-10.3,14.4l4.5,4.5L1200.9,839.7z"/>
	<path class="st1" d="M1159.7,902.2c0,0-31.2-23.6-56.2,21.8c-25,45.4-34.1,96-34.1,96s92.2,53.1,101.8,34.6   c9.6-18.6,23-50.6,23.7-80.6c0.6-30.1-0.4-48.9-0.4-48.9L1159.7,902.2z"/>
	<path class="st7" d="M1119.9,875.3c0,0-64-51.8-87-79.4c-23-27.5-36.5-58.2-36.5-58.2l-17.9,7.7c0,0,25.6,62.1,44.2,82.6   c18.6,20.5,76.8,76.2,76.8,76.2L1119.9,875.3z"/>
	<path class="st1" d="M1081.4,896l39.5-33.2c0,0,35,52.1,14.4,60.1S1081.4,896,1081.4,896z"/>
	<path class="st7" d="M1219.3,951.5c0,0,45.4,56.3,50.6,47.4c11.3-19.7,26.2-91.5,26.2-91.5l21.1,5.8c0,0-16,124.8-46.1,122.3   s-81.9-71-81.9-71L1219.3,951.5z"/>
	<path class="st1" d="M1187,976.6c0,0-6.1-49.2,4.6-55.6c15.9-9.6,47,39,47,39l-47.8,27L1187,976.6z"/>
	<path class="st8" d="M980.6,708.4c-1.6,0.6-3.1,1.2-4.7,1.7c-7.2,2.3-18.3,6.2-29.7,11.7c-4.5,19.4-5.3,41.5,5.7,56.1   c6.8-4.1,15.1-9.7,23.1-16.8C971.3,744.4,974.6,725.5,980.6,708.4z"/>
	<path class="st3" d="M1020.7,682.6c0,0-19.8,17.6-40.1,25.8c-6,17.1-9.3,36-5.6,52.8c8.2-7.2,16.2-15.9,22-26.1   c12.7-22.1,33.3-37.8,33.3-37.8L1020.7,682.6z"/>
	<path class="st7" d="M962.6,710c0,0-7.5,2.3-3,10c4.5,7.7,8.7,8.3,17,0c8.3-8.3,14.7-8,14-13.1C990,701.8,993.9,688.2,962.6,710z"/>
	<path class="st7" d="M1001.7,748.6c0,0,0.9-22.6-4.1-22.6c-4,0-6.9,25.5-6.9,25.5L1001.7,748.6z"/>
	<path class="st7" d="M1318,919.3c0,0,6.5-22.9-7.3-38.9c-13.6-15.8-14.4,6-11.1,18.1c3.4,12.2,8.3,26.1,12.2,26.4   C1315.8,925.3,1318,919.3,1318,919.3z"/>
	<path class="st6" d="M1291.7,872.5l-6.3-32.6c-0.4-2,0.9-4,2.9-4.4l0,0c2-0.4,4,0.9,4.5,2.9l6.8,32.6c0.4,2.1-0.9,4.1-3,4.5   l-0.5,0.1C1294,875.9,1292.1,874.5,1291.7,872.5z"/>
	<polygon class="st3" points="1294.1,873.4 1307.6,936.1 1310.8,934.8 1296.7,872.1  "/>
	<path class="st7" d="M1292.9,921.8c0,0-1.9-26,4.5-31.1c6.4-5.1,5.8,31.4,5.8,31.4L1292.9,921.8z"/>
	<circle class="st9" cx="1430.6" cy="761" r="82"/>
	<circle class="st10" cx="1430.6" cy="761" r="69"/>
	<g>
		<polygon class="st9" points="1429.6,767.8 1418.6,704.8 1421.5,704.2 1429.6,750.2 1429.6,720 1432.6,720 1432.6,767.5   "/>
	</g>
	<polygon class="st9" points="1273,843.3 1274.1,845.7 1276.7,846.1 1274.9,847.9 1275.3,850.4 1273,849.2 1270.7,850.4    1271.1,847.9 1269.3,846.1 1271.8,845.7  "/>
	<polygon class="st8" points="1269,807.3 1270.1,809.7 1272.7,810.1 1270.9,811.9 1271.3,814.4 1269,813.2 1266.7,814.4    1267.1,811.9 1265.3,810.1 1267.8,809.7  "/>
	<polygon class="st9" points="1298.6,816.7 1300.1,819.8 1303.6,820.3 1301.1,822.8 1301.6,826.2 1298.6,824.6 1295.5,826.2    1296.1,822.8 1293.6,820.3 1297,819.8  "/>
	<circle class="st8" cx="1282.1" cy="827.5" r="2.5"/>
	<circle class="st8" cx="1311.1" cy="848.5" r="2.5"/>
	<circle class="st9" cx="1279.1" cy="800.5" r="2.5"/>
	<circle class="st8" cx="1293.1" cy="805.5" r="2.5"/>
	<circle class="st8" cx="1262.1" cy="830.5" r="2.5"/>
	<circle class="st1" cx="1040.1" cy="681.5" r="9.5"/>
	<circle class="st1" cx="1040.1" cy="654.5" r="4.5"/>
	<circle class="st1" cx="1060.1" cy="689.5" r="4.5"/>
	<circle class="st1" cx="1041.1" cy="671.5" r="4.5"/>
	<circle class="st1" cx="1053.6" cy="665" r="2"/>
	<circle class="st1" cx="1049.6" cy="697" r="2"/>
	<circle class="st1" cx="1057.6" cy="644" r="2"/>
	<circle class="st1" cx="1030.1" cy="681.5" r="9.5"/>
	<rect x="1063.6" y="1149" class="st3" width="35" height="293"/>
</g>
<g id="Table">
	<rect x="906.6" y="1122" class="st3" width="685" height="30"/>
	<rect x="943.6" y="1149" class="st3" width="35" height="293"/>
	<path class="st9" d="M1536.6,1083c0,24.3-26.4,44-59,44c-32.6,0-59-19.7-59-44H1536.6z"/>
	<circle class="st9" cx="1338.6" cy="1103" r="19"/>
	<rect x="1272.6" y="1047" class="st9" width="52" height="75"/>
	<polygon class="st1" points="973.4,1122 1550.3,1122 1319.6,1342  "/>
	<polygon class="st8" points="1052.4,1122 1506.1,1122 1324.6,1295  "/>
	<polygon class="st1" points="1109.4,1122 1447.7,1122 1312.4,1251  "/>
</g>
<g>
	<path class="st1" d="M1211.3,575.3c0.5-0.4,0.3-1.3-0.4-1.4c-3.6-0.5-7.2,1.1-10.5,2.9c0.1-3.8,0.3-8.1-1.3-11.4   c-0.1-0.3-0.6-0.4-0.8-0.1c-2.1,3.6-2,8.9-2.4,12.9c-1.8-1.6-3.6-3.3-5.2-5.1c-1.2-1.4-1.9-2.3-3.8-2.7c-0.6-0.1-1.4,0.4-1.4,1.1   c0,3.3,3.8,6.6,7.2,9.1c-3.4,1.5-7,2.8-9.7,4.9c-1.1,0.9-0.6,2.7,0.8,2.8c3.8,0.5,7.8-1.6,11.3-3.7c-0.3,2.7-0.7,5.4-1.1,8.1   c-0.5,3,3.7,3.8,4.9,1.3c1-2.2,1.4-5,1.5-7.8c3,2.1,6.3,4,9.7,4.7c0.4,0.1,0.7-0.5,0.4-0.8c-3.1-3-6.7-5.5-10.1-8.2   c0-0.1,0-0.3,0-0.4C1204.1,579.6,1208.1,577.9,1211.3,575.3z"/>
	<path class="st1" d="M1226.2,582.5c3-0.4,5.8-1.6,8.9-1.3c0.8,0.1,0.9,1.2,0.2,1.5c-3,1.3-6,0.8-9.1,0.3   C1225.9,583,1225.9,582.5,1226.2,582.5z"/>
	<path class="st1" d="M1248.9,582.7c3.5-0.8,7.5-1.9,10.9-0.4c1,0.4,1,1.9,0,2.4c-3.4,1.5-7.8,1.2-11.1-0.5   C1248,583.8,1248.1,582.9,1248.9,582.7z"/>
	<path class="st1" d="M1273.4,584.2c2.4-0.8,4.9-0.8,7.3-1.1c2.2-0.2,4.8-1,6.8,0.1c0.9,0.5,1.1,1.5,0.3,2.2   c-1.7,1.7-4.3,1.4-6.6,1.5c-2.6,0.1-5.3,0.2-7.8-0.5C1272.4,586.2,1272.5,584.6,1273.4,584.2z"/>
	<path class="st1" d="M1216.3,591.5c1.5,0.1,2.9,0.6,4.2,1.1c1.6,0.6,2.6,1.2,3.6,2.6c0.6,0.9,0,2-1.1,1.9c-1.7-0.1-2.8-0.7-4.1-1.7   c-1.1-0.9-2.3-1.9-3.1-3C1215.5,592,1215.8,591.5,1216.3,591.5z"/>
	<path class="st1" d="M1235.4,603c2.4,1,4.7,2.3,6.4,4.2c0.5,0.6-0.1,1.6-0.8,1.5c-2.7-0.5-5.3-2.1-6.6-4.7   C1234.2,603.4,1234.8,602.7,1235.4,603z"/>
	<path class="st1" d="M1257.8,618.6c4.5,1.6,8.9,4.8,11.6,8.8c0.6,0.9-0.4,2-1.3,1.4c-3.9-2.6-7.7-5.8-11-9.1   C1256.5,619.1,1257.2,618.4,1257.8,618.6z"/>
	<path class="st1" d="M1230.4,589.8c12.5,4.4,26.4,7.1,37.9,14c0.8,0.5,0,1.7-0.8,1.3c-12.1-5.2-26.8-6.6-37.4-14.8   C1229.8,590.1,1230,589.7,1230.4,589.8z"/>
	<path class="st1" d="M1208.9,601.8c0.1-0.2,0.4-0.3,0.6-0.2c3.1,0.9,6.1,5,8.5,7.1c4.1,3.4,7.4,7.5,10.8,11.6   c7.1,8.5,14.9,17.8,17.9,28.6c0.3,1.2-1.4,1.7-2.1,0.9c-7.7-9.3-13.9-19.9-21.6-29.4c-3.1-3.8-6.3-7.3-9.8-10.8   C1211.4,607.7,1207.7,604.7,1208.9,601.8z"/>
	<path class="st1" d="M1201.4,612.8c0.1-2.4,0.2-4.9,1.2-7.1c0.1-0.3,0.5-0.2,0.5,0.1c0.6,2.3,0.6,4.7,0.8,7c0.2,2,1.1,4.2,0.2,6.2   c-0.4,0.7-1.2,0.8-1.7,0.2C1201,617.5,1201.4,615,1201.4,612.8z"/>
	<path class="st1" d="M1202.3,634.6c0.1-2.2,0.5-4.4,0.3-6.6c-0.2-2.5,3.4-3,3.8-0.5c0.4,2.1,0.4,4.2,0.4,6.4c0,2.1,0,3.8-2,4.8   c-0.4,0.2-0.8,0.1-1.2-0.1C1202.3,637.5,1202.3,636.3,1202.3,634.6z"/>
	<path class="st1" d="M1199.7,661.9c0.2-2.5,0.6-5.1,1.1-7.5c0.4-1.7,0.7-3.6,2.2-4.8c0.3-0.3,0.8-0.1,1,0.2c0.8,1.5,0.5,3.3,0.4,5   c-0.1,2.5-0.1,5.1-0.3,7.6C1203.7,665.2,1199.5,664.6,1199.7,661.9z"/>
	<path class="st1" d="M1215.7,624.6c6.2,10.7,8.2,24,9.5,36.1c0.1,0.9-1.2,1-1.3,0.2c-2.3-12.3-6.1-24-8.7-36.2   C1215.2,624.4,1215.6,624.4,1215.7,624.6z"/>
	<path class="st1" d="M1183.2,604c1-1.5,3.2-4.5,5.3-3.6c0.6,0.2,0.9,0.8,0.8,1.4c0,0.9-0.9,1.7-1.4,2.5c-0.7,0.9-1.2,2-1.7,3.1   c-0.5,1-1,2.7-2,3.4c-0.7,0.5-1.9,1.2-2.7,0.4C1179.4,609.2,1182,605.9,1183.2,604z"/>
	<path class="st1" d="M1167.1,629.9c0.4-1.9,1.6-3.3,2.7-4.9c1.2-1.8,2.2-3.9,3.6-5.6c0.4-0.5,1.3-0.2,1.2,0.5   c-0.2,2-1.2,4.1-2.2,5.9c-1.1,1.9-2.2,3.9-4.1,5C1167.8,631.1,1167,630.5,1167.1,629.9z"/>
	<path class="st1" d="M1156.5,645.4c1-1.8,2.1-3.5,3.1-5.3c1.3-2.2,4.5,0.2,3.1,2.4c-0.9,1.4-1.9,2.9-2.7,4.3   c-0.9,1.5-1.6,3-3.2,3.9c-0.4,0.2-1,0-1.1-0.4C1155,648.5,1155.7,646.9,1156.5,645.4z"/>
	<path class="st1" d="M1178.7,638.8c1.4-5.4,3.9-10.2,6.2-15.2c2.3-5,4.1-10.6,7.3-15c0.2-0.3,0.6-0.1,0.6,0.2   c-0.5,5.5-3.2,10.8-5.2,15.9c-2.1,5.2-4.1,10.4-7.2,15.1C1179.7,640.8,1178.5,639.8,1178.7,638.8z"/>
	<path class="st1" d="M1120.9,631.7c3.2-5.4,8.8-9.8,13.1-14.3c4.3-4.4,8.7-8.8,13.6-12.4c8.6-6.3,19.9-8.7,27.6-16.2   c0.2-0.2,0.5,0.1,0.4,0.3c-6,8.5-16,12.4-24.4,18.1c-5.6,3.8-10.4,9.1-15,14c-4.1,4.3-8.2,9.9-13.6,12.6   C1121.2,634.6,1120.3,632.9,1120.9,631.7z"/>
	<path class="st1" d="M1101.6,555.3c14.7,0.1,29.1,2.1,43.4,5.3c12.9,3,27.5,7.1,37.7,15.8c0.8,0.7,0.1,2-0.9,1.7   c-6.4-2.1-12.5-5-18.8-7.3c-6.6-2.3-13.4-4.1-20.3-5.6c-13.7-3-27.7-4.2-41.5-7.1C1099.3,557.8,1099.7,555.3,1101.6,555.3z"/>
	<path class="st1" d="M1158.6,580.6c1.2-2.7,4.9-1.6,7.2-1.2c1.7,0.3,3.4,0.7,5.1,1.1c1.2,0.2,2.7,0.2,3.6,1.1   c0.1,0.1,0.2,0.2,0.1,0.4c-0.9,2.2-4.9,1.6-6.7,1.4c-1.8-0.2-3.6-0.4-5.3-0.5c-1.5-0.1-2.9,0.1-3.9-1.2   C1158.5,581.3,1158.5,580.9,1158.6,580.6z"/>
	<path class="st1" d="M1138.1,577.6c2.2-0.8,3.9-0.8,6.2-0.4c2.5,0.3,5.2,0.5,7.5,1.7c0.5,0.3,0.7,1.2,0,1.5c-2,0.7-4.1,0.6-6.1,0.5   c-2.7-0.1-5.1-0.1-7.5-1.4C1137.4,579.1,1137.2,578,1138.1,577.6z"/>
	<path class="st1" d="M1116.1,577.4c1.7-1.2,3.3-1.6,5.4-1.6c1.7,0,4.4-0.4,5.9,0.4c0.7,0.4,1.1,1.3,0.5,1.9   c-1.1,1.4-3.7,1.5-5.3,1.7c-2.3,0.3-4.1,0.1-6.3-0.7C1115.7,578.9,1115.5,577.8,1116.1,577.4z"/>
	<path class="st1" d="M1121.4,593.5c6.6-1.6,13.2-2.4,19.9-3c3.3-0.3,6.6-0.6,9.9-0.9c2.5-0.3,5.4-1,7.7,0c0.3,0.1,0.3,0.4,0.1,0.6   c-3.3,3.2-11.1,3.1-15.5,3.7c-7.2,1.1-14.5,1.7-21.8,2.1C1120.1,596.1,1119.8,593.9,1121.4,593.5z"/>
	<path class="st1" d="M1149,517.5c8,6.6,15.1,14.2,21.3,22.5c5.1,6.8,11.9,16.8,11,25.7c0,0.2-0.4,0.4-0.5,0.1   c-2.5-3.4-4-7.6-6-11.4c-2.5-4.6-5.7-8.9-8.9-13.1c-5.9-7.6-12.8-14.3-18.8-21.9C1146.1,518.2,1147.8,516.4,1149,517.5z"/>
	<path class="st1" d="M1197.2,539.3c-0.4-6.2-1.2-12.4-2-18.5c-0.8-6.2-1.6-12.3-2.3-18.5c-0.6-5.1-1.6-10.8,0.1-15.7   c0.3-0.8,1.5-0.8,1.9,0c2.1,4.6,1.9,10.2,2.3,15.2c0.6,6.2,1.4,12.3,2,18.5c1.2,11.4,3.1,24.7,0.3,36c-0.2,0.7-1.3,0.8-1.4,0   C1197.4,550.7,1197.6,544.9,1197.2,539.3z"/>
	<path class="st1" d="M1187,550.3c0.5-0.9,1.6-1.1,2.3-0.3c1.2,1.2,1.3,2.6,1.4,4.2c0.1,1.5,0.5,2.9,0.2,4.3   c-0.1,0.4-0.5,0.7-0.9,0.5c-1.5-0.7-2.1-1.9-2.7-3.4C1186.5,553.9,1186,552,1187,550.3z"/>
	<path class="st1" d="M1180.8,535.8c0.1-0.7,1.2-1.2,1.6-0.5c0.3,0.4,0.6,0.7,0.9,1.1c0.3,0.5,0.4,1,0.6,1.5c0.5,1.2,1,2.4,1.6,3.5   c0.6,1.1-1,1.9-1.8,1.1c-0.8-1-1.6-2-2.3-3.1C1180.6,538.3,1180.4,537.3,1180.8,535.8z"/>
	<path class="st1" d="M1173.9,519.3c0-0.9,0.8-1.4,1.5-0.9c2.4,1.4,3.2,5,3.9,7.5c0.3,1.2-1.4,1.5-1.9,0.5   C1176.2,524.3,1173.9,521.9,1173.9,519.3z"/>
	<path class="st1" d="M1163.4,554.8c2.1,0,3.8,1.1,5.4,2.4c1.2,1,2.8,2.1,3.3,3.7c0,0.1,0,0.2-0.1,0.3c-1.4,0.6-3.1-0.1-4.4-0.8   c-1.9-1.1-3.7-2.1-5.1-3.9C1161.9,555.7,1162.6,554.8,1163.4,554.8z"/>
	<path class="st1" d="M1145.4,547.5c2.1-0.1,3.7,0.5,5.5,1.5c0.8,0.5,1.6,0.9,2.3,1.4c0.3,0.2,1,0.9,1.2,1c0.2,0.1,0.2,0.5-0.1,0.5   c-0.4,0.1-0.7,0.3-1.3,0.4c-1,0.1-1.9-0.1-2.9-0.3c-2.2-0.4-4-1.2-5.5-2.9C1144.3,548.6,1144.6,547.5,1145.4,547.5z"/>
	<path class="st1" d="M1128.5,541.2c1.7-0.6,3.3,0.1,5,0.7c1.4,0.5,2.6,0.8,3.7,1.7c0.2,0.1,0.1,0.4,0,0.5c-1,1-2.7,0.6-4,0.5   c-1.7-0.2-3.9-0.4-5-2C1127.9,542.1,1127.9,541.4,1128.5,541.2z"/>
	<path class="st1" d="M1215.3,565.5c7.9-10.3,15-20.9,21.3-32.2c2.9-5.3,5.7-10.6,8.5-16c2.7-5.3,5.1-11.1,9.1-15.7   c1.1-1.3,3.9-0.6,3.4,1.4c-1.3,5.9-4.4,11.2-7.2,16.5c-2.9,5.6-5.9,11.1-9.1,16.5c-6.7,11.4-14.2,22.6-23.9,31.7   C1216.2,568.8,1214.3,566.9,1215.3,565.5z"/>
	<path class="st1" d="M1209.2,553.9c1.2-3.2,2.8-6.1,4.4-9.1c0.4-0.8,1.7-0.6,1.6,0.4c-0.3,3.3-1.4,5.9-2.8,8.9   c-1.3,2.7-2.3,5.9-4.2,8.3c-0.2,0.2-0.4,0.1-0.5-0.1C1207.1,559.5,1208.3,556.5,1209.2,553.9z"/>
	<path class="st1" d="M1217.7,521.5c0.4-0.9,1.8-0.5,1.7,0.4c-0.4,4-0.7,8.1-2.4,11.9c-0.4,0.9-1.6,0.5-1.6-0.4   C1215.5,529.3,1216.2,525.3,1217.7,521.5z"/>
	<path class="st1" d="M1215.7,500.1c0.3-0.8,1.6-0.7,1.7,0.2c0.2,3.3-0.1,6.5,0.8,9.7c0.4,1.5-2,1.8-2.4,0.3   C1214.7,507,1214.5,503.5,1215.7,500.1z"/>
	<path class="st1" d="M1226.8,573.5c10.7-6.3,24.7-8.4,36.8-9.9c11.9-1.5,25.6-2.9,37.3,0.6c1.8,0.5,1.3,3.4-0.4,3.5   c-12,1.2-24.1-0.1-36.1,1c-12.5,1.1-24.8,4.7-37.3,5.5C1226.6,574.2,1226.5,573.7,1226.8,573.5z"/>
	<path class="st1" d="M1226.3,566.9c2.6-3.2,6.4-5.5,9.9-7.6c0.9-0.6,2.1,0.4,1.4,1.4c-2.4,3.5-6,7-10.5,7.6   C1226.4,568.4,1225.8,567.5,1226.3,566.9z"/>
	<path class="st1" d="M1250.8,552.9c1-1.6,2.3-2.8,3.8-4.1c1.5-1.3,2.7-2.7,4.5-3.6c0.6-0.3,1.4,0.3,1.2,0.9   c-0.5,2.2-1.8,3.2-3.5,4.5c-1.7,1.3-3.6,2.3-5.6,2.9C1250.8,553.6,1250.6,553.2,1250.8,552.9z"/>
	<path class="st1" d="M1276.5,533.4c2.2-2.4,4.7-5.5,8-6.4c1.1-0.3,2.3,0.8,1.5,1.9c-2,2.7-5.8,4-8.9,5.3   C1276.7,534.3,1276.1,533.8,1276.5,533.4z"/>
	<path class="st1" d="M1142.6,639.7c1.8-7.8,8.5-12,13-18.1c1.4-1.9,4.2,0.2,2.9,2.2c-4,6-9.5,11-13.8,16.8   C1144.1,641.5,1142.3,640.9,1142.6,639.7z"/>
</g>
</svg>