<svg xmlns="http://www.w3.org/2000/svg" xmlns:xlink="http://www.w3.org/1999/xlink" version="1.1" id="Layer_2" x="0px" y="0px" viewBox="0 0 1080 1080" style="enable-background:new 0 0 1080 1080;" xml:space="preserve">
<style type="text/css">
	.st0{fill:#F7F7F7;}
	.st1{fill:#CCEEFF;}
	.st2{fill:#B0E1FF;}
	.st3{fill:#F2F2F2;}
	.st4{fill:#FFB345;}
	.st5{opacity:0.2;fill:#AAAAAA;}
	.st6{fill:#2A94F4;}
	.st7{fill:#FFE3CA;}
	.st8{fill:#0B4870;}
	.st9{fill:#FC971F;}
	.st10{fill:#2390E2;}
	.st11{fill:#BCBCBC;}
	.st12{fill:#7F7F7F;}
	.st13{fill:#FFFFFF;stroke:#7F7F7F;stroke-miterlimit:10;}
</style>
<g>
	<path class="st0" d="M313.4,193c-26,11.4-51.8,25.2-69.9,46.9s-27.3,53-16.4,79.2c14.6,34.9,60.7,55.3,60.9,93.1   c0.2,27.1-24.9,47.8-50.1,57.7c-25.3,9.9-53.2,13.4-76.2,27.8c-34.7,21.7-50.9,63.8-57.6,104.2c-6.9,41.9-4.1,89.6,25.6,120   c36.9,37.8,97.8,33.5,150,25.5c69.6-10.8,139-23.4,208.3-36c151.9-27.7,303.9-55.4,455.8-83.1c16.3-3,33.2-6.2,46.5-16.2   c26.3-19.8,28.5-60.6,13.2-89.7c-15.3-29.1-43.5-48.9-71.6-66s-57.7-33.3-78.8-58.6c-21-25.3-31.5-62.7-15.6-91.5   c13.5-24.4,42.4-37.4,55.1-62.3c16.6-32.7-2.5-74.5-32.7-95.4C829.7,127.8,450.6,133.1,313.4,193z"/>
</g>
<g>
	<g>
		<path class="st1" d="M977.4,636c29.6,16.1,49.8,47.5,49.8,83.6c0,52.5-42.5,95-95,95c-40.5,0-75-25.3-88.7-61L977.4,636z"/>
	</g>
	<g>
		<circle class="st2" cx="830.5" cy="603.8" r="150.4"/>
	</g>
	<g>
		<g>
			<path class="st1" d="M830.5,901c-1.9,0-3.4-1.5-3.4-3.4V603.8c0-1.9,1.5-3.4,3.4-3.4c1.9,0,3.4,1.5,3.4,3.4v293.8     C834,899.5,832.4,901,830.5,901z"/>
		</g>
		<g>
			<path class="st1" d="M830.5,685.1c-0.9,0-1.8-0.3-2.4-1L786,642c-1.3-1.3-1.3-3.5,0-4.9c1.3-1.3,3.5-1.3,4.9,0l42.1,42.1     c1.3,1.3,1.3,3.5,0,4.9C832.3,684.8,831.4,685.1,830.5,685.1z"/>
		</g>
		<g>
			<path class="st1" d="M830.5,724.2c-0.9,0-1.8-0.3-2.4-1L786,681.1c-1.3-1.3-1.3-3.5,0-4.9c1.3-1.3,3.5-1.3,4.9,0l42.1,42.1     c1.3,1.3,1.3,3.5,0,4.9C832.3,723.9,831.4,724.2,830.5,724.2z"/>
		</g>
		<g>
			<path class="st1" d="M931.6,900.9c-1.7-0.3-2.8-1.9-2.8-3.6V743.4c0-1.9,1.4-3.5,3.3-3.6c2-0.1,3.6,1.5,3.6,3.4v154.3     C935.6,899.7,933.8,901.3,931.6,900.9z"/>
		</g>
		<g>
			<path class="st1" d="M932.2,765.8c-0.9,0-1.8-0.3-2.4-1c-1.3-1.3-1.3-3.5,0-4.9l30.4-30.4c1.3-1.3,3.5-1.3,4.9,0     c1.3,1.3,1.3,3.5,0,4.9l-30.4,30.4C934,765.4,933.1,765.8,932.2,765.8z"/>
		</g>
		<g>
			<path class="st1" d="M932.2,794c-0.9,0-1.8-0.3-2.4-1c-1.3-1.3-1.3-3.5,0-4.9l30.4-30.4c1.3-1.3,3.5-1.3,4.9,0     c1.3,1.3,1.3,3.5,0,4.9L934.6,793C934,793.6,933.1,794,932.2,794z"/>
		</g>
	</g>
</g>
<g>
	<g>
		<circle class="st2" cx="179.5" cy="603.8" r="150.4"/>
	</g>
	<g>
		<g>
			<path class="st1" d="M179.5,901c-1.9,0-3.4-1.5-3.4-3.4V603.8c0-1.9,1.5-3.4,3.4-3.4c1.9,0,3.4,1.5,3.4,3.4v293.8     C183,899.5,181.4,901,179.5,901z"/>
		</g>
		<g>
			<path class="st1" d="M179.5,685.1c-0.9,0-1.8-0.3-2.4-1L135,642c-1.3-1.3-1.3-3.5,0-4.9c1.3-1.3,3.5-1.3,4.9,0l42.1,42.1     c1.3,1.3,1.3,3.5,0,4.9C181.3,684.8,180.4,685.1,179.5,685.1z"/>
		</g>
		<g>
			<path class="st1" d="M179.5,724.2c-0.9,0-1.8-0.3-2.4-1L135,681.1c-1.3-1.3-1.3-3.5,0-4.9c1.3-1.3,3.5-1.3,4.9,0l42.1,42.1     c1.3,1.3,1.3,3.5,0,4.9C181.3,723.9,180.4,724.2,179.5,724.2z"/>
		</g>
	</g>
</g>
<path class="st3" d="M1024.1,945.4H55.9c-6.3,0-11.4-5.1-11.4-11.4v-56.8c0-6.3,5.1-11.4,11.4-11.4h968.2c6.3,0,11.4,5.1,11.4,11.4  V934C1035.5,940.3,1030.4,945.4,1024.1,945.4z"/>
<circle class="st4" cx="878.5" cy="156.5" r="83.5"/>
<ellipse class="st5" cx="427.5" cy="902" rx="244.5" ry="21"/>
<path class="st6" d="M388.7,185c-2-2.4-4.1-4.7-6.4-6.7c-2.3-2.1-4.8-3.8-7.4-5.3l-2-1.1l-2.1-0.9c-0.7-0.3-1.4-0.5-2.1-0.8  l-1.1-0.4c-0.4-0.1-0.7-0.2-1.1-0.3c-0.7-0.2-1.4-0.4-2.2-0.5l-2.2-0.4l-2.2-0.2c-0.7-0.1-1.5-0.1-2.2-0.1c-0.7-0.1-1.5,0-2.2,0  l-1.1,0c-0.4,0-0.7,0.1-1.1,0.1c-1.5,0.1-3,0.3-4.5,0.5c-3,0.4-5.9,1.1-8.8,2c-2.9,0.9-5.7,1.9-8.5,3.2c-1.4,0.6-2.7,1.3-4.1,2  c-1.3,0.7-2.7,1.5-3.9,2.2l-2.2,1.4l-1.1-2.4c-0.2-0.5-0.6-1.2-0.9-1.8c-0.3-0.6-0.7-1.2-1.1-1.8c-0.8-1.2-1.6-2.3-2.5-3.4  c-1.8-2.2-3.9-4.1-6.2-5.8c-2.3-1.6-4.8-2.9-7.4-3.8c-2.7-0.9-5.5-1.3-8.3-1.4c-1.4-0.1-2.9,0.1-4.3,0.2c-1.4,0.2-2.9,0.4-4.3,0.7  c-2.9,0.6-5.6,1.6-8.4,2.6c-5.5,2.2-10.7,5.2-15.8,8.4c4.5-4,9.5-7.6,14.9-10.5c2.8-1.3,5.6-2.6,8.6-3.5c1.5-0.5,3-0.8,4.6-1.1  c1.6-0.2,3.1-0.4,4.7-0.5c3.2-0.1,6.4,0.2,9.5,1.1c3.1,0.9,6.1,2.3,8.7,4.1c2.7,1.8,5.1,4,7.1,6.4c1.1,1.2,2,2.5,2.9,3.8  c0.4,0.7,0.9,1.3,1.3,2c0.4,0.7,0.8,1.4,1.2,2.2l-3.3-1c1.5-0.9,2.8-1.6,4.3-2.4c1.4-0.7,2.9-1.4,4.4-2c2.9-1.3,6-2.4,9.1-3.2  c3.1-0.8,6.3-1.5,9.5-1.9c1.6-0.2,3.2-0.3,4.8-0.3c0.4,0,0.8,0,1.2,0l1.2,0c0.8,0,1.6,0.1,2.4,0.2c6.5,0.5,12.8,2.7,18.1,6.3  c2.6,1.8,5.1,3.9,7.1,6.3c1.1,1.1,2,2.4,3,3.7c0.5,0.6,0.9,1.3,1.3,2L388.7,185z"/>
<path class="st6" d="M915.3,359.8c-2.2-1.3-4.4-2.6-6.8-3.6c-2.3-1-4.7-1.7-7.2-2.2l-1.8-0.3l-1.9-0.2c-0.6-0.1-1.2,0-1.9,0l-0.9,0  c-0.3,0-0.6,0-0.9,0.1c-0.6,0.1-1.2,0.1-1.8,0.2l-1.8,0.3l-1.8,0.4c-0.6,0.1-1.2,0.3-1.8,0.5c-0.6,0.2-1.2,0.4-1.8,0.6l-0.9,0.3  c-0.3,0.1-0.6,0.2-0.9,0.4c-1.2,0.4-2.3,1-3.4,1.5c-2.2,1.1-4.3,2.4-6.3,3.9c-2,1.4-4,3-5.8,4.7c-0.9,0.8-1.8,1.7-2.7,2.6  c-0.9,0.9-1.7,1.8-2.4,2.7l-1.4,1.7l-1.5-1.6c-0.3-0.3-0.8-0.8-1.2-1.2c-0.4-0.4-0.9-0.8-1.3-1.1c-0.9-0.7-1.9-1.4-2.9-2  c-2-1.3-4.1-2.2-6.3-2.9c-2.2-0.7-4.5-1-6.8-1c-2.3,0-4.6,0.4-6.9,1.1c-1.1,0.3-2.2,0.8-3.3,1.3c-1.1,0.6-2.1,1-3.2,1.7  c-2.1,1.2-4,2.7-5.9,4.2c-3.7,3.2-7,6.9-10.2,10.7c2.5-4.3,5.4-8.4,8.9-12.1c1.8-1.8,3.7-3.5,5.8-5c1-0.8,2.2-1.4,3.3-2.1  c1.2-0.6,2.3-1.2,3.6-1.6c2.5-0.9,5.1-1.5,7.7-1.6c2.7-0.1,5.3,0.2,7.9,0.9c2.6,0.7,5,1.8,7.3,3.1c1.1,0.7,2.2,1.4,3.3,2.2  c0.5,0.4,1,0.8,1.5,1.3c0.5,0.4,1,0.9,1.5,1.4l-2.9,0.1c0.9-1.1,1.8-2,2.7-3c0.9-0.9,1.9-1.9,2.9-2.7c2-1.8,4-3.4,6.2-4.9  c2.2-1.5,4.5-2.8,6.9-3.9c1.2-0.5,2.4-1.1,3.7-1.5c0.3-0.1,0.6-0.2,0.9-0.3l1-0.3c0.6-0.2,1.3-0.4,1.9-0.5  c5.2-1.3,10.7-1.2,15.8,0.2c2.5,0.8,5,1.7,7.2,3.1c1.2,0.6,2.2,1.4,3.3,2.1c0.5,0.4,1,0.8,1.5,1.2L915.3,359.8z"/>
<g>
	<path class="st7" d="M624.7,518.1c-3.7,1.2-8.3-0.1-12.7-2.5c-1.3,2.8-3.8,6.4-8.5,6.4c-3.9-3.9-5.8-9.7-11.6-21.2h1.9l15.4-9.7   C622.8,496.9,632.5,508.4,624.7,518.1z"/>
	<path class="st8" d="M621.6,509.4l22.4,16.4l-11.6,374.5h-9.7l5.8-364.8l-17.1-11.9c-4.3-3-5-8.9-1.7-12.9v0   C612.8,507.3,617.9,506.7,621.6,509.4z"/>
	<path class="st9" d="M581,552c5.8,26,13,94.2,16.2,127c1.1,11.2-3.5,22.2-12.4,29.2L429.8,830.8l-15.4-15.4   c0,0,123.4-134.3,144.7-132.4c-25.1-36.7-41-131-41-131H581z"/>
	<g>
		<path class="st8" d="M552.5,871.3c6.6,1.9,27.8,7.7,39.4,7.7s21.2,9.7,11.6,17.4c-9.7,7.7-40.5,1.9-50.2,3.9s-30.9,0-29-7.7    s5.8-30.9,5.8-30.9L552.5,871.3z"/>
		<path class="st4" d="M556,548l-0.8,323.3h-27c0,0-19.1-162.6-15.2-168.3c-14-24-33-161.7-33-161.7L556,548z"/>
	</g>
	<path class="st7" d="M441.4,550.9l-5.3,21.6c-0.3,4.4,2.2,8.5,6.3,10.3l12.4,5.3c3.1,1.3,6.3-1.5,5.4-4.7   c-2.1-7.5-4.6-17.7-3.4-18.9c2.3,2.3,3.9,3.3,6.5,5.3c2,1.6,4.5,2.4,7,2.4l0,0c0,0-9.7-19.3-9.7-23.2s-11.6-7.7-11.6-7.7   L441.4,550.9z"/>
	<path class="st10" d="M567.7,337.9c23.2,28.6,19.4,103.9,19.4,103.9l30.9,46.3l-38.6,29c0,0-48.3-81.1-30.9-119.7   C565.9,358.8,567.7,337.9,567.7,337.9z"/>
	<path class="st6" d="M588.1,562.5c-7.7,1.9-108.1,0-108.1,0l-3.9-9.7c0,0,0,0-5.8,3.9c-5.8,3.9-36.7-1.9-36.7-1.9   s-7.7-92.7,0-142.8c7.7-50.2,29-77.2,76.8-92.7c0,0,41.7,8.8,59.4,24c10.9,9.5,11.2,41.6,9.3,68.3c-1.4,18.8-3.9,35-4.7,39   c-0.2,1.2-0.1,3.8,0.3,7.3C577.9,483.4,594.8,560.8,588.1,562.5z"/>
	<path class="st8" d="M430.4,824.8c2.8,4.6,12.2,19.4,19,25.6c6.8,6.2,7.3,17-2.5,16.4c-9.8-0.6-24.8-20.5-31.5-24.5   c-6.7-4-18.1-16.5-12.9-20s19.9-15,19.9-15L430.4,824.8z"/>
	<g>
		<g>
			<path class="st11" d="M574.3,291.7c-7.2-14.2-42-39.1-64.7,3c-9.7,18.1,10.8,49.4,10.8,49.4S507.5,259.4,574.3,291.7z"/>
			
				<ellipse transform="matrix(0.12 -0.9928 0.9928 0.12 160.7197 823.0944)" class="st7" cx="544.6" cy="320.9" rx="36.7" ry="26.1"/>
			<path class="st11" d="M537.5,298.2c12.2,3.3,32.9-0.3,36.9-6.6c-8.2-10-17.5-15.8-32.5-12.3c-12.7,4.9-27.5,18.2-25.4,27.6     c2.2,9.4,0.6,19.7,0.6,19.7s1.8,25.3,13.8,34.5c12,9.1,46.1-0.5,45.3-18.3c-1-23.6-26.3-19.7-40.1-10.6     c-13,8.6-16.7-11.4-4.5-31.6C532.8,298.5,535.2,297.6,537.5,298.2z"/>
			<path class="st7" d="M521.2,320.2c0.6,4.4,1,9.7-2.5,10.1c-3.5,0.5-8.4-4.2-9-8.6c-0.6-4.4,1.7-8.3,5.2-8.8     C518.4,312.5,520.6,315.8,521.2,320.2z"/>
			
				<ellipse transform="matrix(0.9747 -0.2236 0.2236 0.9747 -58.1684 133.435)" class="st7" cx="560.2" cy="323.6" rx="3.5" ry="5"/>
		</g>
		<g>
			<g>
				<path class="st12" d="M552.2,316.7l-0.6-0.8c3.7-3,6.1-2.4,9.8-0.1l-0.5,0.8C557.4,314.5,555.4,314,552.2,316.7z"/>
			</g>
			<circle class="st13" cx="543.6" cy="316.1" r="10"/>
			<circle class="st13" cx="569.1" cy="315.4" r="10"/>
		</g>
	</g>
	<path class="st2" d="M574.9,457.9C534.1,465,477,450,477,450s-1-13,3-47c12.6,1.8,46.1,9.2,99.2,8.6c-1.4,18.8-3.9,35-4.7,39   C574.3,451.7,574.5,454.3,574.9,457.9z"/>
</g>
</svg>